<svg width="101" height="98" viewBox="0 0 101 98" fill="none" xmlns="http://www.w3.org/2000/svg">
<g id="noun-accuracy-6329817 1">
<path id="Vector" fill-rule="evenodd" clip-rule="evenodd" d="M87.4212 9.54722C85.5219 8.05787 83.0226 7.13092 80.3493 6.9243C77.6759 6.71769 74.9939 7.24419 72.7602 8.4141C70.5266 9.58401 68.8794 11.3249 68.0994 13.3403C67.3194 15.3556 67.4549 17.5206 68.4827 19.4664C69.5105 21.4122 71.3671 23.0184 73.7361 24.0113C76.1051 25.0042 78.84 25.3224 81.4747 24.9116C84.1094 24.5009 86.4809 23.3866 88.1852 21.7587C89.8895 20.1308 90.821 18.0899 90.8212 15.9839C90.8232 14.7883 90.5239 13.6042 89.9404 12.4996C89.3569 11.3949 88.5008 10.3916 87.4212 9.54722ZM79.2112 5.00002C82.4516 5.00131 85.5912 5.8834 88.0952 7.49602C90.5991 9.10863 92.3124 11.352 92.9431 13.8439C93.5739 16.3358 93.0831 18.9221 91.5544 21.1622C90.0257 23.4022 87.5536 25.1574 84.5593 26.1287C81.5651 27.1 78.2339 27.2273 75.1333 26.489C72.0327 25.7507 69.3546 24.1924 67.5552 22.0796C65.7557 19.9668 64.9464 17.4302 65.2649 14.902C65.5835 12.3738 67.0102 10.0104 69.3022 8.21442C70.6022 7.19313 72.1469 6.38339 73.8474 5.83175C75.548 5.2801 77.3708 4.99744 79.2112 5.00002ZM73.3552 16.974C73.1032 16.8242 72.9375 16.6021 72.8944 16.3565C72.8514 16.1109 72.9346 15.8619 73.1257 15.6644C73.3167 15.4668 73.6001 15.3369 73.9134 15.3032C74.2267 15.2694 74.5442 15.3346 74.7962 15.4844L78.2682 17.5526L83.4142 12.5264C83.6131 12.3328 83.9019 12.2091 84.2172 12.1825C84.5324 12.1559 84.8482 12.2286 85.0952 12.3845C85.3421 12.5405 85.4999 12.7669 85.5338 13.0141C85.5678 13.2612 85.4751 13.5088 85.2762 13.7024L79.4022 19.4366C79.2072 19.6258 78.9258 19.7481 78.6177 19.7773C78.3097 19.8066 77.9992 19.7406 77.7522 19.5934L73.3522 16.9733L73.3552 16.974ZM19.5552 27.7274C21.5037 25.9245 23.8863 24.4403 26.5668 23.3596C29.2472 22.2788 32.1731 21.6228 35.1771 21.429C38.1811 21.2352 41.2043 21.5074 44.0741 22.23C46.9439 22.9526 49.6039 24.1115 51.9022 25.6404C54.2008 27.1681 56.093 29.0358 57.4707 31.1369C58.8485 33.2381 59.6848 35.5314 59.9319 37.8859C60.179 40.2405 59.832 42.6101 58.9109 44.8595C57.9897 47.1089 56.5123 49.194 54.5632 50.9957C52.6283 52.8325 50.2473 54.3498 47.5585 55.4594C44.8697 56.569 41.9265 57.249 38.8999 57.4597C35.8732 57.6704 32.8233 57.4078 29.9271 56.687C27.031 55.9662 24.3462 54.8017 22.0287 53.2609C19.7112 51.7202 17.8071 49.8339 16.4269 47.7116C15.0467 45.5893 14.2178 43.2732 13.9885 40.8978C13.7591 38.5223 14.1338 36.1348 15.0907 33.8738C16.0477 31.6128 17.5679 29.5233 19.5632 27.7266L19.5552 27.7274ZM21.3792 28.9379C18.7498 31.3687 17.0989 34.3562 16.6352 37.5226C16.1715 40.689 16.9158 43.8921 18.774 46.7268C20.6322 49.5616 23.5209 51.9007 27.0747 53.4484C30.6285 54.9961 34.6879 55.6828 38.7396 55.4217C42.7912 55.1607 46.6532 53.9636 49.837 51.9818C53.0209 50 55.3837 47.3226 56.6267 44.288C57.8697 41.2535 57.937 37.9981 56.8201 34.9335C55.7033 31.8689 53.4524 29.1328 50.3522 27.0712C46.1941 24.3081 40.8067 22.9525 35.3743 23.3026C29.9418 23.6526 24.909 25.6796 21.3822 28.9379H21.3792ZM55.1022 58.2258L56.4242 59.1046C57.3247 59.6985 58.488 59.9895 59.6608 59.9141C60.8336 59.8388 61.9209 59.4033 62.6862 58.7024L65.5602 56.0455C66.3171 55.3394 66.6878 54.4276 66.5918 53.5084C66.4957 52.5892 65.9406 51.7369 65.0472 51.1368L63.7312 50.2603C62.6948 51.8138 61.4414 53.2721 59.9942 54.6084C58.5408 55.9535 56.8999 57.1669 55.1022 58.2258ZM62.0612 48.6814C62.0705 48.4719 62.1699 48.271 62.3432 48.1114C62.373 48.0839 62.4047 48.0578 62.4382 48.033C65.0858 43.2634 65.4578 37.9065 63.4863 32.9398C61.5149 27.973 57.3314 23.7275 51.6992 20.978C46.0671 18.2285 39.3617 17.1582 32.8067 17.9625C26.2517 18.7667 20.284 21.3919 15.9926 25.359C11.7012 29.3261 9.37208 34.3706 9.43034 39.5721C9.48859 44.7735 11.9303 49.7852 16.3099 53.6926C20.6895 57.6 26.7151 60.1426 33.2871 60.8565C39.8591 61.5704 46.5395 60.408 52.1092 57.5813C52.1304 57.5568 52.1534 57.5332 52.1782 57.5108C52.347 57.3538 52.5773 57.2449 52.8332 57.2011C54.8158 56.1213 56.6097 54.8427 58.1692 53.3979C59.7216 51.9643 61.0292 50.3789 62.0612 48.6814ZM63.2802 60.802C63.7355 60.5466 64.1486 60.248 64.5102 59.9129L67.3842 57.256C67.749 56.9194 68.059 56.5486 68.3072 56.1521L86.6072 68.3174C86.9964 68.5764 87.3168 68.8929 87.55 69.2489C87.7832 69.6049 87.9247 69.9934 87.9664 70.3923C88.0081 70.7912 87.9492 71.1926 87.793 71.5736C87.6368 71.9546 87.3864 72.3078 87.0562 72.613C86.7259 72.9181 86.3222 73.1693 85.8681 73.3521C85.414 73.535 84.9184 73.6459 84.4097 73.6786C83.9009 73.7113 83.3889 73.6651 82.9029 73.5426C82.4169 73.4202 81.9664 73.2239 81.5772 72.965L63.2822 60.802H63.2802ZM68.9862 54.1466L88.1512 66.8874C89.4212 67.7314 90.2115 68.9363 90.3483 70.2372C90.4851 71.538 89.9572 72.8282 88.8807 73.8238C87.8042 74.8195 86.2672 75.4391 84.608 75.5464C82.9488 75.6537 81.3032 75.2398 80.0332 74.3958L60.8742 61.6581C60.539 61.7201 60.1984 61.7623 59.8552 61.7844C58.9622 61.8429 58.0633 61.7628 57.2099 61.5484C56.3565 61.3341 55.5655 60.9899 54.8822 60.5354L53.0652 59.3265C47.653 61.9907 41.2995 63.2346 34.9251 62.878C28.5508 62.5214 22.4869 60.5827 17.6122 57.343C11.5294 53.2988 7.74501 47.5257 7.09145 41.2939C6.43788 35.0621 8.96871 28.882 14.1272 24.1132C19.2856 19.3443 26.6492 16.3773 34.5979 15.8649C42.5466 15.3525 50.4294 17.3367 56.5122 21.3809C61.3911 24.6252 64.824 29.0042 66.3126 33.8822C67.8012 38.7602 67.2679 43.8831 64.7902 48.5073L66.5982 49.7092C67.4104 50.2523 68.0498 50.9365 68.4656 51.7074C68.8813 52.4783 69.062 53.3145 68.9932 54.1498L68.9862 54.1466ZM49.4062 40.3012H48.9062C48.5879 40.3012 48.2827 40.2021 48.0576 40.0256C47.8326 39.8492 47.7062 39.6099 47.7062 39.3604C47.7062 39.1109 47.8326 38.8716 48.0576 38.6951C48.2827 38.5187 48.5879 38.4196 48.9062 38.4196H49.4062C49.1289 36.1752 47.8651 34.0763 45.8313 32.482C43.7974 30.8877 41.1199 29.8973 38.2572 29.6803V30.0723C38.2572 30.3219 38.1307 30.5611 37.9057 30.7376C37.6807 30.914 37.3754 31.0131 37.0572 31.0131C36.7389 31.0131 36.4337 30.914 36.2086 30.7376C35.9836 30.5611 35.8572 30.3219 35.8572 30.0723V29.6803C32.6472 29.9214 29.6846 31.1369 27.6022 33.0672C25.9641 34.5777 24.9567 36.4459 24.7162 38.4196H25.2162C25.5344 38.4196 25.8397 38.5187 26.0647 38.6951C26.2897 38.8716 26.4162 39.1109 26.4162 39.3604C26.4162 39.6099 26.2897 39.8492 26.0647 40.0256C25.8397 40.2021 25.5344 40.3012 25.2162 40.3012H24.7162C24.9926 42.5462 26.2561 44.646 28.2903 46.2409C30.3244 47.8359 33.0026 48.8266 35.8662 49.0436V48.6516C35.8662 48.528 35.8972 48.4057 35.9575 48.2915C36.0178 48.1774 36.1062 48.0737 36.2176 47.9863C36.3291 47.899 36.4614 47.8297 36.6069 47.7824C36.7525 47.7351 36.9086 47.7108 37.0662 47.7108C37.2238 47.7108 37.3798 47.7351 37.5254 47.7824C37.671 47.8297 37.8033 47.899 37.9147 47.9863C38.0261 48.0737 38.1145 48.1774 38.1748 48.2915C38.2351 48.4057 38.2662 48.528 38.2662 48.6516V49.0436C41.1297 48.8268 43.808 47.8363 45.8424 46.2415C47.8767 44.6467 49.1405 42.547 49.4172 40.302L49.4062 40.3012ZM52.9412 38.4196H51.8102V38.4141C51.6535 36.8945 51.1151 35.4141 50.2262 34.0581C49.3372 32.7022 48.1151 31.4973 46.6302 30.5129C44.273 28.9401 41.3436 27.9896 38.2582 27.7964V26.9089C38.2582 26.6594 38.1317 26.4201 37.9067 26.2437C37.6817 26.0672 37.3764 25.9681 37.0582 25.9681C36.7399 25.9681 36.4347 26.0672 36.2096 26.2437C35.9846 26.4201 35.8582 26.6594 35.8582 26.9089V27.7972H35.8482C33.91 27.9201 32.0219 28.3422 30.2924 29.039C28.5629 29.7358 27.0261 30.6936 25.7702 31.8575C23.764 33.7055 22.5516 36.0021 22.3052 38.4212H21.1752C20.8569 38.4212 20.5517 38.5203 20.3266 38.6967C20.1016 38.8731 19.9752 39.1124 19.9752 39.362C19.9752 39.6115 20.1016 39.8508 20.3266 40.0272C20.5517 40.2036 20.8569 40.3028 21.1752 40.3028H22.3082V40.3114C22.4651 41.831 23.0035 43.3113 23.8925 44.6672C24.7814 46.0232 26.0034 47.228 27.4882 48.2125C29.8453 49.7854 32.7747 50.7359 35.8602 50.9291V51.8166C35.8602 52.0661 35.9866 52.3054 36.2116 52.4818C36.4367 52.6583 36.7419 52.7574 37.0602 52.7574C37.3784 52.7574 37.6837 52.6583 37.9087 52.4818C38.1337 52.3054 38.2602 52.0661 38.2602 51.8166V50.9267H38.2712C41.7679 50.7005 45.0486 49.5081 47.5283 47.562C50.0081 45.616 51.5259 43.0428 51.8112 40.3012H52.9432C53.2614 40.3012 53.5667 40.2021 53.7917 40.0256C54.0167 39.8492 54.1432 39.6099 54.1432 39.3604C54.1432 39.1109 54.0167 38.8716 53.7917 38.6951C53.5667 38.5187 53.2614 38.4196 52.9432 38.4196H52.9412ZM38.7942 37.7548C38.3202 37.4383 37.7209 37.2605 37.0984 37.2519C36.4759 37.2432 35.8689 37.4041 35.3809 37.7072C34.8929 38.0103 34.5542 38.4367 34.4225 38.9137C34.2908 39.3908 34.3743 39.8889 34.6588 40.323C34.9432 40.7572 35.4111 41.1005 35.9824 41.2944C36.5537 41.4883 37.1932 41.5208 37.7916 41.3862C38.3901 41.2517 38.9105 40.9586 39.264 40.5568C39.6175 40.1551 39.7823 39.6696 39.7302 39.1832C39.6713 38.6288 39.3348 38.1152 38.7942 37.7548ZM33.1872 36.7857C32.7559 37.1841 32.429 37.6453 32.2252 38.1428C32.0214 38.6403 31.9447 39.1644 31.9995 39.6852C32.0543 40.206 32.2395 40.7132 32.5446 41.1778C32.8496 41.6424 33.2684 42.0553 33.7772 42.3929C34.5427 42.9015 35.4834 43.2208 36.4803 43.3103C37.4773 43.3998 38.4857 43.2556 39.378 42.8958C40.2704 42.5361 41.0067 41.9769 41.4938 41.2891C41.9809 40.6013 42.1969 39.8157 42.1146 39.0317C42.0322 38.2476 41.6552 37.5003 41.0312 36.8842C40.4071 36.2682 39.5641 35.811 38.6087 35.5705C37.6532 35.33 36.6283 35.3171 35.6635 35.5332C34.6987 35.7494 33.8373 36.185 33.1882 36.7849L33.1872 36.7857Z" fill="#C4C3C3"/>
</g>
</svg>
