<svg width="98" height="102" viewBox="0 0 98 102" fill="none" xmlns="http://www.w3.org/2000/svg">
<path d="M61.6052 2.59679C71.1452 6.07079 76.0652 16.6208 72.5922 26.1618C69.4412 34.8218 60.4602 39.6718 51.6962 37.9008C50.8022 37.7208 46.9192 35.4318 42.8322 29.0868C36.9542 19.9588 38.0382 13.5828 38.0382 13.5828C41.5122 4.03978 52.0622 -0.878211 61.6052 2.59679Z" fill="url(#paint0_radial_307_3444)"/>
<path opacity="0.4" d="M63.3484 16.4588C67.8524 18.0998 70.1754 23.0808 68.5344 27.5858C66.8944 32.0908 61.9134 34.4118 57.4094 32.7738C52.9034 31.1328 50.5834 26.1518 52.2234 21.6478C53.8634 17.1418 58.8424 14.8198 63.3484 16.4588Z" fill="url(#paint1_radial_307_3444)"/>
<path opacity="0.6" d="M57.1003 4.41778C63.0703 6.59178 66.1493 13.1928 63.9753 19.1648C61.8003 25.1368 55.1992 28.2158 49.2272 26.0408C43.2562 23.8698 40.1782 17.2648 42.3522 11.2918C44.5252 5.32177 51.1273 2.24478 57.1003 4.41778Z" fill="url(#paint2_radial_307_3444)"/>
<path opacity="0.6" d="M50.8253 4.7178C55.0083 6.2388 56.4533 12.8188 54.0523 19.4108C51.6543 26.0058 46.3163 30.1178 42.1333 28.5968C37.9513 27.0728 36.5063 20.4928 38.9063 13.8988C41.3063 7.3038 46.6443 3.1938 50.8253 4.7178Z" fill="url(#paint3_linear_307_3444)"/>
<path opacity="0.3" d="M48.4612 21.8238L45.7122 24.5538C47.1512 25.6278 48.7132 26.5288 50.3492 27.1968L52.0451 24.0608C50.7051 23.5018 49.5032 22.7398 48.4612 21.8238Z" fill="url(#paint4_linear_307_3444)"/>
<path opacity="0.3" d="M43.2922 26.9568C44.4782 28.7658 46.1082 30.2928 48.1012 31.3498L49.5682 28.6388C47.8052 27.7888 46.1802 26.6738 44.7982 25.4608L43.2922 26.9568Z" fill="url(#paint5_linear_307_3444)"/>
<path opacity="0.3" d="M52.7833 24.3428L51.5803 27.6518C53.3073 28.2218 55.0973 28.5278 56.9003 28.5088L56.5683 25.0678C55.3063 25.0148 54.0333 24.7798 52.7833 24.3428Z" fill="url(#paint6_linear_307_3444)"/>
<path opacity="0.3" d="M50.9952 29.2548L49.9402 32.1538C52.3882 33.0088 54.9232 33.0928 57.2912 32.5308L57.0722 30.2738C55.0152 30.4058 52.9432 30.0048 50.9952 29.2548Z" fill="url(#paint7_linear_307_3444)"/>
<path d="M64.9373 7.66178C64.5623 11.4228 60.6583 14.1128 56.2193 13.6688C51.7813 13.2238 48.4903 9.81478 48.8653 6.05478C49.2423 2.29178 53.1463 -0.395221 57.5853 0.047779C62.0223 0.492779 65.3143 3.90278 64.9373 7.66178Z" fill="url(#paint8_radial_307_3444)"/>
<path d="M20.2195 32.4008C20.6365 42.5458 29.1985 50.4338 39.3435 50.0158C48.5505 49.6378 55.8965 42.5508 56.8655 33.6628C56.9655 32.7558 55.9625 28.3598 51.1525 22.5438C44.2375 14.1748 37.8325 13.2728 37.8325 13.2728C27.6875 13.6918 19.8015 22.2538 20.2195 32.4008Z" fill="url(#paint9_radial_307_3444)"/>
<path opacity="0.4" d="M32.9005 38.2648C33.0975 43.0538 37.1395 46.7788 41.9305 46.5818C46.7195 46.3848 50.4435 42.3408 50.2465 37.5528C50.0485 32.7618 46.0055 29.0398 41.2155 29.2368C36.4265 29.4328 32.7045 33.4748 32.9005 38.2648Z" fill="url(#paint10_radial_307_3444)"/>
<path opacity="0.6" d="M22.6554 24.0788C22.9174 30.4278 28.2744 35.3618 34.6244 35.1008C40.9744 34.8388 45.9104 29.4808 45.6474 23.1318C45.3884 16.7828 40.0274 11.8468 33.6764 12.1098C27.3294 12.3708 22.3944 17.7298 22.6554 24.0788Z" fill="url(#paint11_radial_307_3444)"/>
<path opacity="0.3" d="M48.8395 30.3718L51.9215 30.2458C51.9935 32.8378 51.3045 35.2798 50.0535 37.3648L47.9675 36.4718C48.7175 34.5518 48.9625 32.4568 48.8395 30.3718Z" fill="url(#paint12_linear_307_3444)"/>
<path d="M5.89344 47.4628C-0.511564 55.3398 0.677424 66.9208 8.55542 73.3278C15.7024 79.1438 25.9004 78.6988 32.5144 72.6808C33.1894 72.0668 35.3494 68.1108 35.5994 60.5678C35.9594 49.7168 31.7584 44.7988 31.7584 44.7988C23.8784 38.3918 12.3004 39.5828 5.89344 47.4628Z" fill="url(#paint13_radial_307_3444)"/>
<path opacity="0.4" d="M13.0564 43.1168C10.0324 46.8358 10.5943 52.3028 14.3133 55.3278C18.0333 58.3528 23.5013 57.7888 26.5253 54.0718C29.5493 50.3518 28.9854 44.8838 25.2674 41.8588C21.5484 38.8348 16.0824 39.3988 13.0564 43.1168Z" fill="url(#paint14_radial_307_3444)"/>
<path opacity="0.6" d="M13.2313 42.8408C9.22129 47.7708 9.9673 55.0158 14.8963 59.0258C19.8293 63.0378 27.0753 62.2918 31.0843 57.3598C35.0953 52.4328 34.3473 45.1828 29.4163 41.1738C24.4873 37.1638 17.2403 37.9108 13.2313 42.8408Z" fill="url(#paint15_radial_307_3444)"/>
<path opacity="0.3" d="M28.6803 64.8998L31.0723 66.8458C29.4093 68.8358 27.2773 70.2108 24.9593 70.9428L23.9863 68.8928C25.8203 67.9498 27.3903 66.5428 28.6803 64.8998Z" fill="url(#paint16_linear_307_3444)"/>
<path d="M59.5643 93.7888C55.1523 101.158 43.6993 102.415 33.9833 96.5978C24.2643 90.7788 19.9673 80.0868 24.3793 72.7188C28.7923 65.3508 40.2453 64.0928 49.9633 69.9128C59.6783 75.7318 63.9773 86.4208 59.5643 93.7888Z" fill="url(#paint17_radial_307_3444)"/>
<path opacity="0.6" d="M58.2174 83.7118C56.2824 86.9408 49.2724 86.2998 42.5574 82.2798C35.8414 78.2578 31.9664 72.3798 33.9004 69.1488C35.8344 65.9198 42.8464 66.5598 49.5614 70.5818C56.2764 74.6038 60.1514 80.4828 58.2174 83.7118Z" fill="url(#paint18_linear_307_3444)"/>
<path opacity="0.3" d="M40.4822 76.6698L37.8423 73.4648C36.6013 74.4178 35.5312 75.5278 34.6982 76.7688L37.8463 79.1688C38.5423 78.1538 39.4392 77.3218 40.4822 76.6698Z" fill="url(#paint19_linear_307_3444)"/>
<path opacity="0.3" d="M35.5233 70.6448C33.5323 71.1598 31.8003 72.1498 30.5303 73.5908L33.2533 75.6658C34.2873 74.3638 35.5843 73.2598 36.9693 72.3998L35.5233 70.6448Z" fill="url(#paint20_linear_307_3444)"/>
<path d="M42.8724 99.2798C41.2304 102.023 36.4384 102.175 32.1704 99.6188C27.9014 97.0608 25.7734 92.7678 27.4164 90.0238C29.0594 87.2808 33.8504 87.1288 38.1194 89.6848C42.3854 92.2408 44.5154 96.5368 42.8724 99.2798Z" fill="url(#paint21_radial_307_3444)"/>
<path d="M75.3612 57.6098C83.5012 49.7878 83.7622 36.8468 75.9412 28.7048C68.1182 20.5618 55.1762 20.3058 47.0362 28.1258C38.8932 35.9488 38.6342 48.8888 46.4572 57.0318C54.2782 65.1738 67.2182 65.4318 75.3612 57.6098Z" fill="url(#paint22_radial_307_3444)"/>
<path opacity="0.4" d="M66.5903 39.8478C70.4333 36.1548 70.5573 30.0458 66.8643 26.2018C63.1713 22.3588 57.0593 22.2358 53.2183 25.9288C49.3743 29.6218 49.2533 35.7308 52.9473 39.5748C56.6383 43.4198 62.7483 43.5408 66.5903 39.8478Z" fill="url(#paint23_radial_307_3444)"/>
<path d="M34.8594 80.0708C23.8554 77.5498 16.9734 66.5858 19.4934 55.5808C21.7814 45.5928 31.0214 39.0048 40.9354 39.7538C41.9474 39.8288 46.5464 41.8198 51.9274 48.2598C59.6664 57.5228 59.3494 64.7078 59.3494 64.7078C56.8294 75.7118 45.8644 82.5898 34.8594 80.0708Z" fill="url(#paint24_radial_307_3444)"/>
<path opacity="0.4" d="M31.0285 65.0138C25.8345 63.8248 22.5865 58.6478 23.7745 53.4518C24.9645 48.2558 30.1425 45.0078 35.3375 46.1988C40.5325 47.3878 43.7785 52.5648 42.5905 57.7598C41.3995 62.9568 36.2245 66.2028 31.0285 65.0138Z" fill="url(#paint25_radial_307_3444)"/>
<path opacity="0.6" d="M35.1043 65.8458C28.2183 64.2698 23.9123 57.4078 25.4893 50.5208C27.0673 43.6328 33.9293 39.3278 40.8163 40.9048C47.7033 42.4818 52.0073 49.3438 50.4313 56.2328C48.8543 63.1188 41.9933 67.4228 35.1043 65.8458Z" fill="url(#paint26_radial_307_3444)"/>
<path d="M79.5234 79.5118C89.6704 79.1738 97.6264 70.6748 97.2894 60.5268C96.9834 51.3168 89.9544 43.9148 81.0734 42.8758C80.1674 42.7688 75.7634 43.7378 69.9104 48.4998C61.4874 55.3498 60.5364 61.7488 60.5364 61.7488C60.8734 71.8968 69.3734 79.8498 79.5234 79.5118Z" fill="url(#paint27_radial_307_3444)"/>
<path opacity="0.4" d="M85.4874 66.8768C90.2774 66.7178 94.0344 62.7048 93.8754 57.9118C93.7154 53.1198 89.7014 49.3648 84.9114 49.5248C80.1204 49.6838 76.3663 53.6978 76.5243 58.4898C76.6833 63.2808 80.6954 67.0348 85.4874 66.8768Z" fill="url(#paint28_radial_307_3444)"/>
<path opacity="0.6" d="M80.1214 68.3408C86.4724 68.1288 91.4494 62.8098 91.2394 56.4588C91.0264 50.1058 85.7074 45.1278 79.3564 45.3408C73.0054 45.5508 68.0284 50.8718 68.2394 57.2238C68.4504 63.5738 73.7704 68.5508 80.1214 68.3408Z" fill="url(#paint29_radial_307_3444)"/>
<path d="M81.0105 75.3138C81.0105 86.6028 71.8595 95.7568 60.5705 95.7568C49.2775 95.7568 40.1274 86.6028 40.1274 75.3138C40.1274 64.0228 49.2775 54.8698 60.5705 54.8698C71.8595 54.8688 81.0105 64.0228 81.0105 75.3138Z" fill="url(#paint30_radial_307_3444)"/>
<path opacity="0.4" d="M67.1894 82.4078C67.1894 87.7358 62.8694 92.0578 57.5394 92.0578C52.2094 92.0578 47.8884 87.7358 47.8884 82.4078C47.8884 77.0778 52.2094 72.7578 57.5394 72.7578C62.8694 72.7578 67.1894 77.0778 67.1894 82.4078Z" fill="url(#paint31_radial_307_3444)"/>
<path opacity="0.6" d="M77.3954 71.2988C77.3954 78.3648 71.6673 84.0918 64.6013 84.0918C57.5363 84.0918 51.8074 78.3648 51.8074 71.2988C51.8074 64.2328 57.5353 58.5038 64.6013 58.5038C71.6673 58.5038 77.3954 64.2328 77.3954 71.2988Z" fill="url(#paint32_radial_307_3444)"/>
<path opacity="0.6" d="M74.6974 64.8578C74.6974 69.8058 68.3724 73.8188 60.5704 73.8188C52.7664 73.8188 46.4414 69.8058 46.4414 64.8578C46.4414 59.9078 52.7664 55.8958 60.5704 55.8958C68.3724 55.8958 74.6974 59.9068 74.6974 64.8578Z" fill="url(#paint33_linear_307_3444)"/>
<path opacity="0.6" d="M91.8824 54.8698C91.8824 58.6788 87.0154 61.7658 81.0114 61.7658C75.0054 61.7658 70.1375 58.6778 70.1375 54.8698C70.1375 51.0598 75.0054 47.9728 81.0114 47.9728C87.0154 47.9728 91.8824 51.0598 91.8824 54.8698Z" fill="url(#paint34_linear_307_3444)"/>
<path opacity="0.6" d="M73.2054 31.6528C73.2054 35.8588 67.8294 39.2688 61.1994 39.2688C54.5674 39.2688 49.1904 35.8578 49.1904 31.6528C49.1904 27.4448 54.5674 24.0348 61.1994 24.0348C67.8294 24.0348 73.2054 27.4458 73.2054 31.6528Z" fill="url(#paint35_linear_307_3444)"/>
<path opacity="0.6" d="M45.1255 21.8248C45.1255 25.1548 40.8705 27.8538 35.6225 27.8538C30.3725 27.8538 26.1165 25.1548 26.1165 21.8248C26.1165 18.4948 30.3725 15.7958 35.6225 15.7958C40.8715 15.7958 45.1255 18.4948 45.1255 21.8248Z" fill="url(#paint36_linear_307_3444)"/>
<path opacity="0.6" d="M49.7994 51.9818C49.7994 56.2588 44.3334 59.7268 37.5914 59.7268C30.8484 59.7268 25.3804 56.2588 25.3804 51.9818C25.3804 47.7038 30.8484 44.2358 37.5914 44.2358C44.3334 44.2358 49.7994 47.7028 49.7994 51.9818Z" fill="url(#paint37_linear_307_3444)"/>
<path opacity="0.6" d="M20.4785 45.0028C22.9225 47.2638 22.0155 52.2208 18.4525 56.0738C14.8885 59.9288 10.0155 61.2198 7.57145 58.9598C5.12645 56.6988 6.03447 51.7418 9.59947 47.8878C13.1625 44.0338 18.0335 42.7418 20.4785 45.0028Z" fill="url(#paint38_linear_307_3444)"/>
<path opacity="0.3" d="M55.9224 68.8938L52.0234 67.0618C51.4504 68.9738 51.1024 70.9478 51.0264 72.9108L54.9484 73.4908C55.0234 71.8758 55.3624 70.3318 55.9224 68.8938Z" fill="url(#paint39_linear_307_3444)"/>
<path opacity="0.3" d="M48.5945 65.4468C47.1555 67.3728 46.1815 69.6588 45.8335 72.1408L49.2245 72.6438C49.4425 70.4768 49.9875 68.3558 50.7305 66.4518L48.5945 65.4468Z" fill="url(#paint40_linear_307_3444)"/>
<path opacity="0.3" d="M54.9355 74.3668H51.0215C51.0825 76.3888 51.4435 78.3768 52.1495 80.2538L55.6195 78.5958C55.1925 77.2588 54.9555 75.8388 54.9355 74.3668Z" fill="url(#paint41_linear_307_3444)"/>
<path opacity="0.3" d="M49.1224 74.3668H45.6924C45.7294 77.2528 46.6074 79.9328 48.0924 82.1898L50.3674 81.1038C49.4474 79.0058 49.0814 76.6898 49.1224 74.3668Z" fill="url(#paint42_linear_307_3444)"/>
<path d="M60.5684 95.4728C65.5279 95.4728 69.5484 92.0661 69.5484 87.8638C69.5484 83.6614 65.5279 80.2548 60.5684 80.2548C55.6089 80.2548 51.5884 83.6614 51.5884 87.8638C51.5884 92.0661 55.6089 95.4728 60.5684 95.4728Z" fill="url(#paint43_radial_307_3444)"/>
<path d="M22.2134 26.2598C19.8744 29.2298 20.8224 33.8748 24.3284 36.6328C27.8334 39.3908 32.5704 39.2178 34.9074 36.2478C37.2454 33.2768 36.2964 28.6338 32.7924 25.8748C29.2864 23.1178 24.5494 23.2908 22.2134 26.2598Z" fill="url(#paint44_radial_307_3444)"/>
<path d="M8.19735 45.7858C5.49935 44.5938 2.12636 47.0268 0.668363 51.2188C-0.788637 55.4098 0.215358 59.7728 2.91336 60.9638C5.61236 62.1558 8.98235 59.7218 10.4423 55.5308C11.8993 51.3388 10.8944 46.9758 8.19735 45.7858Z" fill="url(#paint45_radial_307_3444)"/>
<path d="M76.4704 40.6498C79.5004 37.7368 79.1714 32.4778 75.7354 28.9018C72.2984 25.3238 67.0574 24.7848 64.0264 27.6978C60.9954 30.6088 61.3254 35.8688 64.7594 39.4448C68.1974 43.0218 73.4384 43.5598 76.4704 40.6498Z" fill="url(#paint46_radial_307_3444)"/>
<path d="M25.1843 66.0958C21.0863 65.1568 18.6633 60.4768 19.7713 55.6428C20.8773 50.8078 25.0953 47.6488 29.1933 48.5868C33.2893 49.5248 35.7133 54.2048 34.6063 59.0388C33.4993 63.8748 29.2813 67.0318 25.1843 66.0958Z" fill="url(#paint47_radial_307_3444)"/>
<path d="M90.4604 68.8338C94.2394 68.7088 97.1814 64.9918 97.0334 60.5338C96.8844 56.0748 93.7025 52.5618 89.9245 52.6878C86.1475 52.8138 83.2054 56.5288 83.3524 60.9878C83.5014 65.4478 86.6844 68.9588 90.4604 68.8338Z" fill="url(#paint48_radial_307_3444)"/>
<defs>
<radialGradient id="paint0_radial_307_3444" cx="0" cy="0" r="1" gradientUnits="userSpaceOnUse" gradientTransform="translate(56.8291 12.2512) rotate(-69.9958) scale(18.3549 18.3549)">
<stop stop-color="#065CB8"/>
<stop offset="1" stop-color="#065CB8"/>
</radialGradient>
<radialGradient id="paint1_radial_307_3444" cx="0" cy="0" r="1" gradientUnits="userSpaceOnUse" gradientTransform="translate(60.3793 24.6158) rotate(-70.008) scale(8.68019)">
<stop stop-color="white"/>
<stop offset="1" stop-color="white" stop-opacity="0"/>
</radialGradient>
<radialGradient id="paint2_radial_307_3444" cx="0" cy="0" r="1" gradientUnits="userSpaceOnUse" gradientTransform="translate(53.1635 15.2291) rotate(-70.008) scale(11.5057 11.5057)">
<stop stop-color="white"/>
<stop offset="1" stop-color="white" stop-opacity="0"/>
</radialGradient>
<linearGradient id="paint3_linear_307_3444" x1="54.0505" y1="19.4138" x2="38.9054" y2="13.9002" gradientUnits="userSpaceOnUse">
<stop stop-color="white" stop-opacity="0.1"/>
<stop offset="1" stop-color="white"/>
</linearGradient>
<linearGradient id="paint4_linear_307_3444" x1="51.5922" y1="25.3071" x2="46.1587" y2="23.3291" gradientUnits="userSpaceOnUse">
<stop stop-color="white" stop-opacity="0.1"/>
<stop offset="1" stop-color="white"/>
</linearGradient>
<linearGradient id="paint5_linear_307_3444" x1="49.2782" y1="29.4349" x2="43.1965" y2="27.2208" gradientUnits="userSpaceOnUse">
<stop stop-color="white" stop-opacity="0.1"/>
<stop offset="1" stop-color="white"/>
</linearGradient>
<linearGradient id="paint6_linear_307_3444" x1="57.2603" y1="27.5191" x2="52.2858" y2="25.7081" gradientUnits="userSpaceOnUse">
<stop stop-color="white" stop-opacity="0.1"/>
<stop offset="1" stop-color="white"/>
</linearGradient>
<linearGradient id="paint7_linear_307_3444" x1="57.2711" y1="32.5848" x2="50.6589" y2="30.1775" gradientUnits="userSpaceOnUse">
<stop stop-color="white" stop-opacity="0.1"/>
<stop offset="1" stop-color="white"/>
</linearGradient>
<radialGradient id="paint8_radial_307_3444" cx="0" cy="0" r="1" gradientUnits="userSpaceOnUse" gradientTransform="translate(56.7081 6.19855) rotate(-174.284) scale(8.23309 6.38126)">
<stop stop-color="white"/>
<stop offset="0.1596" stop-color="#FBFBFB"/>
<stop offset="0.3303" stop-color="#EEEEEE"/>
<stop offset="0.5061" stop-color="#D8D8D8"/>
<stop offset="0.6855" stop-color="#BBBBBB"/>
<stop offset="0.8658" stop-color="#949494"/>
<stop offset="1" stop-color="#737373"/>
</radialGradient>
<radialGradient id="paint9_radial_307_3444" cx="0" cy="0" r="1" gradientUnits="userSpaceOnUse" gradientTransform="translate(35.9633 27.0464) rotate(177.645) scale(18.355)">
<stop stop-color="#00E9BE"/>
<stop offset="1" stop-color="#0E5691"/>
</radialGradient>
<radialGradient id="paint10_radial_307_3444" cx="0" cy="0" r="1" gradientUnits="userSpaceOnUse" gradientTransform="translate(41.5737 37.9089) rotate(177.641) scale(8.68034 8.68033)">
<stop stop-color="white"/>
<stop offset="1" stop-color="white" stop-opacity="0"/>
</radialGradient>
<radialGradient id="paint11_radial_307_3444" cx="0" cy="0" r="1" gradientUnits="userSpaceOnUse" gradientTransform="translate(34.1512 23.6055) rotate(177.641) scale(11.5056 11.5056)">
<stop stop-color="white"/>
<stop offset="1" stop-color="white" stop-opacity="0"/>
</radialGradient>
<linearGradient id="paint12_linear_307_3444" x1="50.1096" y1="37.363" x2="49.8204" y2="30.3318" gradientUnits="userSpaceOnUse">
<stop stop-color="white" stop-opacity="0.1"/>
<stop offset="1" stop-color="white"/>
</linearGradient>
<radialGradient id="paint13_radial_307_3444" cx="0" cy="0" r="1" gradientUnits="userSpaceOnUse" gradientTransform="translate(21.2354 53.8784) rotate(-140.877) scale(18.3552 18.3552)">
<stop stop-color="#065CB8"/>
<stop offset="1" stop-color="#065CB8"/>
</radialGradient>
<radialGradient id="paint14_radial_307_3444" cx="0" cy="0" r="1" gradientUnits="userSpaceOnUse" gradientTransform="translate(19.791 48.594) rotate(-140.875) scale(8.68069)">
<stop stop-color="white"/>
<stop offset="1" stop-color="white" stop-opacity="0"/>
</radialGradient>
<radialGradient id="paint15_radial_307_3444" cx="0" cy="0" r="1" gradientUnits="userSpaceOnUse" gradientTransform="translate(22.1573 50.1001) rotate(-140.875) scale(11.5057 11.5057)">
<stop stop-color="white"/>
<stop offset="1" stop-color="white" stop-opacity="0"/>
</radialGradient>
<linearGradient id="paint16_linear_307_3444" x1="25.0014" y1="70.977" x2="29.4413" y2="65.5182" gradientUnits="userSpaceOnUse">
<stop stop-color="white" stop-opacity="0.1"/>
<stop offset="1" stop-color="white"/>
</linearGradient>
<radialGradient id="paint17_radial_307_3444" cx="0" cy="0" r="1" gradientUnits="userSpaceOnUse" gradientTransform="translate(46.2637 81.1895) rotate(30.9167) scale(20.5079 15.551)">
<stop stop-color="#00E9BE"/>
<stop offset="1" stop-color="#0E5691"/>
</radialGradient>
<linearGradient id="paint18_linear_307_3444" x1="42.5561" y1="82.2794" x2="49.5616" y2="70.5822" gradientUnits="userSpaceOnUse">
<stop stop-color="white" stop-opacity="0.1"/>
<stop offset="1" stop-color="white"/>
</linearGradient>
<linearGradient id="paint19_linear_307_3444" x1="36.5785" y1="78.4091" x2="39.0915" y2="74.213" gradientUnits="userSpaceOnUse">
<stop stop-color="white" stop-opacity="0.1"/>
<stop offset="1" stop-color="white"/>
</linearGradient>
<linearGradient id="paint20_linear_307_3444" x1="32.4411" y1="75.1799" x2="35.2539" y2="70.4833" gradientUnits="userSpaceOnUse">
<stop stop-color="white" stop-opacity="0.1"/>
<stop offset="1" stop-color="white"/>
</linearGradient>
<radialGradient id="paint21_radial_307_3444" cx="0" cy="0" r="1" gradientUnits="userSpaceOnUse" gradientTransform="translate(35.9997 93.2512) rotate(-149.083) scale(9.18326 7.15576)">
<stop stop-color="white"/>
<stop offset="0.1596" stop-color="#FBFBFB"/>
<stop offset="0.3303" stop-color="#EEEEEE"/>
<stop offset="0.5061" stop-color="#D8D8D8"/>
<stop offset="0.6855" stop-color="#BBBBBB"/>
<stop offset="0.8658" stop-color="#949494"/>
<stop offset="1" stop-color="#737373"/>
</radialGradient>
<radialGradient id="paint22_radial_307_3444" cx="0" cy="0" r="1" gradientUnits="userSpaceOnUse" gradientTransform="translate(60.0235 34.5161) rotate(46.1467) scale(20.4431)">
<stop stop-color="#00E9BE"/>
<stop offset="1" stop-color="#0E5691"/>
</radialGradient>
<radialGradient id="paint23_radial_307_3444" cx="0" cy="0" r="1" gradientUnits="userSpaceOnUse" gradientTransform="translate(59.9053 32.8879) rotate(46.1362) scale(9.65076)">
<stop stop-color="white"/>
<stop offset="1" stop-color="white" stop-opacity="0"/>
</radialGradient>
<radialGradient id="paint24_radial_307_3444" cx="0" cy="0" r="1" gradientUnits="userSpaceOnUse" gradientTransform="translate(38.945 56.2343) rotate(102.897) scale(20.409)">
<stop stop-color="#00E9BE"/>
<stop offset="1" stop-color="#0E5691"/>
</radialGradient>
<radialGradient id="paint25_radial_307_3444" cx="0" cy="0" r="1" gradientUnits="userSpaceOnUse" gradientTransform="translate(33.182 55.6058) rotate(102.911) scale(9.65121 9.65121)">
<stop stop-color="white"/>
<stop offset="1" stop-color="white" stop-opacity="0"/>
</radialGradient>
<radialGradient id="paint26_radial_307_3444" cx="0" cy="0" r="1" gradientUnits="userSpaceOnUse" gradientTransform="translate(37.9605 53.3751) rotate(102.911) scale(12.7938 12.7938)">
<stop stop-color="white"/>
<stop offset="1" stop-color="white" stop-opacity="0"/>
</radialGradient>
<radialGradient id="paint27_radial_307_3444" cx="0" cy="0" r="1" gradientUnits="userSpaceOnUse" gradientTransform="translate(79.0004 56.4038) rotate(88.0973) scale(18.3554 18.3554)">
<stop stop-color="#00E9BE"/>
<stop offset="1" stop-color="#0E5691"/>
</radialGradient>
<radialGradient id="paint28_radial_307_3444" cx="0" cy="0" r="1" gradientUnits="userSpaceOnUse" gradientTransform="translate(85.1995 58.2012) rotate(88.1081) scale(8.68035 8.68036)">
<stop stop-color="white"/>
<stop offset="1" stop-color="white" stop-opacity="0"/>
</radialGradient>
<radialGradient id="paint29_radial_307_3444" cx="0" cy="0" r="1" gradientUnits="userSpaceOnUse" gradientTransform="translate(79.739 56.8407) rotate(88.1081) scale(11.5064 11.5064)">
<stop stop-color="white"/>
<stop offset="1" stop-color="white" stop-opacity="0"/>
</radialGradient>
<radialGradient id="paint30_radial_307_3444" cx="0" cy="0" r="1" gradientUnits="userSpaceOnUse" gradientTransform="translate(63.1824 70.0852) scale(20.4432 20.4432)">
<stop stop-color="#065CB8"/>
<stop offset="1" stop-color="#065CB8"/>
</radialGradient>
<radialGradient id="paint31_radial_307_3444" cx="0" cy="0" r="1" gradientUnits="userSpaceOnUse" gradientTransform="translate(57.5385 82.4082) scale(9.65061 9.65061)">
<stop stop-color="white"/>
<stop offset="1" stop-color="white" stop-opacity="0"/>
</radialGradient>
<radialGradient id="paint32_radial_307_3444" cx="0" cy="0" r="1" gradientUnits="userSpaceOnUse" gradientTransform="translate(64.6014 71.2978) scale(12.7939)">
<stop stop-color="white"/>
<stop offset="1" stop-color="white" stop-opacity="0"/>
</radialGradient>
<linearGradient id="paint33_linear_307_3444" x1="60.5693" y1="73.8184" x2="60.5693" y2="55.8955" gradientUnits="userSpaceOnUse">
<stop stop-color="white" stop-opacity="0.1"/>
<stop offset="1" stop-color="white"/>
</linearGradient>
<linearGradient id="paint34_linear_307_3444" x1="81.0101" y1="61.7666" x2="81.0101" y2="47.9727" gradientUnits="userSpaceOnUse">
<stop stop-color="white" stop-opacity="0.1"/>
<stop offset="1" stop-color="white"/>
</linearGradient>
<linearGradient id="paint35_linear_307_3444" x1="61.1976" y1="39.2691" x2="61.1976" y2="24.0352" gradientUnits="userSpaceOnUse">
<stop stop-color="white" stop-opacity="0.1"/>
<stop offset="1" stop-color="white"/>
</linearGradient>
<linearGradient id="paint36_linear_307_3444" x1="35.6216" y1="27.854" x2="35.6216" y2="15.7959" gradientUnits="userSpaceOnUse">
<stop stop-color="white" stop-opacity="0.1"/>
<stop offset="1" stop-color="white"/>
</linearGradient>
<linearGradient id="paint37_linear_307_3444" x1="37.5902" y1="59.7266" x2="37.5902" y2="44.2359" gradientUnits="userSpaceOnUse">
<stop stop-color="white" stop-opacity="0.1"/>
<stop offset="1" stop-color="white"/>
</linearGradient>
<linearGradient id="paint38_linear_307_3444" x1="18.4515" y1="56.0739" x2="9.59858" y2="47.8878" gradientUnits="userSpaceOnUse">
<stop stop-color="white" stop-opacity="0.1"/>
<stop offset="1" stop-color="white"/>
</linearGradient>
<linearGradient id="paint39_linear_307_3444" x1="53.4745" y1="73.4903" x2="53.4745" y2="67.0615" gradientUnits="userSpaceOnUse">
<stop stop-color="white" stop-opacity="0.1"/>
<stop offset="1" stop-color="white"/>
</linearGradient>
<linearGradient id="paint40_linear_307_3444" x1="48.2822" y1="72.6436" x2="48.2822" y2="65.4463" gradientUnits="userSpaceOnUse">
<stop stop-color="white" stop-opacity="0.1"/>
<stop offset="1" stop-color="white"/>
</linearGradient>
<linearGradient id="paint41_linear_307_3444" x1="53.3203" y1="80.2539" x2="53.3203" y2="74.3672" gradientUnits="userSpaceOnUse">
<stop stop-color="white" stop-opacity="0.1"/>
<stop offset="1" stop-color="white"/>
</linearGradient>
<linearGradient id="paint42_linear_307_3444" x1="48.0302" y1="82.1904" x2="48.0302" y2="74.3672" gradientUnits="userSpaceOnUse">
<stop stop-color="white" stop-opacity="0.1"/>
<stop offset="1" stop-color="white"/>
</linearGradient>
<radialGradient id="paint43_radial_307_3444" cx="0" cy="0" r="1" gradientUnits="userSpaceOnUse" gradientTransform="translate(60.5683 85.71) rotate(180) scale(9.15441 9.40614)">
<stop stop-color="white"/>
<stop offset="0.1596" stop-color="#FBFBFB"/>
<stop offset="0.3303" stop-color="#EEEEEE"/>
<stop offset="0.5061" stop-color="#D8D8D8"/>
<stop offset="0.6855" stop-color="#BBBBBB"/>
<stop offset="0.8658" stop-color="#949494"/>
<stop offset="1" stop-color="#737373"/>
</radialGradient>
<radialGradient id="paint44_radial_307_3444" cx="0" cy="0" r="1" gradientUnits="userSpaceOnUse" gradientTransform="translate(29.7718 29.7239) rotate(38.1936) scale(8.23293 8.46039)">
<stop stop-color="white"/>
<stop offset="0.1596" stop-color="#FBFBFB"/>
<stop offset="0.3303" stop-color="#EEEEEE"/>
<stop offset="0.5061" stop-color="#D8D8D8"/>
<stop offset="0.6855" stop-color="#BBBBBB"/>
<stop offset="0.8658" stop-color="#949494"/>
<stop offset="1" stop-color="#737373"/>
</radialGradient>
<radialGradient id="paint45_radial_307_3444" cx="0" cy="0" r="1" gradientUnits="userSpaceOnUse" gradientTransform="translate(6.91989 53.9968) rotate(109.187) scale(8.19218 6.58057)">
<stop stop-color="white"/>
<stop offset="0.1596" stop-color="#FBFBFB"/>
<stop offset="0.3303" stop-color="#EEEEEE"/>
<stop offset="0.5061" stop-color="#D8D8D8"/>
<stop offset="0.6855" stop-color="#BBBBBB"/>
<stop offset="0.8658" stop-color="#949494"/>
<stop offset="1" stop-color="#737373"/>
</radialGradient>
<radialGradient id="paint46_radial_307_3444" cx="0" cy="0" r="1" gradientUnits="userSpaceOnUse" gradientTransform="translate(68.6871 35.6707) rotate(-133.853) scale(9.1545 9.40701)">
<stop stop-color="white"/>
<stop offset="0.1596" stop-color="#FBFBFB"/>
<stop offset="0.3303" stop-color="#EEEEEE"/>
<stop offset="0.5061" stop-color="#D8D8D8"/>
<stop offset="0.6855" stop-color="#BBBBBB"/>
<stop offset="0.8658" stop-color="#949494"/>
<stop offset="1" stop-color="#737373"/>
</radialGradient>
<radialGradient id="paint47_radial_307_3444" cx="0" cy="0" r="1" gradientUnits="userSpaceOnUse" gradientTransform="translate(29.2768 57.8125) rotate(-77.1033) scale(9.15455 9.40615)">
<stop stop-color="white"/>
<stop offset="0.1596" stop-color="#FBFBFB"/>
<stop offset="0.3303" stop-color="#EEEEEE"/>
<stop offset="0.5061" stop-color="#D8D8D8"/>
<stop offset="0.6855" stop-color="#BBBBBB"/>
<stop offset="0.8658" stop-color="#949494"/>
<stop offset="1" stop-color="#737373"/>
</radialGradient>
<radialGradient id="paint48_radial_307_3444" cx="0" cy="0" r="1" gradientUnits="userSpaceOnUse" gradientTransform="translate(88.2448 60.8239) rotate(-91.9027) scale(8.2337 8.46108)">
<stop stop-color="white"/>
<stop offset="0.1596" stop-color="#FBFBFB"/>
<stop offset="0.3303" stop-color="#EEEEEE"/>
<stop offset="0.5061" stop-color="#D8D8D8"/>
<stop offset="0.6855" stop-color="#BBBBBB"/>
<stop offset="0.8658" stop-color="#949494"/>
<stop offset="1" stop-color="#737373"/>
</radialGradient>
</defs>
</svg>
