<svg xmlns="http://www.w3.org/2000/svg" xmlns:xlink="http://www.w3.org/1999/xlink" xmlns:lucid="lucid" width="2222.99" height="700.23"><g transform="translate(3670.987887037377 361.6)" lucid:page-tab-id="0_0"><path d="M-5420.6-1258.84H64v2581.68h-5484.6z" fill="#fff"/><path d="M-3431-235.87a6 6 0 0 1 6-6h1412a6 6 0 0 1 6 6v132a6 6 0 0 1-6 6h-1412a6 6 0 0 1-6-6zM-3431 124.13a6 6 0 0 1 6-6h1412a6 6 0 0 1 6 6v132a6 6 0 0 1-6 6h-1412a6 6 0 0 1-6-6z" fill-opacity=".05"/><path d="M-3291-274a6 6 0 0 1 6-6h1799a6 6 0 0 1 6 6v606.13a6 6 0 0 1-6 6h-1799a6 6 0 0 1-6-6z" stroke="#3a414a" fill="#fff"/><path d="M-3239-229.87h120v120h-120v-120z" stroke="#000" stroke-opacity="0" fill="url(#a)"/><path d="M-3192.53-148.75l-5.78-5.7 5.77-5.72-2.72-2.64-7.02 7.05c-.74.72-.74 1.93 0 2.65l7.02 7 2.72-2.65zm32.53-33.84c.4-.35.58-.78.58-1.28s-.17-1-.58-1.35l-7.02-7-2.64 2.64 5.7 5.72-5.7 5.72 2.64 2.64 7.02-7.07zm-11.47 33.5h18.74v-3.72h-18.74v3.72zm-11.23 7.5h45v-3.72h-45v3.7zm-31.95-41.2h20.64v-3.8h-20.65v3.8zm-5.62-11.3h45v-3.7h-45v3.7zm76.62 11.3c0-12.5-10.24-22.7-22.8-22.7-3.87 0-7.67 1-11.05 2.84l1.9 3.3c2.8-1.58 5.94-2.44 9.16-2.44 10.5 0 19.07 8.57 19.07 19 0 10.5-8.58 19-19.07 19-1.73 0-3.47-.23-5.12-.66l-1 3.57c2 .6 4.06.87 6.12.87 12.55 0 22.8-10.2 22.8-22.78zm-41.12 5c-.4-1.65-.66-3.3-.66-5 0-2.5.5-4.93 1.4-7.22l-3.46-1.43c-1.07 2.72-1.64 5.64-1.64 8.64 0 2.06.24 4 .74 5.92l3.63-.93zm7.68 43.7h-35.66c-1.07 0-1.9-.87-1.9-1.87v-35.63c0-1 .83-1.85 1.9-1.85h35.67c1 0 1.83.85 1.83 1.85v22.5h-3.72v-20.64h-31.86v31.92h35.6v1.85c0 1-.84 1.86-1.83 1.86z" stroke="#000" stroke-opacity="0" fill="#fff"/><use xlink:href="#b" transform="matrix(1,0,0,1,-3268.987887037377,-100.87140838175776) translate(44.574999999999996 14.4)"/><use xlink:href="#c" transform="matrix(1,0,0,1,-3268.987887037377,-100.87140838175776) translate(97.475 14.4)"/><use xlink:href="#d" transform="matrix(1,0,0,1,-3268.987887037377,-100.87140838175776) translate(31.124999999999993 36)"/><use xlink:href="#e" transform="matrix(1,0,0,1,-3268.987887037377,-100.87140838175776) translate(38.574999999999996 57.6)"/><path d="M-2919-229.87h120v120h-120v-120z" stroke="#000" stroke-opacity="0" fill="url(#f)"/><path d="M-2868.36-196.04h1.88v-1.9h-1.88v1.9zm-3.75 1.9v-5.7c0-1.07.86-1.9 1.87-1.9h5.62c1 0 1.86.83 1.86 1.9v5.7c0 1-.86 1.8-1.87 1.8h-5.63c-1 0-1.88-.8-1.88-1.8zm14.98-11.32h1.88v-1.9h-1.88v1.9zm-3.74 1.82v-5.6c0-1.1.8-1.9 1.87-1.9h5.63c1 0 1.88.8 1.88 1.9v5.6c0 1.07-.86 1.9-1.87 1.9h-5.62c-1.05 0-1.86-.82-1.86-1.9zm7.5 13.2h1.87v-1.9h-1.87v1.9zm-1.88-5.6h5.62c1 0 1.87.82 1.87 1.9v5.6c0 1.08-.86 1.9-1.87 1.9h-5.62c-1.07 0-1.88-.82-1.88-1.9v-5.6c0-1.08.8-1.9 1.88-1.9zm-19.45 15.85c-.6-.16-1.2-.24-1.76-.32l15.3 23.03c.2.34.3.67.3 1.1v4.28c1.97.5 3.8.5 5.62 0v-4.3c0-.4.1-.74.3-1.07l15.35-23.02c-.6.08-1.16.16-1.82.33-4.56.67-10.63 1.08-16.66 1.08-5.97 0-12.05-.4-16.6-1.07zm-7.7-2.55c-.64-.58-.95-1.24-.95-1.98 0-2.4 3.95-5.3 22.84-5.53l.04 3.8c-8.7.08-14.58.9-17.47 1.73 3.3.9 10.33 1.9 19.85 1.9 9.07 0 15.85-.9 19.4-1.74-1.57-.4-3.9-.82-7.14-1.24l.45-3.72c11.7 1.4 12.66 3.05 12.66 4.8 0 .73-.3 1.4-.97 1.97l-17.82 26.9v5.05c0 .74-.45 1.5-1.16 1.73-1.77.75-3.5 1.08-5.27 1.08-1.77 0-3.6-.32-5.47-.98-.7-.33-1.2-1-1.2-1.82v-5.04l-17.8-26.9zm34.5 42.52c.3.74.15 1.48-.35 2.06l-8.46 9c-.37.33-.82.58-1.38.58-.5 0-.96-.24-1.37-.57l-8.4-9c-.5-.58-.66-1.32-.36-2.06.3-.66.96-1.16 1.7-1.16h3.76v-3.7h3.75v5.6c0 1.08-.85 1.9-1.86 1.9h-1.27l4.05 4.38 4.1-4.37h-1.26c-1.07 0-1.88-.82-1.88-1.9v-5.6h3.75v3.7h3.75c.76 0 1.42.5 1.72 1.17z" stroke="#000" stroke-opacity="0" fill="#fff"/><use xlink:href="#g" transform="matrix(1,0,0,1,-2948.987887037377,-100.87140838175776) translate(28.099999999999994 14.4)"/><use xlink:href="#h" transform="matrix(1,0,0,1,-2948.987887037377,-100.87140838175776) translate(136.9 14.4)"/><use xlink:href="#i" transform="matrix(1,0,0,1,-2948.987887037377,-100.87140838175776) translate(15.174999999999983 36)"/><use xlink:href="#j" transform="matrix(1,0,0,1,-2948.987887037377,-100.87140838175776) translate(94.975 36)"/><use xlink:href="#k" transform="matrix(1,0,0,1,-2948.987887037377,-100.87140838175776) translate(57.575 57.6)"/><path d="M-2599-229.87h120v120h-120v-120z" stroke="#000" stroke-opacity="0" fill="url(#l)"/><path d="M-2497.7-146.42c0 9.82-8 17.83-17.83 17.83-9.84 0-17.82-8-17.82-17.82 0-9.83 7.98-17.84 17.82-17.84s17.82 8 17.82 17.84zm-76.86-40.38c0 10.16 25.08 15.03 76.85 15.03v3.8c-51.78 0-76.86 4.87-76.86 15.02h-3.8c0-6.85 5.17-13.7 35.66-16.92-30.5-3.22-35.65-10.07-35.65-16.93zm73.06 40.38c0-2.56-.64-4.96-1.85-7.02v2.3c0 1.08-.8 1.9-1.86 1.9h-5.65c-1.05 0-1.86-.82-1.86-1.9v-5.6c0-1 .8-1.9 1.85-1.9h2.34c-2.1-1.16-4.45-1.82-7.03-1.82-2.5 0-4.92.66-7 1.82h7.97v3.8h-12.18c-.9 1.15-1.53 2.4-2 3.7h6.68v3.8h-7.5v.92c0 1 .08 1.9.24 2.8h5.32v3.8h-3.95c.32.66.73 1.24 1.2 1.82h2.75v2.8c2.42 1.82 5.33 2.9 8.47 2.9 2.58 0 4.92-.75 7.02-1.9h-.5v-3.8h4.68c.48-.58.9-1.16 1.2-1.82h-5.88v-3.8h7.26c.16-.9.24-1.8.24-2.8zm-63.7-53.5c0 10.48 5.16 20.64 67.5 20.64v3.8c-59.6 0-71.3-9-71.3-24.44zm67.5 13.12v3.8c-27.1 0-44.6-2.9-53.55-8.9-8.3-5.63-8.3-13.06-8.3-19v-.25h3.7v.25c0 5.86 0 11.4 6.7 15.85 8.3 5.6 25.15 8.25 51.44 8.25zm-30.65 23.7c-1.6 1.15-3 2.56-4.1 4.13-30.1 3.3-32.75 11.22-32.75 19.15h-3.8c0-11.9 6.94-20.4 40.65-23.28zm-31.2 34.26c0-8.83 0-19.9 24.26-24.93-.47 1.32-.8 2.64-1.03 4.04-19.52 4.54-19.52 12.88-19.52 20.9v.24h-3.7zm48.7-12.88v5.62c0 1.07-.8 1.9-1.86 1.9h-5.65c-1.05 0-1.86-.83-1.86-1.9v-5.62c0-1.07.8-1.9 1.85-1.9h5.64c1.04 0 1.85.83 1.85 1.9zm-9.36-5.6v-3.8h5.64v3.8zm11.2-5.63h1.94v-1.9h-1.94zm-7.5 14.95h1.94v-1.82h-1.94z" stroke="#000" stroke-opacity="0" fill="#fff"/><use xlink:href="#m" transform="matrix(1,0,0,1,-2628.987887037377,-100.87140838175776) translate(24.125 14.4)"/><use xlink:href="#n" transform="matrix(1,0,0,1,-2628.987887037377,-100.87140838175776) translate(6.900000000000006 36)"/><use xlink:href="#o" transform="matrix(1,0,0,1,-2628.987887037377,-100.87140838175776) translate(66.15 36)"/><use xlink:href="#p" transform="matrix(1,0,0,1,-2628.987887037377,-100.87140838175776) translate(114.10000000000001 36)"/><path d="M-2279-229.87h120v120h-120v-120z" stroke="#000" stroke-opacity="0" fill="url(#q)"/><path d="M-2178.78-180.98c.66.33 1.07 1 1.07 1.65v18.8c0 .66-.34 1.23-.92 1.56l-8.5 5.1v12.05c0 .66-.33 1.24-.9 1.57l-18.75 11.3c-.33.16-.66.24-1 .24-.24 0-.57-.1-.82-.18l-10.3-5.2-8.5 5.12c-.34.17-.67.25-1 .25-.25 0-.58-.1-.9-.26l-20.65-11.2c-.58-.34-.9-1-.9-1.66v-12.04l-8.5-5.1c-.6-.34-.92-.9-.92-1.57v-18.8c0-.66.4-1.32 1.07-1.65l10.16-5.1v-13.86c0-.66.4-1.32 1-1.65l16.92-9.3c.5-.33 1.15-.33 1.73-.1l10.4 5.2 10.4-5.2c.67-.23 1.34-.23 1.9.18l16.94 11.2c.5.34.82.92.82 1.58v11.95zm-2.64 17.4v-14.6l-10.24-5.02c-.66-.33-1.07-1-1.07-1.74v-5.6h-2.23c-.75 2.14-2.8 3.7-5.3 3.7-3.04 0-5.6-2.47-5.6-5.6 0-3.05 2.56-5.6 5.6-5.6 2.5 0 4.55 1.56 5.3 3.8h2.23v-2.8l-15.1-10.07-9.26 4.6v16.57l8.43 5.53c.83-.5 1.82-.74 2.8-.74 3.15 0 5.62 2.47 5.62 5.6 0 3.05-2.47 5.6-5.6 5.6-3.07 0-5.63-2.55-5.63-5.6 0-.74.17-1.4.34-1.98l-8.84-5.85c-.58-.33-.9-.9-.9-1.56v-17.56l-9.34-4.7-5.7 3.22v13.44h-3.7v-11.38l-5.62 3.13v12.8l7.5 4.53 7.52-4.54v-8.25h3.72v9.3c0 .67-.33 1.33-.9 1.66l-8.5 5.04v7.17l6.5 3.23c.6.25 1 .9 1 1.65v9.4l7.5-4.78v-7.43l-6.76-5.02 2.32-2.97 7.5 5.6c.42.33.75.9.75 1.5v18.7h7.85c.75-2.14 2.8-3.7 5.3-3.7 3.04 0 5.6 2.47 5.6 5.6 0 3.13-2.56 5.6-5.6 5.6-2.5 0-4.55-1.56-5.3-3.7h-7.84v10.05l9.26 4.62 17-10.14v-12.03c0-.66.34-1.32.9-1.65l6.45-3.87-7.1-3.63c-.98 1-2.38 1.57-3.87 1.57-3.14 0-5.6-2.5-5.6-5.62 0-3.13 2.47-5.6 5.6-5.6 3.06 0 5.62 2.47 5.62 5.6 0 .25-.1.5-.1.66zm-46.98 30.83l7.5-4.53v-19.87l-17.74 11.3-1.98-3.14 8.5-5.43v-10.64l-5.6-2.8-6.7 3.38-1.65-3.37 6.44-3.22v-7.16l-7.6-4.53-9.32 4.63v4.94l6.6-3.96 1.9 3.23-8.5 5.1v7.27l7.5 4.45 8.43-5.03 1.98 3.2-8.5 5.12v10.9l8.92 4.85 8.9-5.37 1.9 3.22-7 4.2zm22.54-44.68c-1 0-1.9.82-1.9 1.9 0 .98.9 1.9 1.9 1.9 1.07 0 1.9-.92 1.9-1.9 0-1.08-.83-1.9-1.9-1.9zm0 28.1c0 1.08.83 1.9 1.9 1.9 1 0 1.9-.82 1.9-1.9 0-1.06-.9-1.9-1.9-1.9-1.07 0-1.9.84-1.9 1.9zm13.3-18.8c0-1.06-.92-1.88-1.9-1.88-1.08 0-1.9.8-1.9 1.88 0 1.07.82 1.9 1.9 1.9.98 0 1.9-.83 1.9-1.9zm-5.8-24.3c0-1-.8-1.82-1.9-1.82-.98 0-1.8.82-1.8 1.8 0 1.08.82 1.9 1.8 1.9 1.1 0 1.9-.82 1.9-1.9z" stroke="#000" stroke-opacity="0" fill="#fff"/><use xlink:href="#r" transform="matrix(1,0,0,1,-2308.987887037377,-100.87140838175776) translate(45.525 14.4)"/><use xlink:href="#s" transform="matrix(1,0,0,1,-2308.987887037377,-100.87140838175776) translate(119.475 14.4)"/><use xlink:href="#t" transform="matrix(1,0,0,1,-2308.987887037377,-100.87140838175776) translate(-36.59999999999998 38.160000000000004)"/><path d="M-1640-229.87h120v120h-120v-120z" stroke="#000" stroke-opacity="0" fill="url(#u)"/><path d="M-1542.43-190.44c0-2.1-1.74-3.75-3.8-3.75-2.07 0-3.72 1.66-3.72 3.76 0 2.1 1.65 3.75 3.72 3.75 2.06 0 3.8-1.64 3.8-3.74zm-33.86 35.63c0-2.1-1.64-3.76-3.7-3.76-2.06 0-3.7 1.65-3.7 3.75s1.64 3.74 3.7 3.74c2.06 0 3.7-1.65 3.7-3.75zm-33.75 3.74c0-2.1-1.65-3.75-3.72-3.75-2.06 0-3.8 1.64-3.8 3.74 0 2.1 1.74 3.75 3.8 3.75 2.07 0 3.72-1.66 3.72-3.76zm26.34-30c0 2.1 1.64 3.75 3.7 3.75 2.06 0 3.7-1.66 3.7-3.76 0-2.1-1.64-3.75-3.7-3.75-2.06 0-3.7 1.64-3.7 3.74zm44.98-9.38c0 4.13-3.38 7.5-7.5 7.5-1.33 0-2.65-.37-3.73-1.05l-23.6 25.36c.65 1.13 1.06 2.4 1.06 3.83 0 4.1-3.37 7.5-7.5 7.5s-7.5-3.4-7.5-7.5c0-3.46 2.38-6.4 5.6-7.2v-11.86c-.74-.15-1.4-.45-1.98-.83l-23.36 20.04c.57 1.05 1 2.25 1 3.6 0 4.12-3.4 7.5-7.53 7.5-4.13 0-7.5-3.38-7.5-7.5 0-4.13 3.38-7.5 7.5-7.5 1.5 0 2.8.45 3.97 1.12l23.28-19.95c-.58-1.1-1-2.3-1-3.66 0-4.13 3.4-7.5 7.52-7.5 4.13 0 7.5 3.37 7.5 7.5 0 3.45-2.38 6.37-5.6 7.2V-162c.66.14 1.24.36 1.8.74l23.63-25.35c-.66-1.14-1.08-2.4-1.08-3.84 0-4.12 3.4-7.5 7.52-7.5 4.13 0 7.5 3.38 7.5 7.5zm-73.15-13.12h63.74v3.75h3.8v-5.64c0-1.05-.83-1.87-1.9-1.87h-67.54c-1.07 0-1.9.8-1.9 1.86v45h3.8v-43.12zm63.74 22.5h3.8v46.87c0 1.06-.83 1.9-1.9 1.9h-67.54c-1.07 0-1.9-.84-1.9-1.9v-7.5h3.8v5.64h63.74v-45z" stroke="#000" stroke-opacity="0" fill="#fff"/><use xlink:href="#v" transform="matrix(1,0,0,1,-1670,-100.87140838175776) translate(7.1499999999999915 14.4)"/><use xlink:href="#w" transform="matrix(1,0,0,1,-1670,-100.87140838175776) translate(115 14.4)"/><use xlink:href="#x" transform="matrix(1,0,0,1,-1670,-100.87140838175776) translate(49.599999999999994 36)"/><use xlink:href="#y" transform="matrix(1,0,0,1,-1670,-100.87140838175776) translate(104.5 36)"/><path d="M-3239 130.13h120v120h-120v-120z" stroke="#000" stroke-opacity="0" fill="url(#z)"/><path d="M-3212.76 190.13c0 1.07-.82 1.9-1.9 1.9-1 0-1.9-.83-1.9-1.9 0-1.07.9-1.9 1.9-1.9 1.08 0 1.9.83 1.9 1.9zm-7.5 0c0 3.14 2.55 5.6 5.6 5.6 3.14 0 5.62-2.46 5.62-5.6 0-3.14-2.48-5.62-5.6-5.62-3.07 0-5.63 2.5-5.63 5.63zm82.55-35.1v70.2c0 3.37-2.82 6.18-6.2 6.18h-70.18c-3.38 0-6.2-2.8-6.2-6.18v-25.68h3.73v25.68c0 1.32 1.15 2.47 2.47 2.47h70.18c1.32 0 2.48-1.16 2.48-2.48v-70.18c0-1.32-1.16-2.48-2.48-2.48h-70.18c-1.32 0-2.47 1.16-2.47 2.48v25.68h-3.72v-25.68c0-3.38 2.8-6.2 6.2-6.2h70.17c3.4 0 6.2 2.82 6.2 6.2zm-75.06 57.64h6.6c8.18 0 17.6-5.37 21.4-12.3l3.3 1.9c-4.46 8-15.1 14.1-24.7 14.1h-6.6v-3.7zm57.3-50.7h3.47l-2.4-2.4 2.66-2.63 6.02 6.03c.42.33.58.82.58 1.32 0 .48-.16.9-.58 1.3l-6.02 6.03-2.65-2.64 3.24-3.23h-4.3c-7.18 0-16.6 3.88-21.38 12.8l-3.3-1.82c4.78-8.83 14.7-14.77 24.68-14.77zm-23.45 27.5c.16 12.8 10.64 23.2 23.44 23.2h3.8l-2.73-2.73 2.66-2.64 6.02 6.03c.42.33.58.82.58 1.32 0 .5-.16 1-.58 1.32l-6.02 6.03-2.65-2.65 3-2.97h-4.06c-14.78 0-27-12.05-27.24-26.83-.17-13.37-10.5-23.78-23.45-23.78h-6.6v-3.8h6.6c15.1 0 27 12.14 27.24 27.5zm-22.63-10.57c-1 0-1.8-.9-1.8-1.9 0-1.07.8-1.9 1.8-1.9 1.08 0 1.9.83 1.9 1.9 0 1-.82 1.9-1.9 1.9zm0-7.5c-3.05 0-5.6 2.46-5.6 5.6 0 3.06 2.55 5.62 5.6 5.62 3.14 0 5.62-2.56 5.62-5.62 0-3.14-2.5-5.6-5.63-5.6zm4.38 23.2l3.47 1.56-1.57 3.46-3.55-1.57 1.65-3.46zm-6.6 5.27l10.3 4.7 4.72-10.3-10.32-4.72-4.7 10.32zm51.02-20.97h5.7l-.1 16.84h-5.6V178.9zm-3.8 20.64h13.2l.1-24.44h-13.22l-.08 24.44zm-13.05-16.92h5.62v13.12h-5.7l.08-13.12zm-3.8 16.92h13.13l.1-20.64h-13.22v20.64z" stroke="#000" stroke-opacity="0" fill="#fff"/><use xlink:href="#A" transform="matrix(1,0,0,1,-3268.987887037377,259.1285916182423) translate(36.64999999999999 14.4)"/><use xlink:href="#B" transform="matrix(1,0,0,1,-3268.987887037377,259.1285916182423) translate(77.55 14.4)"/><path d="M-2919 130.13h120v120h-120v-120z" stroke="#000" stroke-opacity="0" fill="url(#C)"/><path d="M-2868.36 163.96h1.88v-1.9h-1.88v1.9zm-3.75 1.9v-5.7c0-1.07.86-1.9 1.87-1.9h5.62c1 0 1.86.83 1.86 1.9v5.7c0 1-.86 1.8-1.87 1.8h-5.63c-1 0-1.88-.8-1.88-1.8zm14.98-11.32h1.88v-1.9h-1.88v1.9zm-3.74 1.82v-5.6c0-1.1.8-1.9 1.87-1.9h5.63c1 0 1.88.8 1.88 1.9v5.6c0 1.07-.86 1.9-1.87 1.9h-5.62c-1.05 0-1.86-.82-1.86-1.9zm7.5 13.2h1.87v-1.9h-1.87v1.9zm-1.88-5.6h5.62c1 0 1.87.82 1.87 1.9v5.6c0 1.08-.86 1.9-1.87 1.9h-5.62c-1.07 0-1.88-.82-1.88-1.9v-5.6c0-1.08.8-1.9 1.88-1.9zm-19.45 15.85c-.6-.16-1.2-.24-1.76-.32l15.3 23.03c.2.34.3.67.3 1.1v4.28c1.97.5 3.8.5 5.62 0v-4.3c0-.4.1-.74.3-1.07l15.35-23.02c-.6.08-1.16.16-1.82.33-4.56.67-10.63 1.08-16.66 1.08-5.97 0-12.05-.4-16.6-1.07zm-7.7-2.55c-.64-.58-.95-1.24-.95-1.98 0-2.4 3.95-5.3 22.84-5.53l.04 3.8c-8.7.08-14.58.9-17.47 1.73 3.3.9 10.33 1.9 19.85 1.9 9.07 0 15.85-.9 19.4-1.74-1.57-.4-3.9-.82-7.14-1.24l.45-3.72c11.7 1.4 12.66 3.05 12.66 4.8 0 .73-.3 1.4-.97 1.97l-17.82 26.9v5.05c0 .74-.45 1.5-1.16 1.73-1.77.75-3.5 1.08-5.27 1.08-1.77 0-3.6-.32-5.47-.98-.7-.33-1.2-1-1.2-1.82v-5.04l-17.8-26.9zm34.5 42.52c.3.74.15 1.48-.35 2.06l-8.46 9c-.37.33-.82.58-1.38.58-.5 0-.96-.24-1.37-.57l-8.4-9c-.5-.58-.66-1.32-.36-2.06.3-.66.96-1.16 1.7-1.16h3.76v-3.7h3.75v5.6c0 1.08-.85 1.9-1.86 1.9h-1.27l4.05 4.38 4.1-4.37h-1.26c-1.07 0-1.88-.82-1.88-1.9v-5.6h3.75v3.7h3.75c.76 0 1.42.5 1.72 1.17z" stroke="#000" stroke-opacity="0" fill="#fff"/><use xlink:href="#g" transform="matrix(1,0,0,1,-2948.987887037377,259.1285916182423) translate(28.099999999999994 14.4)"/><use xlink:href="#h" transform="matrix(1,0,0,1,-2948.987887037377,259.1285916182423) translate(136.9 14.4)"/><use xlink:href="#D" transform="matrix(1,0,0,1,-2948.987887037377,259.1285916182423) translate(19.674999999999983 36)"/><use xlink:href="#j" transform="matrix(1,0,0,1,-2948.987887037377,259.1285916182423) translate(90.475 36)"/><use xlink:href="#k" transform="matrix(1,0,0,1,-2948.987887037377,259.1285916182423) translate(57.575 57.6)"/><path d="M-2599 130.13h120v120h-120v-120z" stroke="#000" stroke-opacity="0" fill="url(#E)"/><path d="M-2498.78 179.02c.66.33 1.07 1 1.07 1.65v18.8c0 .66-.34 1.23-.92 1.56l-8.5 5.1v12.05c0 .66-.33 1.24-.9 1.57l-18.75 11.3c-.33.16-.66.24-1 .24-.24 0-.57-.1-.82-.18l-10.3-5.2-8.5 5.12c-.34.17-.67.25-1 .25-.25 0-.58-.1-.9-.26l-20.65-11.2c-.58-.34-.9-1-.9-1.66v-12.04l-8.5-5.1c-.6-.34-.92-.9-.92-1.57v-18.8c0-.66.4-1.32 1.07-1.65l10.16-5.1v-13.86c0-.66.4-1.32 1-1.65l16.92-9.3c.5-.33 1.15-.33 1.73-.1l10.4 5.2 10.4-5.2c.67-.23 1.34-.23 1.9.18l16.94 11.2c.5.34.82.92.82 1.58v11.95zm-2.64 17.4v-14.6l-10.24-5.02c-.66-.33-1.07-1-1.07-1.74v-5.6h-2.23c-.75 2.14-2.8 3.7-5.3 3.7-3.04 0-5.6-2.47-5.6-5.6 0-3.05 2.56-5.6 5.6-5.6 2.5 0 4.55 1.56 5.3 3.8h2.23v-2.8l-15.1-10.07-9.26 4.6v16.57l8.43 5.53c.83-.5 1.82-.74 2.8-.74 3.15 0 5.62 2.47 5.62 5.6 0 3.05-2.47 5.6-5.6 5.6-3.07 0-5.63-2.55-5.63-5.6 0-.74.17-1.4.34-1.98l-8.84-5.85c-.58-.33-.9-.9-.9-1.56V157.5l-9.34-4.7-5.7 3.22v13.44h-3.7v-11.38l-5.62 3.13v12.8l7.5 4.53 7.52-4.54v-8.25h3.72v9.3c0 .67-.33 1.33-.9 1.66l-8.5 5.04v7.17l6.5 3.23c.6.25 1 .9 1 1.65v9.4l7.5-4.78v-7.43l-6.76-5.02 2.32-2.97 7.5 5.6c.42.33.75.9.75 1.5v18.7h7.85c.75-2.14 2.8-3.7 5.3-3.7 3.04 0 5.6 2.47 5.6 5.6 0 3.13-2.56 5.6-5.6 5.6-2.5 0-4.55-1.56-5.3-3.7h-7.84v10.05l9.26 4.62 17-10.14v-12.03c0-.66.34-1.32.9-1.65l6.45-3.87-7.1-3.63c-.98 1-2.38 1.57-3.87 1.57-3.14 0-5.6-2.5-5.6-5.62 0-3.13 2.47-5.6 5.6-5.6 3.06 0 5.62 2.47 5.62 5.6 0 .25-.1.5-.1.66zm-46.98 30.83l7.5-4.53v-19.87l-17.74 11.3-1.98-3.14 8.5-5.43v-10.64l-5.6-2.8-6.7 3.38-1.65-3.37 6.44-3.22v-7.16l-7.6-4.53-9.32 4.63v4.94l6.6-3.96 1.9 3.23-8.5 5.1v7.27l7.5 4.45 8.43-5.03 1.98 3.2-8.5 5.12v10.9l8.92 4.85 8.9-5.37 1.9 3.22-7 4.2zm22.54-44.68c-1 0-1.9.82-1.9 1.9 0 .98.9 1.9 1.9 1.9 1.07 0 1.9-.92 1.9-1.9 0-1.08-.83-1.9-1.9-1.9zm0 28.1c0 1.08.83 1.9 1.9 1.9 1 0 1.9-.82 1.9-1.9 0-1.06-.9-1.9-1.9-1.9-1.07 0-1.9.84-1.9 1.9zm13.3-18.8c0-1.06-.92-1.88-1.9-1.88-1.08 0-1.9.8-1.9 1.88 0 1.07.82 1.9 1.9 1.9.98 0 1.9-.83 1.9-1.9zm-5.8-24.3c0-1-.8-1.82-1.9-1.82-.98 0-1.8.82-1.8 1.8 0 1.08.82 1.9 1.8 1.9 1.1 0 1.9-.82 1.9-1.9z" stroke="#000" stroke-opacity="0" fill="#fff"/><use xlink:href="#r" transform="matrix(1,0,0,1,-2628.987887037377,259.1285916182423) translate(28.574999999999996 14.4)"/><use xlink:href="#F" transform="matrix(1,0,0,1,-2628.987887037377,259.1285916182423) translate(102.525 14.4)"/><use xlink:href="#G" transform="matrix(1,0,0,1,-2628.987887037377,259.1285916182423) translate(50.074999999999996 36)"/><path d="M-2279 130.13h120v120h-120v-120z" stroke="#000" stroke-opacity="0" fill="url(#H)"/><path d="M-2181.42 169.56c0-2.1-1.74-3.75-3.8-3.75-2.07 0-3.72 1.66-3.72 3.76 0 2.1 1.66 3.75 3.72 3.75 2.06 0 3.8-1.64 3.8-3.74zm-33.85 35.63c0-2.1-1.65-3.76-3.72-3.76-2.05 0-3.7 1.65-3.7 3.75s1.65 3.74 3.7 3.74c2.08 0 3.73-1.65 3.73-3.75zm-33.77 3.74c0-2.1-1.65-3.75-3.72-3.75-2.06 0-3.8 1.64-3.8 3.74 0 2.1 1.74 3.75 3.8 3.75 2.07 0 3.72-1.66 3.72-3.76zm26.34-30c0 2.1 1.65 3.75 3.7 3.75 2.08 0 3.73-1.66 3.73-3.76 0-2.1-1.65-3.75-3.72-3.75-2.05 0-3.7 1.64-3.7 3.74zm45-9.38c0 4.13-3.4 7.5-7.52 7.5-1.32 0-2.64-.37-3.72-1.05l-23.6 25.36c.65 1.13 1.07 2.4 1.07 3.83 0 4.1-3.4 7.5-7.52 7.5-4.12 0-7.5-3.4-7.5-7.5 0-3.46 2.4-6.4 5.6-7.2v-11.86c-.73-.15-1.4-.45-1.97-.83l-23.36 20.04c.57 1.05 1 2.25 1 3.6 0 4.12-3.4 7.5-7.53 7.5-4.12 0-7.5-3.38-7.5-7.5 0-4.13 3.38-7.5 7.5-7.5 1.5 0 2.8.45 3.97 1.12l23.3-19.95c-.6-1.1-1-2.3-1-3.66 0-4.13 3.38-7.5 7.5-7.5 4.14 0 7.53 3.37 7.53 7.5 0 3.45-2.4 6.37-5.62 7.2V198c.67.14 1.25.36 1.83.74l23.6-25.35c-.65-1.14-1.06-2.4-1.06-3.84 0-4.12 3.38-7.5 7.5-7.5 4.14 0 7.52 3.38 7.52 7.5zm-73.16-13.12h63.74v3.75h3.8v-5.64c0-1.05-.83-1.87-1.9-1.87h-67.54c-1.07 0-1.9.8-1.9 1.86v45h3.8v-43.12zm63.74 22.5h3.8v46.87c0 1.06-.83 1.9-1.9 1.9h-67.54c-1.07 0-1.9-.84-1.9-1.9v-7.5h3.8v5.64h63.74v-45z" stroke="#000" stroke-opacity="0" fill="#fff"/><use xlink:href="#I" transform="matrix(1,0,0,1,-2308.987887037377,259.1285916182423) translate(0.32500000000000284 14.4)"/><use xlink:href="#J" transform="matrix(1,0,0,1,-2308.987887037377,259.1285916182423) translate(81.22500000000001 14.4)"/><use xlink:href="#K" transform="matrix(1,0,0,1,-2308.987887037377,259.1285916182423) translate(135.075 14.4)"/><path d="M-3118.5-169.87h183.13" stroke="#3a414a" fill="none"/><path d="M-3118.47-169.4h-.52v-.95h.53z" stroke="#3a414a" stroke-width=".05" fill="#3a414a"/><path d="M-2920.6-169.87l-14.27 4.63v-9.27z" stroke="#3a414a" fill="#3a414a"/><path d="M-2798.5-169.87h183.13" stroke="#3a414a" fill="none"/><path d="M-2798.47-169.4h-.52v-.95h.53z" stroke="#3a414a" stroke-width=".05" fill="#3a414a"/><path d="M-2600.6-169.87l-14.27 4.63v-9.27z" stroke="#3a414a" fill="#3a414a"/><path d="M-2478.5-169.87h183.13" stroke="#3a414a" fill="none"/><path d="M-2478.47-169.4h-.52v-.95h.53z" stroke="#3a414a" stroke-width=".05" fill="#3a414a"/><path d="M-2280.6-169.87l-14.27 4.63v-9.27z" stroke="#3a414a" fill="#3a414a"/><path d="M-1838.5-169.87h182.12" stroke="#3a414a" fill="none"/><path d="M-1838.47-169.4h-.52v-.95h.53z" stroke="#3a414a" stroke-width=".05" fill="#3a414a"/><path d="M-1641.62-169.87l-14.26 4.63v-9.27z" stroke="#3a414a" fill="#3a414a"/><path d="M-2158.5-169.87h183.13" stroke="#3a414a" fill="none"/><path d="M-2158.47-169.4h-.52v-.95h.53z" stroke="#3a414a" stroke-width=".05" fill="#3a414a"/><path d="M-1960.6-169.87l-14.27 4.63v-9.27z" stroke="#3a414a" fill="#3a414a"/><path d="M-3118.5 190.13h183.13" stroke="#3a414a" fill="none"/><path d="M-3118.47 190.6h-.52v-.95h.53z" stroke="#3a414a" stroke-width=".05" fill="#3a414a"/><path d="M-2920.6 190.13l-14.27 4.63v-9.27z" stroke="#3a414a" fill="#3a414a"/><path d="M-2798.5 190.13h183.13" stroke="#3a414a" fill="none"/><path d="M-2798.47 190.6h-.52v-.95h.53z" stroke="#3a414a" stroke-width=".05" fill="#3a414a"/><path d="M-2600.6 190.13l-14.27 4.63v-9.27z" stroke="#3a414a" fill="#3a414a"/><path d="M-2478.5 190.13h183.13" stroke="#3a414a" fill="none"/><path d="M-2478.47 190.6h-.52v-.95h.53z" stroke="#3a414a" stroke-width=".05" fill="#3a414a"/><path d="M-2280.6 190.13l-14.27 4.63v-9.27z" stroke="#3a414a" fill="#3a414a"/><path d="M-3671-280h220v618.13h-220z" fill="#3a414a"/><g><use xlink:href="#L" transform="matrix(1,0,0,1,-3665.987887037377,-275) translate(24.698765432098824 285.5440972222222)"/><use xlink:href="#M" transform="matrix(1,0,0,1,-3665.987887037377,-275) translate(48.401543209876586 328.4774305555555)"/></g><path d="M-3451-280h160V38.13h-160z" fill="#6db1ff"/><g><use xlink:href="#N" transform="matrix(1,0,0,1,-3445.987887037377,-275) translate(27.085493827160505 142.21423611111112)"/><use xlink:href="#O" transform="matrix(1,0,0,1,-3445.987887037377,-275) translate(36.90740740740742 174.48090277777777)"/></g><path d="M-3451 38.13h160v300h-160z" fill="#fc9432"/><g><use xlink:href="#P" transform="matrix(1,0,0,1,-3445.987887037377,43.12859161824218) translate(15.358950617283966 134.79236111111112)"/><use xlink:href="#Q" transform="matrix(1,0,0,1,-3445.987887037377,43.12859161824218) translate(36.90740740740742 167.05902777777777)"/></g><path d="M-3289 38.13h40.18m40.16 0h80.34m40.16 0h80.34m40.16 0h80.34m40.16 0h80.34m40.16 0h80.33m40.17 0h80.33m40.17 0h80.33m40.17 0h80.33m40.17 0h80.33m40.17 0h80.33m40.17 0h80.33m40.17 0h80.33m40.16 0h80.34m40.16 0h80.34m40.16 0h40.17" stroke="#4c535d" stroke-width="4" fill="none"/><path d="M-3288.94 36.15v3.95h-2.05v-1.97h-3v-1.98zM-1479.5 36.16v3.95h-2.05v-3.94z" stroke="#4c535d" stroke-width=".05" fill="#4c535d"/><path d="M-1959-229.87h120v120h-120v-120z" stroke="#000" stroke-opacity="0" fill="url(#R)"/><path d="M-1858.78-180.98c.66.33 1.07 1 1.07 1.65v18.8c0 .66-.34 1.23-.92 1.56l-8.5 5.1v12.05c0 .66-.33 1.24-.9 1.57l-18.75 11.3c-.33.16-.66.24-1 .24-.24 0-.57-.1-.82-.18l-10.3-5.2-8.5 5.12c-.34.17-.67.25-1 .25-.25 0-.58-.1-.9-.26l-20.65-11.2c-.58-.34-.9-1-.9-1.66v-12.04l-8.5-5.1c-.6-.34-.92-.9-.92-1.57v-18.8c0-.66.4-1.32 1.08-1.65l10.16-5.1v-13.86c0-.66.4-1.32 1-1.65l16.92-9.3c.5-.33 1.15-.33 1.73-.1l10.4 5.2 10.4-5.2c.67-.23 1.34-.23 1.9.18l16.94 11.2c.5.34.82.92.82 1.58v11.95zm-2.64 17.4v-14.6l-10.24-5.02c-.66-.33-1.07-1-1.07-1.74v-5.6h-2.23c-.75 2.14-2.8 3.7-5.3 3.7-3.04 0-5.6-2.47-5.6-5.6 0-3.05 2.56-5.6 5.6-5.6 2.5 0 4.55 1.56 5.3 3.8h2.23v-2.8l-15.1-10.07-9.26 4.6v16.57l8.43 5.53c.83-.5 1.82-.74 2.8-.74 3.15 0 5.62 2.47 5.62 5.6 0 3.05-2.47 5.6-5.6 5.6-3.07 0-5.63-2.55-5.63-5.6 0-.74.17-1.4.34-1.98l-8.84-5.85c-.58-.33-.9-.9-.9-1.56v-17.56l-9.34-4.7-5.7 3.22v13.44h-3.7v-11.38l-5.62 3.13v12.8l7.5 4.53 7.52-4.54v-8.25h3.72v9.3c0 .67-.33 1.33-.9 1.66l-8.5 5.04v7.17l6.5 3.23c.6.25 1 .9 1 1.65v9.4l7.5-4.78v-7.43l-6.76-5.02 2.32-2.97 7.5 5.6c.42.33.75.9.75 1.5v18.7h7.85c.75-2.14 2.8-3.7 5.3-3.7 3.04 0 5.6 2.47 5.6 5.6 0 3.13-2.56 5.6-5.6 5.6-2.5 0-4.55-1.56-5.3-3.7h-7.84v10.05l9.26 4.62 17-10.14v-12.03c0-.66.33-1.32.9-1.65l6.45-3.87-7.1-3.63c-.98 1-2.38 1.57-3.87 1.57-3.13 0-5.6-2.5-5.6-5.62 0-3.13 2.46-5.6 5.6-5.6 3.06 0 5.62 2.47 5.62 5.6 0 .25-.1.5-.1.66zm-46.98 30.83l7.5-4.53v-19.87l-17.74 11.3-1.98-3.14 8.5-5.43v-10.64l-5.6-2.8-6.7 3.38-1.65-3.37 6.44-3.22v-7.16l-7.6-4.53-9.32 4.63v4.94l6.6-3.96 1.9 3.23-8.5 5.1v7.27l7.5 4.45 8.43-5.03 1.98 3.2-8.5 5.12v10.9l8.92 4.85 8.9-5.37 1.9 3.22-7 4.2zm22.54-44.68c-1 0-1.9.82-1.9 1.9 0 .98.9 1.9 1.9 1.9 1.07 0 1.9-.92 1.9-1.9 0-1.08-.83-1.9-1.9-1.9zm0 28.1c0 1.08.82 1.9 1.9 1.9 1 0 1.9-.82 1.9-1.9 0-1.06-.9-1.9-1.9-1.9-1.08 0-1.9.84-1.9 1.9zm13.3-18.8c0-1.06-.92-1.88-1.9-1.88-1.08 0-1.9.8-1.9 1.88 0 1.07.82 1.9 1.9 1.9.98 0 1.9-.83 1.9-1.9zm-5.8-24.3c0-1-.8-1.82-1.9-1.82-.98 0-1.8.82-1.8 1.8 0 1.08.82 1.9 1.8 1.9 1.1 0 1.9-.82 1.9-1.9z" stroke="#000" stroke-opacity="0" fill="#fff"/><g><use xlink:href="#S" transform="matrix(1,0,0,1,-1988.9878870373768,-100.87140838175776) translate(30.14999999999999 14.4)"/><use xlink:href="#T" transform="matrix(1,0,0,1,-1988.9878870373768,-100.87140838175776) translate(74 14.4)"/><use xlink:href="#U" transform="matrix(1,0,0,1,-1988.9878870373768,-100.87140838175776) translate(50.599999999999994 36)"/><use xlink:href="#V" transform="matrix(1,0,0,1,-1988.9878870373768,-100.87140838175776) translate(61.55 36)"/><use xlink:href="#W" transform="matrix(1,0,0,1,-1988.9878870373768,-100.87140838175776) translate(123.45 36)"/></g><defs><linearGradient gradientUnits="userSpaceOnUse" id="a" x1="-3238.99" y1="-109.87" x2="-3118.99" y2="-229.87"><stop offset="0%" stop-color="#4d27a8"/><stop offset="100%" stop-color="#a166ff"/></linearGradient><path fill="#3a414a" d="M212-179c-10-28-35-45-73-45-59 0-87 40-87 99 0 60 29 101 89 101 43 0 62-24 78-52l27 14C228-24 195 4 139 4 59 4 22-46 18-125c-6-104 99-153 187-111 19 9 31 26 39 46" id="X"/><path fill="#3a414a" d="M101-251c82-7 93 87 43 132L82-64C71-53 59-42 53-27h129V0H18c2-99 128-94 128-182 0-28-16-43-45-43s-46 15-49 41l-32-3c6-41 34-60 81-64" id="Y"/><path fill="#3a414a" d="M30-248c118-7 216 8 213 122C240-48 200 0 122 0H30v-248zM63-27c89 8 146-16 146-99s-60-101-146-95v194" id="Z"/><path fill="#3a414a" d="M160-131c35 5 61 23 61 61C221 17 115-2 30 0v-248c76 3 177-17 177 60 0 33-19 50-47 57zm-97-11c50-1 110 9 110-42 0-47-63-36-110-37v79zm0 115c55-2 124 14 124-45 0-56-70-42-124-44v89" id="aa"/><g id="b"><use transform="matrix(0.05,0,0,0.05,0,0)" xlink:href="#X"/><use transform="matrix(0.05,0,0,0.05,12.950000000000001,0)" xlink:href="#Y"/><use transform="matrix(0.05,0,0,0.05,22.950000000000003,0)" xlink:href="#Z"/><use transform="matrix(0.05,0,0,0.05,35.900000000000006,0)" xlink:href="#aa"/></g><path fill="#3a414a" d="M141-36C126-15 110 5 73 4 37 3 15-17 15-53c-1-64 63-63 125-63 3-35-9-54-41-54-24 1-41 7-42 31l-33-3c5-37 33-52 76-52 45 0 72 20 72 64v82c-1 20 7 32 28 27v20c-31 9-61-2-59-35zM48-53c0 20 12 33 32 33 41-3 63-29 60-74-43 2-92-5-92 41" id="ab"/><path fill="#3a414a" d="M59-47c-2 24 18 29 38 22v24C64 9 27 4 27-40v-127H5v-23h24l9-43h21v43h35v23H59v120" id="ac"/><g id="c"><use transform="matrix(0.05,0,0,0.05,0,0)" xlink:href="#Z"/><use transform="matrix(0.05,0,0,0.05,12.950000000000001,0)" xlink:href="#ab"/><use transform="matrix(0.05,0,0,0.05,22.950000000000003,0)" xlink:href="#ac"/><use transform="matrix(0.05,0,0,0.05,27.950000000000003,0)" xlink:href="#ab"/></g><path fill="#3a414a" d="M87 75C49 33 22-17 22-94c0-76 28-126 65-167h31c-38 41-64 92-64 168S80 34 118 75H87" id="ad"/><path fill="#3a414a" d="M190 0L58-211 59 0H30v-248h39L202-35l-2-213h31V0h-41" id="ae"/><path fill="#3a414a" d="M100-194c62-1 85 37 85 99 1 63-27 99-86 99S16-35 15-95c0-66 28-99 85-99zM99-20c44 1 53-31 53-75 0-43-8-75-51-75s-53 32-53 75 10 74 51 75" id="af"/><path fill="#3a414a" d="M117-194c89-4 53 116 60 194h-32v-121c0-31-8-49-39-48C34-167 62-67 57 0H25l-1-190h30c1 10-1 24 2 32 11-22 29-35 61-36" id="ag"/><path fill="#3a414a" d="M16-82v-28h88v28H16" id="ah"/><path fill="#3a414a" d="M240 0l2-218c-23 76-54 145-80 218h-23L58-218 59 0H30v-248h44l77 211c21-75 51-140 76-211h43V0h-30" id="ai"/><path fill="#3a414a" d="M177-190C167-65 218 103 67 71c-23-6-38-20-44-43l32-5c15 47 100 32 89-28v-30C133-14 115 1 83 1 29 1 15-40 15-95c0-56 16-97 71-98 29-1 48 16 59 35 1-10 0-23 2-32h30zM94-22c36 0 50-32 50-73 0-42-14-75-50-75-39 0-46 34-46 75s6 73 46 73" id="aj"/><path fill="#3a414a" d="M100-194c63 0 86 42 84 106H49c0 40 14 67 53 68 26 1 43-12 49-29l28 8c-11 28-37 45-77 45C44 4 14-33 15-96c1-61 26-98 85-98zm52 81c6-60-76-77-97-28-3 7-6 17-6 28h103" id="ak"/><path fill="#3a414a" d="M24-231v-30h32v30H24zM24 0v-190h32V0H24" id="al"/><path fill="#3a414a" d="M96-169c-40 0-48 33-48 73s9 75 48 75c24 0 41-14 43-38l32 2c-6 37-31 61-74 61-59 0-76-41-82-99-10-93 101-131 147-64 4 7 5 14 7 22l-32 3c-4-21-16-35-41-35" id="am"/><g id="d"><use transform="matrix(0.05,0,0,0.05,0,0)" xlink:href="#ad"/><use transform="matrix(0.05,0,0,0.05,5.95,0)" xlink:href="#ae"/><use transform="matrix(0.05,0,0,0.05,18.900000000000002,0)" xlink:href="#af"/><use transform="matrix(0.05,0,0,0.05,28.900000000000002,0)" xlink:href="#ag"/><use transform="matrix(0.05,0,0,0.05,38.900000000000006,0)" xlink:href="#ah"/><use transform="matrix(0.05,0,0,0.05,44.85000000000001,0)" xlink:href="#ai"/><use transform="matrix(0.05,0,0,0.05,59.80000000000001,0)" xlink:href="#ab"/><use transform="matrix(0.05,0,0,0.05,69.80000000000001,0)" xlink:href="#aj"/><use transform="matrix(0.05,0,0,0.05,79.80000000000001,0)" xlink:href="#ag"/><use transform="matrix(0.05,0,0,0.05,89.80000000000001,0)" xlink:href="#ak"/><use transform="matrix(0.05,0,0,0.05,99.80000000000001,0)" xlink:href="#ac"/><use transform="matrix(0.05,0,0,0.05,104.80000000000001,0)" xlink:href="#al"/><use transform="matrix(0.05,0,0,0.05,108.75,0)" xlink:href="#am"/></g><path fill="#3a414a" d="M210-169c-67 3-38 105-44 169h-31v-121c0-29-5-50-35-48C34-165 62-65 56 0H25l-1-190h30c1 10-1 24 2 32 10-44 99-50 107 0 11-21 27-35 58-36 85-2 47 119 55 194h-31v-121c0-29-5-49-35-48" id="an"/><path fill="#3a414a" d="M115-194c55 1 70 41 70 98S169 2 115 4C84 4 66-9 55-30l1 105H24l-1-265h31l2 30c10-21 28-34 59-34zm-8 174c40 0 45-34 45-75s-6-73-45-74c-42 0-51 32-51 76 0 43 10 73 51 73" id="ao"/><path fill="#3a414a" d="M84 4C-5 8 30-112 23-190h32v120c0 31 7 50 39 49 72-2 45-101 50-169h31l1 190h-30c-1-10 1-25-2-33-11 22-28 36-60 37" id="ap"/><path fill="#3a414a" d="M85-194c31 0 48 13 60 33l-1-100h32l1 261h-30c-2-10 0-23-3-31C134-8 116 4 85 4 32 4 16-35 15-94c0-66 23-100 70-100zm9 24c-40 0-46 34-46 75 0 40 6 74 45 74 42 0 51-32 51-76 0-42-9-74-50-73" id="aq"/><path fill="#3a414a" d="M135-143c-3-34-86-38-87 0 15 53 115 12 119 90S17 21 10-45l28-5c4 36 97 45 98 0-10-56-113-15-118-90-4-57 82-63 122-42 12 7 21 19 24 35" id="ar"/><path fill="#3a414a" d="M33-261c38 41 65 92 65 168S71 34 33 75H2C39 34 66-17 66-93S39-220 2-261h31" id="as"/><g id="e"><use transform="matrix(0.05,0,0,0.05,0,0)" xlink:href="#X"/><use transform="matrix(0.05,0,0,0.05,12.950000000000001,0)" xlink:href="#af"/><use transform="matrix(0.05,0,0,0.05,22.950000000000003,0)" xlink:href="#an"/><use transform="matrix(0.05,0,0,0.05,37.900000000000006,0)" xlink:href="#ao"/><use transform="matrix(0.05,0,0,0.05,47.900000000000006,0)" xlink:href="#af"/><use transform="matrix(0.05,0,0,0.05,57.900000000000006,0)" xlink:href="#ap"/><use transform="matrix(0.05,0,0,0.05,67.9,0)" xlink:href="#ag"/><use transform="matrix(0.05,0,0,0.05,77.9,0)" xlink:href="#aq"/><use transform="matrix(0.05,0,0,0.05,87.9,0)" xlink:href="#ar"/><use transform="matrix(0.05,0,0,0.05,96.9,0)" xlink:href="#as"/></g><linearGradient gradientUnits="userSpaceOnUse" id="f" x1="-2918.99" y1="-109.87" x2="-2798.99" y2="-229.87"><stop offset="0%" stop-color="#4d27a8"/><stop offset="100%" stop-color="#a166ff"/></linearGradient><path fill="#3a414a" d="M63-220v92h138v28H63V0H30v-248h175v28H63" id="at"/><path fill="#3a414a" d="M114-163C36-179 61-72 57 0H25l-1-190h30c1 12-1 29 2 39 6-27 23-49 58-41v29" id="au"/><path fill="#3a414a" d="M9 0v-24l116-142H16v-24h144v24L44-24h123V0H9" id="av"/><g id="g"><use transform="matrix(0.05,0,0,0.05,0,0)" xlink:href="#at"/><use transform="matrix(0.05,0,0,0.05,10.950000000000001,0)" xlink:href="#ak"/><use transform="matrix(0.05,0,0,0.05,20.950000000000003,0)" xlink:href="#ab"/><use transform="matrix(0.05,0,0,0.05,30.950000000000003,0)" xlink:href="#ac"/><use transform="matrix(0.05,0,0,0.05,35.95,0)" xlink:href="#ap"/><use transform="matrix(0.05,0,0,0.05,45.95,0)" xlink:href="#au"/><use transform="matrix(0.05,0,0,0.05,51.900000000000006,0)" xlink:href="#al"/><use transform="matrix(0.05,0,0,0.05,55.85,0)" xlink:href="#av"/><use transform="matrix(0.05,0,0,0.05,64.85000000000001,0)" xlink:href="#ab"/><use transform="matrix(0.05,0,0,0.05,74.85000000000001,0)" xlink:href="#ac"/><use transform="matrix(0.05,0,0,0.05,79.85000000000001,0)" xlink:href="#al"/><use transform="matrix(0.05,0,0,0.05,83.80000000000001,0)" xlink:href="#af"/><use transform="matrix(0.05,0,0,0.05,93.80000000000001,0)" xlink:href="#ag"/></g><path fill="#3a414a" d="M101-234c-31-9-42 10-38 44h38v23H63V0H32v-167H5v-23h27c-7-52 17-82 69-68v24" id="aw"/><g id="h"><use transform="matrix(0.05,0,0,0.05,0,0)" xlink:href="#af"/><use transform="matrix(0.05,0,0,0.05,10,0)" xlink:href="#aw"/></g><path fill="#3a414a" d="M24 0v-261h32V0H24" id="ax"/><g id="i"><use transform="matrix(0.05,0,0,0.05,0,0)" xlink:href="#at"/><use transform="matrix(0.05,0,0,0.05,10.950000000000001,0)" xlink:href="#af"/><use transform="matrix(0.05,0,0,0.05,20.950000000000003,0)" xlink:href="#au"/><use transform="matrix(0.05,0,0,0.05,26.900000000000002,0)" xlink:href="#an"/><use transform="matrix(0.05,0,0,0.05,41.85,0)" xlink:href="#ap"/><use transform="matrix(0.05,0,0,0.05,51.85,0)" xlink:href="#ax"/><use transform="matrix(0.05,0,0,0.05,55.800000000000004,0)" xlink:href="#ab"/><use transform="matrix(0.05,0,0,0.05,65.80000000000001,0)" xlink:href="#ar"/></g><path fill="#3a414a" d="M68-38c1 34 0 65-14 84H32c9-13 17-26 17-46H33v-38h35" id="ay"/><g id="j"><use transform="matrix(0.05,0,0,0.05,0,0)" xlink:href="#ad"/><use transform="matrix(0.05,0,0,0.05,5.95,0)" xlink:href="#ai"/><use transform="matrix(0.05,0,0,0.05,20.900000000000002,0)" xlink:href="#ab"/><use transform="matrix(0.05,0,0,0.05,30.900000000000002,0)" xlink:href="#aj"/><use transform="matrix(0.05,0,0,0.05,40.900000000000006,0)" xlink:href="#ao"/><use transform="matrix(0.05,0,0,0.05,50.900000000000006,0)" xlink:href="#al"/><use transform="matrix(0.05,0,0,0.05,54.85,0)" xlink:href="#ak"/><use transform="matrix(0.05,0,0,0.05,64.85000000000001,0)" xlink:href="#ay"/></g><path fill="#3a414a" d="M140-251c81 0 123 46 123 126C263-46 219 4 140 4 59 4 17-45 17-125s42-126 123-126zm0 227c63 0 89-41 89-101s-29-99-89-99c-61 0-89 39-89 99S79-25 140-24" id="az"/><path fill="#3a414a" d="M179-190L93 31C79 59 56 82 12 73V49c39 6 53-20 64-50L1-190h34L92-34l54-156h33" id="aA"/><path fill="#3a414a" d="M143 0L79-87 56-68V0H24v-261h32v163l83-92h37l-77 82L181 0h-38" id="aB"/><g id="k"><use transform="matrix(0.05,0,0,0.05,0,0)" xlink:href="#az"/><use transform="matrix(0.05,0,0,0.05,14,0)" xlink:href="#ax"/><use transform="matrix(0.05,0,0,0.05,17.95,0)" xlink:href="#al"/><use transform="matrix(0.05,0,0,0.05,21.9,0)" xlink:href="#aA"/><use transform="matrix(0.05,0,0,0.05,30.899999999999995,0)" xlink:href="#ag"/><use transform="matrix(0.05,0,0,0.05,40.9,0)" xlink:href="#aA"/><use transform="matrix(0.05,0,0,0.05,49.9,0)" xlink:href="#aB"/><use transform="matrix(0.05,0,0,0.05,58.900000000000006,0)" xlink:href="#as"/></g><linearGradient gradientUnits="userSpaceOnUse" id="l" x1="-2598.99" y1="-109.87" x2="-2478.99" y2="-229.87"><stop offset="0%" stop-color="#4d27a8"/><stop offset="100%" stop-color="#a166ff"/></linearGradient><path fill="#3a414a" d="M197 0v-115H63V0H30v-248h33v105h134v-105h34V0h-34" id="aC"/><path fill="#3a414a" d="M30-248c87 1 191-15 191 75 0 78-77 80-158 76V0H30v-248zm33 125c57 0 124 11 124-50 0-59-68-47-124-48v98" id="aD"/><g id="m"><use transform="matrix(0.05,0,0,0.05,0,0)" xlink:href="#aC"/><use transform="matrix(0.05,0,0,0.05,12.950000000000001,0)" xlink:href="#aA"/><use transform="matrix(0.05,0,0,0.05,21.950000000000003,0)" xlink:href="#ao"/><use transform="matrix(0.05,0,0,0.05,31.950000000000003,0)" xlink:href="#ak"/><use transform="matrix(0.05,0,0,0.05,41.95,0)" xlink:href="#au"/><use transform="matrix(0.05,0,0,0.05,47.900000000000006,0)" xlink:href="#aD"/><use transform="matrix(0.05,0,0,0.05,59.900000000000006,0)" xlink:href="#ab"/><use transform="matrix(0.05,0,0,0.05,69.9,0)" xlink:href="#au"/><use transform="matrix(0.05,0,0,0.05,75.85000000000001,0)" xlink:href="#ab"/><use transform="matrix(0.05,0,0,0.05,85.85000000000001,0)" xlink:href="#an"/><use transform="matrix(0.05,0,0,0.05,100.80000000000001,0)" xlink:href="#ak"/><use transform="matrix(0.05,0,0,0.05,110.80000000000001,0)" xlink:href="#ac"/><use transform="matrix(0.05,0,0,0.05,115.80000000000001,0)" xlink:href="#ak"/><use transform="matrix(0.05,0,0,0.05,125.80000000000001,0)" xlink:href="#au"/></g><path fill="#3a414a" d="M127-220V0H93v-220H8v-28h204v28h-85" id="aE"/><g id="n"><use transform="matrix(0.05,0,0,0.05,0,0)" xlink:href="#aE"/><use transform="matrix(0.05,0,0,0.05,10.3,0)" xlink:href="#ap"/><use transform="matrix(0.05,0,0,0.05,20.3,0)" xlink:href="#ag"/><use transform="matrix(0.05,0,0,0.05,30.3,0)" xlink:href="#al"/><use transform="matrix(0.05,0,0,0.05,34.25,0)" xlink:href="#ag"/><use transform="matrix(0.05,0,0,0.05,44.25,0)" xlink:href="#aj"/></g><g id="o"><use transform="matrix(0.05,0,0,0.05,0,0)" xlink:href="#ap"/><use transform="matrix(0.05,0,0,0.05,10,0)" xlink:href="#ar"/><use transform="matrix(0.05,0,0,0.05,19,0)" xlink:href="#al"/><use transform="matrix(0.05,0,0,0.05,22.95,0)" xlink:href="#ag"/><use transform="matrix(0.05,0,0,0.05,32.95,0)" xlink:href="#aj"/></g><g id="p"><use transform="matrix(0.05,0,0,0.05,0,0)" xlink:href="#az"/><use transform="matrix(0.05,0,0,0.05,14,0)" xlink:href="#ao"/><use transform="matrix(0.05,0,0,0.05,24,0)" xlink:href="#ac"/><use transform="matrix(0.05,0,0,0.05,29,0)" xlink:href="#ap"/><use transform="matrix(0.05,0,0,0.05,39,0)" xlink:href="#ag"/><use transform="matrix(0.05,0,0,0.05,49,0)" xlink:href="#ab"/></g><linearGradient gradientUnits="userSpaceOnUse" id="q" x1="-2278.99" y1="-109.87" x2="-2158.99" y2="-229.87"><stop offset="0%" stop-color="#055f4e"/><stop offset="100%" stop-color="#56c0a7"/></linearGradient><path fill="#3a414a" d="M185-189c-5-48-123-54-124 2 14 75 158 14 163 119 3 78-121 87-175 55-17-10-28-26-33-46l33-7c5 56 141 63 141-1 0-78-155-14-162-118-5-82 145-84 179-34 5 7 8 16 11 25" id="aF"/><g id="r"><use transform="matrix(0.05,0,0,0.05,0,0)" xlink:href="#aF"/><use transform="matrix(0.05,0,0,0.05,12,0)" xlink:href="#ac"/><use transform="matrix(0.05,0,0,0.05,17,0)" xlink:href="#ab"/><use transform="matrix(0.05,0,0,0.05,27,0)" xlink:href="#am"/><use transform="matrix(0.05,0,0,0.05,36,0)" xlink:href="#aB"/><use transform="matrix(0.05,0,0,0.05,45,0)" xlink:href="#al"/><use transform="matrix(0.05,0,0,0.05,48.95,0)" xlink:href="#ag"/><use transform="matrix(0.05,0,0,0.05,58.95,0)" xlink:href="#aj"/></g><g id="s"><use transform="matrix(0.05,0,0,0.05,0,0)" xlink:href="#af"/><use transform="matrix(0.05,0,0,0.05,10,0)" xlink:href="#aw"/></g><path fill="#3a414a" d="M233-177c-1 41-23 64-60 70L243 0h-38l-65-103H63V0H30v-248c88 3 205-21 203 71zM63-129c60-2 137 13 137-47 0-61-80-42-137-45v92" id="aG"/><path fill="#3a414a" d="M143 4C61 4 22-44 18-125c-5-107 100-154 193-111 17 8 29 25 37 43l-32 9c-13-25-37-40-76-40-61 0-88 39-88 99 0 61 29 100 91 101 35 0 62-11 79-27v-45h-74v-28h105v86C228-13 192 4 143 4" id="aH"/><path fill="#3a414a" d="M30 0v-248h187v28H63v79h144v27H63v87h162V0H30" id="aI"/><path fill="#3a414a" d="M205 0l-28-72H64L36 0H1l101-248h38L239 0h-34zm-38-99l-47-123c-12 45-31 82-46 123h93" id="aJ"/><g id="t"><use transform="matrix(0.05,0,0,0.05,0,0)" xlink:href="#aG"/><use transform="matrix(0.05,0,0,0.05,12.950000000000001,0)" xlink:href="#at"/><use transform="matrix(0.05,0,0,0.05,21.900000000000002,0)" xlink:href="#ay"/><use transform="matrix(0.05,0,0,0.05,26.900000000000002,0)" xlink:href="#aH"/><use transform="matrix(0.05,0,0,0.05,40.900000000000006,0)" xlink:href="#aa"/><use transform="matrix(0.05,0,0,0.05,52.900000000000006,0)" xlink:href="#aG"/><use transform="matrix(0.05,0,0,0.05,65.85000000000001,0)" xlink:href="#ay"/><use transform="matrix(0.05,0,0,0.05,70.85000000000001,0)" xlink:href="#aC"/><use transform="matrix(0.05,0,0,0.05,83.80000000000001,0)" xlink:href="#aH"/><use transform="matrix(0.05,0,0,0.05,97.80000000000001,0)" xlink:href="#aa"/><use transform="matrix(0.05,0,0,0.05,109.80000000000001,0)" xlink:href="#ay"/><use transform="matrix(0.05,0,0,0.05,114.80000000000001,0)" xlink:href="#aI"/><use transform="matrix(0.05,0,0,0.05,126.80000000000001,0)" xlink:href="#aE"/><use transform="matrix(0.05,0,0,0.05,137.75,0)" xlink:href="#aG"/><use transform="matrix(0.05,0,0,0.05,150.7,0)" xlink:href="#ay"/><use transform="matrix(0.05,0,0,0.05,155.7,0)" xlink:href="#X"/><use transform="matrix(0.05,0,0,0.05,168.64999999999998,0)" xlink:href="#aJ"/><use transform="matrix(0.05,0,0,0.05,179.29999999999998,0)" xlink:href="#aE"/><use transform="matrix(0.05,0,0,0.05,190.24999999999997,0)" xlink:href="#aa"/><use transform="matrix(0.05,0,0,0.05,202.24999999999997,0)" xlink:href="#az"/><use transform="matrix(0.05,0,0,0.05,216.24999999999997,0)" xlink:href="#az"/><use transform="matrix(0.05,0,0,0.05,230.24999999999997,0)" xlink:href="#aF"/><use transform="matrix(0.05,0,0,0.05,242.24999999999997,0)" xlink:href="#aE"/></g><linearGradient gradientUnits="userSpaceOnUse" id="u" x1="-1640" y1="-109.87" x2="-1520" y2="-229.87"><stop offset="0%" stop-color="#4d27a8"/><stop offset="100%" stop-color="#a166ff"/></linearGradient><g id="v"><use transform="matrix(0.05,0,0,0.05,0,0)" xlink:href="#aD"/><use transform="matrix(0.05,0,0,0.05,12,0)" xlink:href="#ak"/><use transform="matrix(0.05,0,0,0.05,22,0)" xlink:href="#au"/><use transform="matrix(0.05,0,0,0.05,27.950000000000003,0)" xlink:href="#aw"/><use transform="matrix(0.05,0,0,0.05,32.95,0)" xlink:href="#af"/><use transform="matrix(0.05,0,0,0.05,42.95,0)" xlink:href="#au"/><use transform="matrix(0.05,0,0,0.05,48.900000000000006,0)" xlink:href="#an"/><use transform="matrix(0.05,0,0,0.05,63.85,0)" xlink:href="#ab"/><use transform="matrix(0.05,0,0,0.05,73.85000000000001,0)" xlink:href="#ag"/><use transform="matrix(0.05,0,0,0.05,83.85000000000001,0)" xlink:href="#am"/><use transform="matrix(0.05,0,0,0.05,92.85000000000001,0)" xlink:href="#ak"/></g><g id="w"><use transform="matrix(0.05,0,0,0.05,0,0)" xlink:href="#ai"/><use transform="matrix(0.05,0,0,0.05,14.950000000000001,0)" xlink:href="#ak"/><use transform="matrix(0.05,0,0,0.05,24.950000000000003,0)" xlink:href="#ac"/><use transform="matrix(0.05,0,0,0.05,29.950000000000003,0)" xlink:href="#au"/><use transform="matrix(0.05,0,0,0.05,35.900000000000006,0)" xlink:href="#al"/><use transform="matrix(0.05,0,0,0.05,39.85000000000001,0)" xlink:href="#am"/><use transform="matrix(0.05,0,0,0.05,48.85000000000001,0)" xlink:href="#ar"/></g><g id="x"><use transform="matrix(0.05,0,0,0.05,0,0)" xlink:href="#ad"/><use transform="matrix(0.05,0,0,0.05,5.95,0)" xlink:href="#ai"/><use transform="matrix(0.05,0,0,0.05,20.900000000000002,0)" xlink:href="#aF"/><use transform="matrix(0.05,0,0,0.05,32.900000000000006,0)" xlink:href="#aI"/><use transform="matrix(0.05,0,0,0.05,44.900000000000006,0)" xlink:href="#ay"/></g><g id="y"><use transform="matrix(0.05,0,0,0.05,0,0)" xlink:href="#aG"/><use transform="matrix(0.034999999999999996,0,0,0.034999999999999996,12.950000000000001,-5.039999999999999)" xlink:href="#Y"/><use transform="matrix(0.05,0,0,0.05,19.95,0)" xlink:href="#as"/></g><linearGradient gradientUnits="userSpaceOnUse" id="z" x1="-3238.99" y1="250.13" x2="-3118.99" y2="130.13"><stop offset="0%" stop-color="#4d27a8"/><stop offset="100%" stop-color="#a166ff"/></linearGradient><path fill="#3a414a" d="M206 0h-36l-40-164L89 0H53L-1-190h32L70-26l43-164h34l41 164 42-164h31" id="aK"/><g id="A"><use transform="matrix(0.05,0,0,0.05,0,0)" xlink:href="#ae"/><use transform="matrix(0.05,0,0,0.05,12.950000000000001,0)" xlink:href="#ak"/><use transform="matrix(0.05,0,0,0.05,22.950000000000003,0)" xlink:href="#aK"/></g><g id="B"><use transform="matrix(0.05,0,0,0.05,0,0)" xlink:href="#at"/><use transform="matrix(0.05,0,0,0.05,10.950000000000001,0)" xlink:href="#af"/><use transform="matrix(0.05,0,0,0.05,20.950000000000003,0)" xlink:href="#au"/><use transform="matrix(0.05,0,0,0.05,26.900000000000002,0)" xlink:href="#an"/><use transform="matrix(0.05,0,0,0.05,41.85,0)" xlink:href="#ap"/><use transform="matrix(0.05,0,0,0.05,51.85,0)" xlink:href="#ax"/><use transform="matrix(0.05,0,0,0.05,55.800000000000004,0)" xlink:href="#ab"/></g><linearGradient gradientUnits="userSpaceOnUse" id="C" x1="-2918.99" y1="250.13" x2="-2798.99" y2="130.13"><stop offset="0%" stop-color="#4d27a8"/><stop offset="100%" stop-color="#a166ff"/></linearGradient><g id="D"><use transform="matrix(0.05,0,0,0.05,0,0)" xlink:href="#at"/><use transform="matrix(0.05,0,0,0.05,10.950000000000001,0)" xlink:href="#af"/><use transform="matrix(0.05,0,0,0.05,20.950000000000003,0)" xlink:href="#au"/><use transform="matrix(0.05,0,0,0.05,26.900000000000002,0)" xlink:href="#an"/><use transform="matrix(0.05,0,0,0.05,41.85,0)" xlink:href="#ap"/><use transform="matrix(0.05,0,0,0.05,51.85,0)" xlink:href="#ax"/><use transform="matrix(0.05,0,0,0.05,55.800000000000004,0)" xlink:href="#ab"/></g><linearGradient gradientUnits="userSpaceOnUse" id="E" x1="-2598.99" y1="250.13" x2="-2478.99" y2="130.13"><stop offset="0%" stop-color="#055f4e"/><stop offset="100%" stop-color="#56c0a7"/></linearGradient><g id="F"><use transform="matrix(0.05,0,0,0.05,0,0)" xlink:href="#ai"/><use transform="matrix(0.05,0,0,0.05,14.950000000000001,0)" xlink:href="#af"/><use transform="matrix(0.05,0,0,0.05,24.950000000000003,0)" xlink:href="#aq"/><use transform="matrix(0.05,0,0,0.05,34.95,0)" xlink:href="#ak"/><use transform="matrix(0.05,0,0,0.05,44.95,0)" xlink:href="#ax"/></g><g id="G"><use transform="matrix(0.05,0,0,0.05,0,0)" xlink:href="#aD"/><use transform="matrix(0.05,0,0,0.05,12,0)" xlink:href="#au"/><use transform="matrix(0.05,0,0,0.05,17.95,0)" xlink:href="#ak"/><use transform="matrix(0.05,0,0,0.05,27.950000000000003,0)" xlink:href="#aq"/><use transform="matrix(0.05,0,0,0.05,37.95,0)" xlink:href="#al"/><use transform="matrix(0.05,0,0,0.05,41.900000000000006,0)" xlink:href="#am"/><use transform="matrix(0.05,0,0,0.05,50.900000000000006,0)" xlink:href="#ac"/><use transform="matrix(0.05,0,0,0.05,55.900000000000006,0)" xlink:href="#al"/><use transform="matrix(0.05,0,0,0.05,59.85,0)" xlink:href="#af"/><use transform="matrix(0.05,0,0,0.05,69.85000000000001,0)" xlink:href="#ag"/></g><linearGradient gradientUnits="userSpaceOnUse" id="H" x1="-2278.99" y1="250.13" x2="-2158.99" y2="130.13"><stop offset="0%" stop-color="#4d27a8"/><stop offset="100%" stop-color="#a166ff"/></linearGradient><g id="I"><use transform="matrix(0.05,0,0,0.05,0,0)" xlink:href="#aD"/><use transform="matrix(0.05,0,0,0.05,12,0)" xlink:href="#au"/><use transform="matrix(0.05,0,0,0.05,17.95,0)" xlink:href="#ak"/><use transform="matrix(0.05,0,0,0.05,27.950000000000003,0)" xlink:href="#aq"/><use transform="matrix(0.05,0,0,0.05,37.95,0)" xlink:href="#al"/><use transform="matrix(0.05,0,0,0.05,41.900000000000006,0)" xlink:href="#am"/><use transform="matrix(0.05,0,0,0.05,50.900000000000006,0)" xlink:href="#ac"/><use transform="matrix(0.05,0,0,0.05,55.900000000000006,0)" xlink:href="#ak"/><use transform="matrix(0.05,0,0,0.05,65.9,0)" xlink:href="#aq"/></g><g id="J"><use transform="matrix(0.05,0,0,0.05,0,0)" xlink:href="#aC"/><use transform="matrix(0.05,0,0,0.05,12.950000000000001,0)" xlink:href="#aw"/><use transform="matrix(0.05,0,0,0.05,17.950000000000003,0)" xlink:href="#af"/><use transform="matrix(0.05,0,0,0.05,27.950000000000003,0)" xlink:href="#au"/><use transform="matrix(0.05,0,0,0.05,33.900000000000006,0)" xlink:href="#an"/></g><path fill="#3a414a" d="M137 0h-34L2-248h35l83 218 83-218h36" id="aL"/><g id="K"><use transform="matrix(0.05,0,0,0.05,0,0)" xlink:href="#aL"/><use transform="matrix(0.05,0,0,0.05,10.65,0)" xlink:href="#ab"/><use transform="matrix(0.05,0,0,0.05,20.65,0)" xlink:href="#ax"/><use transform="matrix(0.05,0,0,0.05,24.599999999999998,0)" xlink:href="#ap"/><use transform="matrix(0.05,0,0,0.05,34.599999999999994,0)" xlink:href="#ak"/></g><path fill="#fff" d="M63-220v92h138v28H63V0H30v-248h175v28H63" id="aM"/><path fill="#fff" d="M100-194c62-1 85 37 85 99 1 63-27 99-86 99S16-35 15-95c0-66 28-99 85-99zM99-20c44 1 53-31 53-75 0-43-8-75-51-75s-53 32-53 75 10 74 51 75" id="aN"/><path fill="#fff" d="M114-163C36-179 61-72 57 0H25l-1-190h30c1 12-1 29 2 39 6-27 23-49 58-41v29" id="aO"/><path fill="#fff" d="M210-169c-67 3-38 105-44 169h-31v-121c0-29-5-50-35-48C34-165 62-65 56 0H25l-1-190h30c1 10-1 24 2 32 10-44 99-50 107 0 11-21 27-35 58-36 85-2 47 119 55 194h-31v-121c0-29-5-49-35-48" id="aP"/><path fill="#fff" d="M141-36C126-15 110 5 73 4 37 3 15-17 15-53c-1-64 63-63 125-63 3-35-9-54-41-54-24 1-41 7-42 31l-33-3c5-37 33-52 76-52 45 0 72 20 72 64v82c-1 20 7 32 28 27v20c-31 9-61-2-59-35zM48-53c0 20 12 33 32 33 41-3 63-29 60-74-43 2-92-5-92 41" id="aQ"/><path fill="#fff" d="M59-47c-2 24 18 29 38 22v24C64 9 27 4 27-40v-127H5v-23h24l9-43h21v43h35v23H59v120" id="aR"/><path fill="#fff" d="M24-231v-30h32v30H24zM24 0v-190h32V0H24" id="aS"/><path fill="#fff" d="M117-194c89-4 53 116 60 194h-32v-121c0-31-8-49-39-48C34-167 62-67 57 0H25l-1-190h30c1 10-1 24 2 32 11-22 29-35 61-36" id="aT"/><g id="L"><use transform="matrix(0.09938271604938263,0,0,0.09938271604938263,0,0)" xlink:href="#aM"/><use transform="matrix(0.09938271604938263,0,0,0.09938271604938263,21.764814814814798,0)" xlink:href="#aN"/><use transform="matrix(0.09938271604938263,0,0,0.09938271604938263,41.64135802469133,0)" xlink:href="#aO"/><use transform="matrix(0.09938271604938263,0,0,0.09938271604938263,53.467901234567854,0)" xlink:href="#aP"/><use transform="matrix(0.09938271604938263,0,0,0.09938271604938263,83.18333333333327,0)" xlink:href="#aQ"/><use transform="matrix(0.09938271604938263,0,0,0.09938271604938263,103.0598765432098,0)" xlink:href="#aR"/><use transform="matrix(0.09938271604938263,0,0,0.09938271604938263,112.99814814814805,0)" xlink:href="#aS"/><use transform="matrix(0.09938271604938263,0,0,0.09938271604938263,120.84938271604928,0)" xlink:href="#aN"/><use transform="matrix(0.09938271604938263,0,0,0.09938271604938263,140.72592592592582,0)" xlink:href="#aT"/></g><path fill="#fff" d="M30 0v-248h187v28H63v79h144v27H63v87h162V0H30" id="aU"/><path fill="#fff" d="M100-194c63 0 86 42 84 106H49c0 40 14 67 53 68 26 1 43-12 49-29l28 8c-11 28-37 45-77 45C44 4 14-33 15-96c1-61 26-98 85-98zm52 81c6-60-76-77-97-28-3 7-6 17-6 28h103" id="aV"/><path fill="#fff" d="M177-190C167-65 218 103 67 71c-23-6-38-20-44-43l32-5c15 47 100 32 89-28v-30C133-14 115 1 83 1 29 1 15-40 15-95c0-56 16-97 71-98 29-1 48 16 59 35 1-10 0-23 2-32h30zM94-22c36 0 50-32 50-73 0-42-14-75-50-75-39 0-46 34-46 75s6 73 46 73" id="aW"/><path fill="#fff" d="M179-190L93 31C79 59 56 82 12 73V49c39 6 53-20 64-50L1-190h34L92-34l54-156h33" id="aX"/><g id="M"><use transform="matrix(0.09938271604938263,0,0,0.09938271604938263,0,0)" xlink:href="#aU"/><use transform="matrix(0.09938271604938263,0,0,0.09938271604938263,23.851851851851833,0)" xlink:href="#aT"/><use transform="matrix(0.09938271604938263,0,0,0.09938271604938263,43.728395061728364,0)" xlink:href="#aV"/><use transform="matrix(0.09938271604938263,0,0,0.09938271604938263,63.604938271604894,0)" xlink:href="#aO"/><use transform="matrix(0.09938271604938263,0,0,0.09938271604938263,75.43148148148143,0)" xlink:href="#aW"/><use transform="matrix(0.09938271604938263,0,0,0.09938271604938263,95.30802469135796,0)" xlink:href="#aX"/></g><path d="M127-220V0H93v-220H8v-28h204v28h-85" id="aY"/><path d="M114-163C36-179 61-72 57 0H25l-1-190h30c1 12-1 29 2 39 6-27 23-49 58-41v29" id="aZ"/><path d="M141-36C126-15 110 5 73 4 37 3 15-17 15-53c-1-64 63-63 125-63 3-35-9-54-41-54-24 1-41 7-42 31l-33-3c5-37 33-52 76-52 45 0 72 20 72 64v82c-1 20 7 32 28 27v20c-31 9-61-2-59-35zM48-53c0 20 12 33 32 33 41-3 63-29 60-74-43 2-92-5-92 41" id="ba"/><path d="M24-231v-30h32v30H24zM24 0v-190h32V0H24" id="bb"/><path d="M117-194c89-4 53 116 60 194h-32v-121c0-31-8-49-39-48C34-167 62-67 57 0H25l-1-190h30c1 10-1 24 2 32 11-22 29-35 61-36" id="bc"/><path d="M177-190C167-65 218 103 67 71c-23-6-38-20-44-43l32-5c15 47 100 32 89-28v-30C133-14 115 1 83 1 29 1 15-40 15-95c0-56 16-97 71-98 29-1 48 16 59 35 1-10 0-23 2-32h30zM94-22c36 0 50-32 50-73 0-42-14-75-50-75-39 0-46 34-46 75s6 73 46 73" id="bd"/><g id="N"><use transform="matrix(0.07469135802469135,0,0,0.07469135802469135,0,0)" xlink:href="#aY"/><use transform="matrix(0.07469135802469135,0,0,0.07469135802469135,15.386419753086416,0)" xlink:href="#aZ"/><use transform="matrix(0.07469135802469135,0,0,0.07469135802469135,24.274691358024686,0)" xlink:href="#ba"/><use transform="matrix(0.07469135802469135,0,0,0.07469135802469135,39.212962962962955,0)" xlink:href="#bb"/><use transform="matrix(0.07469135802469135,0,0,0.07469135802469135,45.11358024691357,0)" xlink:href="#bc"/><use transform="matrix(0.07469135802469135,0,0,0.07469135802469135,60.051851851851836,0)" xlink:href="#bb"/><use transform="matrix(0.07469135802469135,0,0,0.07469135802469135,65.95246913580246,0)" xlink:href="#bc"/><use transform="matrix(0.07469135802469135,0,0,0.07469135802469135,80.89074074074072,0)" xlink:href="#bd"/></g><path d="M30-248c87 1 191-15 191 75 0 78-77 80-158 76V0H30v-248zm33 125c57 0 124 11 124-50 0-59-68-47-124-48v98" id="be"/><path d="M106-169C34-169 62-67 57 0H25v-261h32l-1 103c12-21 28-36 61-36 89 0 53 116 60 194h-32v-121c2-32-8-49-39-48" id="bf"/><path d="M135-143c-3-34-86-38-87 0 15 53 115 12 119 90S17 21 10-45l28-5c4 36 97 45 98 0-10-56-113-15-118-90-4-57 82-63 122-42 12 7 21 19 24 35" id="bg"/><path d="M100-194c63 0 86 42 84 106H49c0 40 14 67 53 68 26 1 43-12 49-29l28 8c-11 28-37 45-77 45C44 4 14-33 15-96c1-61 26-98 85-98zm52 81c6-60-76-77-97-28-3 7-6 17-6 28h103" id="bh"/><g id="O"><use transform="matrix(0.07469135802469135,0,0,0.07469135802469135,0,0)" xlink:href="#be"/><use transform="matrix(0.07469135802469135,0,0,0.07469135802469135,17.925925925925924,0)" xlink:href="#bf"/><use transform="matrix(0.07469135802469135,0,0,0.07469135802469135,32.86419753086419,0)" xlink:href="#ba"/><use transform="matrix(0.07469135802469135,0,0,0.07469135802469135,47.802469135802454,0)" xlink:href="#bg"/><use transform="matrix(0.07469135802469135,0,0,0.07469135802469135,61.2469135802469,0)" xlink:href="#bh"/></g><path fill="#282c33" d="M30-248c87 1 191-15 191 75 0 78-77 80-158 76V0H30v-248zm33 125c57 0 124 11 124-50 0-59-68-47-124-48v98" id="bi"/><path fill="#282c33" d="M114-163C36-179 61-72 57 0H25l-1-190h30c1 12-1 29 2 39 6-27 23-49 58-41v29" id="bj"/><path fill="#282c33" d="M100-194c63 0 86 42 84 106H49c0 40 14 67 53 68 26 1 43-12 49-29l28 8c-11 28-37 45-77 45C44 4 14-33 15-96c1-61 26-98 85-98zm52 81c6-60-76-77-97-28-3 7-6 17-6 28h103" id="bk"/><path fill="#282c33" d="M85-194c31 0 48 13 60 33l-1-100h32l1 261h-30c-2-10 0-23-3-31C134-8 116 4 85 4 32 4 16-35 15-94c0-66 23-100 70-100zm9 24c-40 0-46 34-46 75 0 40 6 74 45 74 42 0 51-32 51-76 0-42-9-74-50-73" id="bl"/><path fill="#282c33" d="M24-231v-30h32v30H24zM24 0v-190h32V0H24" id="bm"/><path fill="#282c33" d="M96-169c-40 0-48 33-48 73s9 75 48 75c24 0 41-14 43-38l32 2c-6 37-31 61-74 61-59 0-76-41-82-99-10-93 101-131 147-64 4 7 5 14 7 22l-32 3c-4-21-16-35-41-35" id="bn"/><path fill="#282c33" d="M59-47c-2 24 18 29 38 22v24C64 9 27 4 27-40v-127H5v-23h24l9-43h21v43h35v23H59v120" id="bo"/><path fill="#282c33" d="M100-194c62-1 85 37 85 99 1 63-27 99-86 99S16-35 15-95c0-66 28-99 85-99zM99-20c44 1 53-31 53-75 0-43-8-75-51-75s-53 32-53 75 10 74 51 75" id="bp"/><path fill="#282c33" d="M117-194c89-4 53 116 60 194h-32v-121c0-31-8-49-39-48C34-167 62-67 57 0H25l-1-190h30c1 10-1 24 2 32 11-22 29-35 61-36" id="bq"/><g id="P"><use transform="matrix(0.07469135802469135,0,0,0.07469135802469135,0,0)" xlink:href="#bi"/><use transform="matrix(0.07469135802469135,0,0,0.07469135802469135,17.925925925925924,0)" xlink:href="#bj"/><use transform="matrix(0.07469135802469135,0,0,0.07469135802469135,26.81419753086419,0)" xlink:href="#bk"/><use transform="matrix(0.07469135802469135,0,0,0.07469135802469135,41.75246913580246,0)" xlink:href="#bl"/><use transform="matrix(0.07469135802469135,0,0,0.07469135802469135,56.69074074074072,0)" xlink:href="#bm"/><use transform="matrix(0.07469135802469135,0,0,0.07469135802469135,62.59135802469134,0)" xlink:href="#bn"/><use transform="matrix(0.07469135802469135,0,0,0.07469135802469135,76.03580246913577,0)" xlink:href="#bo"/><use transform="matrix(0.07469135802469135,0,0,0.07469135802469135,83.50493827160491,0)" xlink:href="#bm"/><use transform="matrix(0.07469135802469135,0,0,0.07469135802469135,89.40555555555554,0)" xlink:href="#bp"/><use transform="matrix(0.07469135802469135,0,0,0.07469135802469135,104.34382716049382,0)" xlink:href="#bq"/></g><path fill="#282c33" d="M106-169C34-169 62-67 57 0H25v-261h32l-1 103c12-21 28-36 61-36 89 0 53 116 60 194h-32v-121c2-32-8-49-39-48" id="br"/><path fill="#282c33" d="M141-36C126-15 110 5 73 4 37 3 15-17 15-53c-1-64 63-63 125-63 3-35-9-54-41-54-24 1-41 7-42 31l-33-3c5-37 33-52 76-52 45 0 72 20 72 64v82c-1 20 7 32 28 27v20c-31 9-61-2-59-35zM48-53c0 20 12 33 32 33 41-3 63-29 60-74-43 2-92-5-92 41" id="bs"/><path fill="#282c33" d="M135-143c-3-34-86-38-87 0 15 53 115 12 119 90S17 21 10-45l28-5c4 36 97 45 98 0-10-56-113-15-118-90-4-57 82-63 122-42 12 7 21 19 24 35" id="bt"/><g id="Q"><use transform="matrix(0.07469135802469135,0,0,0.07469135802469135,0,0)" xlink:href="#bi"/><use transform="matrix(0.07469135802469135,0,0,0.07469135802469135,17.925925925925924,0)" xlink:href="#br"/><use transform="matrix(0.07469135802469135,0,0,0.07469135802469135,32.86419753086419,0)" xlink:href="#bs"/><use transform="matrix(0.07469135802469135,0,0,0.07469135802469135,47.802469135802454,0)" xlink:href="#bt"/><use transform="matrix(0.07469135802469135,0,0,0.07469135802469135,61.2469135802469,0)" xlink:href="#bk"/></g><linearGradient gradientUnits="userSpaceOnUse" id="R" x1="-1958.99" y1="-109.87" x2="-1838.99" y2="-229.87"><stop offset="0%" stop-color="#055f4e"/><stop offset="100%" stop-color="#56c0a7"/></linearGradient><g id="S"><use transform="matrix(0.05,0,0,0.05,0,0)" xlink:href="#at"/><use transform="matrix(0.05,0,0,0.05,10.950000000000001,0)" xlink:href="#al"/><use transform="matrix(0.05,0,0,0.05,14.9,0)" xlink:href="#ag"/><use transform="matrix(0.05,0,0,0.05,24.900000000000002,0)" xlink:href="#ab"/><use transform="matrix(0.05,0,0,0.05,34.900000000000006,0)" xlink:href="#ax"/></g><g id="T"><use transform="matrix(0.05,0,0,0.05,0,0)" xlink:href="#aI"/><use transform="matrix(0.05,0,0,0.05,12,0)" xlink:href="#ar"/><use transform="matrix(0.05,0,0,0.05,21,0)" xlink:href="#ac"/><use transform="matrix(0.05,0,0,0.05,26,0)" xlink:href="#al"/><use transform="matrix(0.05,0,0,0.05,29.950000000000003,0)" xlink:href="#an"/><use transform="matrix(0.05,0,0,0.05,44.9,0)" xlink:href="#ab"/><use transform="matrix(0.05,0,0,0.05,54.900000000000006,0)" xlink:href="#ac"/><use transform="matrix(0.05,0,0,0.05,59.900000000000006,0)" xlink:href="#af"/><use transform="matrix(0.05,0,0,0.05,69.9,0)" xlink:href="#au"/></g><use transform="matrix(0.05,0,0,0.05,0,0)" xlink:href="#ad" id="U"/><path fill="#3a414a" d="M33 0v-248h34V0H33" id="bu"/><g id="V"><use transform="matrix(0.05,0,0,0.05,0,0)" xlink:href="#aG"/><use transform="matrix(0.05,0,0,0.05,12.950000000000001,0)" xlink:href="#bu"/><use transform="matrix(0.05,0,0,0.05,17.950000000000003,0)" xlink:href="#Z"/><use transform="matrix(0.05,0,0,0.05,30.900000000000006,0)" xlink:href="#aH"/><use transform="matrix(0.05,0,0,0.05,44.900000000000006,0)" xlink:href="#aI"/></g><use transform="matrix(0.05,0,0,0.05,0,0)" xlink:href="#as" id="W"/></defs></g></svg>