<svg xmlns="http://www.w3.org/2000/svg" xmlns:xlink="http://www.w3.org/1999/xlink" xmlns:lucid="lucid" width="1916" height="774.67"><g transform="translate(3000 1234.6666666666667)" lucid:page-tab-id="0_0"><path d="M-5420.6-1258.84H64v2581.68h-5484.6z" fill="#fff"/><path d="M-3000-1174a6 6 0 0 1 6-6h1888a6 6 0 0 1 6 6v708a6 6 0 0 1-6 6h-1888a6 6 0 0 1-6-6z" fill="#fff"/><path d="M-2921.1-1082.07l22.28 56.9h66.82l-89.1-56.9z" stroke="#000" stroke-opacity="0" fill="#aecbfa"/><path d="M-2832-1025.17h-66.82l-22.27 56.9 89.1-56.9zM-2960-968.28l22.3-9.5 16.6-47.4h-22.2l-16.7 56.9z" stroke="#000" stroke-opacity="0" fill="#4285f4"/><path d="M-2960-1082.07l16.7 56.9h22.2l-16.6-47.45-22.3-9.45z" stroke="#000" stroke-opacity="0" fill="#aecbfa"/><path d="M-2947.2-1070.7v91.04h44.8v-91.03z" stroke="#000" stroke-opacity="0" fill-opacity="0"/><use xlink:href="#a" transform="matrix(1,0,0,1,-2960,-963.28) translate(42.68240740740741 16.177777777777777)"/><path d="M-2426.26-1004.8l4.73-8.2h22.58l6.95-12.17-13.96-24.36h-19.6l-6.76-12.17h-7.6v-8.2h12.4l6.77 12.18h10.12l-13.96-24.35h-27.3v32.54h11.08l4.67 8.08h-15.75v16.28h14.43l6.7-12.18h17.98l4.63 8.2h-17.9l-6.72 12.05h-19.1v28.57h21.74l-4.6 8.07h-17.14v12.18h27.3l20.98-36.53h-13.36l-4.67 8.07h-18.27v-8.08h13.66z" stroke="#000" stroke-opacity="0" fill="#4285f4"/><path d="M-2485.72-1004.8l-4.68-8.2h-22.64l-6.96-12.17 13.93-24.36h19.7l6.77-12.17h7.63v-8.2h-12.43l-6.78 12.18h-10.2l14.04-24.35h27.37v32.54h-11.16l-4.63 8.08h15.8v16.28h-14.54l-6.72-12.18h-18l-4.57 8.2h17.9l6.72 12.05h19.2v28.57h-21.84l4.62 8.07h17.23v12.18h-27.37l-21-36.53h13.37l4.7 8.07h18.3v-8.08h-13.75z" stroke="#000" stroke-opacity="0" fill="#669df6"/><path d="M-2487.87-1081.84l-32.13 54.05 37.25 59.3 58.75.22 32-53.94-37.38-59.85z" fill-opacity="0"/><use xlink:href="#b" transform="matrix(1,0,0,1,-2520,-963.28) translate(-8.912345679012304 16.177777777777774)"/><use xlink:href="#c" transform="matrix(1,0,0,1,-2520,-963.28) translate(44.05864197530865 40.44444444444443)"/><use xlink:href="#d" transform="matrix(1,0,0,1,-2520,-963.28) translate(61.47222222222223 40.44444444444443)"/><path d="M-1970.75-539.43h-4.57v-9.83h4.57c2.7-.06 4.88-2.26 4.92-4.92v-28.35c-.04-2.66-2.23-4.86-4.92-4.92h-23.65v-9.83h23.65c8.14 0 14.75 6.6 14.75 14.75v28.35c0 8.16-6.6 14.75-14.75 14.75zM-2022.94-539.57h-32.13v-9.84h32.13z" stroke="#000" stroke-opacity="0" fill="#4285f4"/><path d="M-2045.4-587.47h-23.78c-8.13 0-14.75-6.6-14.75-14.75v-28.35c0-8.16 6.62-14.75 14.75-14.75h6.6v9.83h-6.6c-2.7 0-4.9 2.2-4.9 4.93v28.35c0 2.66 2.2 4.86 4.9 4.92h23.77z" stroke="#000" stroke-opacity="0" fill="#669df6"/><path d="M-1985.18-635.48h-35.97v-9.84h35.97z" stroke="#000" stroke-opacity="0" fill="#4285f4"/><path d="M-2042.02-645.33v-9.84h-19.7c-4.1 0-7.4 3.28-7.43 7.36v14.77c0 4.1 3.3 7.42 7.43 7.42h19.7v-9.85h-17.28v-9.88z" stroke="#000" stroke-opacity="0" fill="#aecbfa"/><path d="M-2015-647.8v14.77c0 4.08-3.28 7.4-7.35 7.42h-19.67v-9.85h17.18v-9.88h-17.18v-9.84h19.67c4.05 0 7.34 3.28 7.34 7.36z" stroke="#000" stroke-opacity="0" fill="#669df6"/><path d="M-1972-624.42c-8.83 0-16-7.17-16-16s7.17-16 16-16 16 7.17 16 16c-.03 8.83-7.17 15.97-16 16zm0-22.18c-3.4 0-6.18 2.8-6.18 6.18 0 3.4 2.8 6.18 6.18 6.18 3.4 0 6.18-2.8 6.18-6.18 0-3.4-2.8-6.18-6.18-6.18z" stroke="#000" stroke-opacity="0" fill="#aecbfa"/><path d="M-2067.94-528.42c-8.83.03-16.03-7.1-16.06-15.94-.03-8.83 7.1-16.03 15.94-16.06 8.83-.03 16.03 7.1 16.06 15.94v.06c0 8.8-7.14 15.97-15.94 16zm0-22.18h-.06c-3.4 0-6.18 2.8-6.18 6.18 0 3.4 2.8 6.18 6.18 6.18 3.4 0 6.18-2.8 6.18-6.18 0-3.4-2.72-6.14-6.12-6.18z" stroke="#000" stroke-opacity="0" fill="#9aa0a6"/><path d="M-2067.94-528.42c-8.83.03-16.03-7.1-16.06-15.94-.03-8.83 7.1-16.03 15.94-16.06 8.83-.03 16.03 7.1 16.06 15.94v.06c0 8.8-7.14 15.97-15.94 16zm0-22.18h-.06c-3.4 0-6.18 2.8-6.18 6.18 0 3.4 2.8 6.18 6.18 6.18 3.4 0 6.18-2.8 6.18-6.18 0-3.4-2.72-6.14-6.12-6.18zM-1997.98-549.3v-9.84h-19.67c-4.07.03-7.34 3.34-7.34 7.42v14.8c0 4.07 3.3 7.35 7.35 7.35h19.67v-9.85h-17.18v-9.87z" stroke="#000" stroke-opacity="0" fill="#aecbfa"/><path d="M-1970.85-551.72v14.8c-.03 4.07-3.34 7.35-7.43 7.35h-19.7v-9.85h17.34v-9.87h-17.34v-9.84h19.7c4.1.03 7.4 3.34 7.43 7.42z" stroke="#000" stroke-opacity="0" fill="#669df6"/><path d="M-2019.87-597.3v-9.84h-19.7c-4.1 0-7.4 3.28-7.44 7.36v14.8c0 4.1 3.3 7.4 7.43 7.4h19.7v-9.84h-17.3v-9.87z" stroke="#000" stroke-opacity="0" fill="#aecbfa"/><path d="M-1993-599.78v14.8c0 4.07-3.26 7.38-7.34 7.4H-2020v-9.84h17.18v-9.87H-2020v-9.84h19.66c4.05 0 7.35 3.28 7.35 7.36z" stroke="#000" stroke-opacity="0" fill="#669df6"/><path d="M-2084-656.42v128h128v-128z" stroke="#000" stroke-opacity="0" fill-opacity="0"/><use xlink:href="#e" transform="matrix(1,0,0,1,-2084,-523.42) translate(1.7604938271605022 16.177777777777777)"/><use xlink:href="#f" transform="matrix(1,0,0,1,-2084,-523.42) translate(77.98703703703704 16.177777777777777)"/><use xlink:href="#g" transform="matrix(1,0,0,1,-2084,-523.42) translate(30.38055555555556 40.44444444444444)"/><use xlink:href="#h" transform="matrix(1,0,0,1,-2084,-523.42) translate(47.23240740740741 40.44444444444444)"/><path d="M-2164-995.36l32-54.2h10.65l10.6-16.3-10.74-16.2h-26.5l-32 54.18 16 32.52z" stroke="#000" stroke-opacity="0" fill="#4285f4"/><path d="M-2100.06-1065.8l-10.7 16.27h21.38l10.63-16.27-10.63-16.27h-21.37l10.7 16.27z" stroke="#000" stroke-opacity="0" fill="#669df6" fill-opacity=".8"/><path d="M-2068-1055l-32 54.2h-10.65l-10.6 16.3 10.74 16.22h26.5l32-54.2-16-32.5z" stroke="#000" stroke-opacity="0" fill="#aecbfa" fill-opacity=".6"/><path d="M-2121.38-968.28l-10.68-16.27 10.68-16.27h-21.37l-10.63 16.27 10.63 16.27h21.37z" stroke="#000" stroke-opacity="0" fill="#669df6" fill-opacity=".8"/><path d="M-2147.87-1081.84l-32.13 54.05 37.25 59.3 58.75.22 32-53.94-37.38-59.85z" fill-opacity="0"/><use xlink:href="#i" transform="matrix(1,0,0,1,-2180,-963.28) translate(-4.418518518518525 16.177777777777777)"/><use xlink:href="#j" transform="matrix(1,0,0,1,-2180,-963.28) translate(35.63271604938272 40.44444444444444)"/><use xlink:href="#k" transform="matrix(1,0,0,1,-2180,-963.28) translate(53.046296296296305 40.44444444444444)"/><path d="M-1756-729.04l19.2 13.86v-68.27l-19.2 13.8v40.6z" stroke="#000" stroke-opacity="0" fill="#669df6"/><path d="M-1756-760.7l19.2-11.37v-11.38l-19.2 22.76zM-1736.8-715.18v-11.38l-19.2-11.38 19.2 22.76z" stroke="#000" stroke-opacity="0" fill="#4285f4"/><path d="M-1717.6-703.8l-38.4-34.14v22.76l25.6 22.76 12.8-11.38zM-1730.5-806.2l-25.5 22.7.08 22.8 38.2-34.13-12.8-11.38z" stroke="#000" stroke-opacity="0" fill="#aecbfa"/><path d="M-1628-769.6l-19.2-13.85v68.27l19.2-13.8v-40.6z" stroke="#000" stroke-opacity="0" fill="#669df6"/><path d="M-1628-737.94l-19.2 11.38v11.38l19.2-22.76zM-1647.2-783.45v11.38l19.2 11.38-19.2-22.75z" stroke="#000" stroke-opacity="0" fill="#4285f4"/><path d="M-1666.4-794.83l38.4 34.14v-22.75l-25.6-22.76-12.8 11.37zM-1653.5-692.42l25.5-22.7-.08-22.82-38.2 34.14 12.8 11.38zM-1711.2-749.32c0 3.15-2.87 5.7-6.4 5.7-3.53 0-6.4-2.55-6.4-5.7 0-3.14 2.87-5.68 6.4-5.68 3.53 0 6.4 2.54 6.4 5.68zM-1685.6-749.32c0 3.15-2.87 5.7-6.4 5.7-3.53 0-6.4-2.55-6.4-5.7 0-3.14 2.87-5.68 6.4-5.68 3.53 0 6.4 2.54 6.4 5.68zM-1660.13-749.32c0 3.15-2.86 5.7-6.4 5.7-3.53 0-6.4-2.55-6.4-5.7 0-3.14 2.87-5.68 6.4-5.68 3.54 0 6.4 2.54 6.4 5.68z" stroke="#000" stroke-opacity="0" fill="#aecbfa"/><path d="M-1736.8-800.52v102.4h89.6v-102.4z" stroke="#000" stroke-opacity="0" fill-opacity="0"/><use xlink:href="#e" transform="matrix(1,0,0,1,-1756,-687.4200000000001) translate(1.7604938271605022 16.177777777777777)"/><use xlink:href="#f" transform="matrix(1,0,0,1,-1756,-687.4200000000001) translate(77.98703703703704 16.177777777777777)"/><use xlink:href="#l" transform="matrix(1,0,0,1,-1756,-687.4200000000001) translate(13.023148148148152 40.44444444444444)"/><use xlink:href="#m" transform="matrix(1,0,0,1,-1756,-687.4200000000001) translate(29.875 40.44444444444444)"/><path d="M-1695.2-1042.24h38.4v34.13h-38.4v-34.14z" stroke="#000" stroke-opacity="0" fill="#aecbfa"/><path d="M-1682.4-1082.07h12.8v22.76h-12.8v-22.77zM-1708-1082.07h12.8v22.76h-12.8v-22.77zM-1656.8-1082.07h12.8v22.76h-12.8v-22.77z" stroke="#000" stroke-opacity="0" fill="#669df6"/><path d="M-1682.4-991.04h12.8v22.76h-12.8v-22.76zM-1708-991.04h12.8v22.76h-12.8v-22.76zM-1656.8-991.04h12.8v22.76h-12.8v-22.76z" stroke="#000" stroke-opacity="0" fill="#4285f4"/><path d="M-1637.6-1019.5v-11.36h25.6v11.37h-25.6zM-1637.6-996.73v-11.38h25.6v11.37h-25.6zM-1637.6-1042.24v-11.38h25.6v11.38h-25.6z" stroke="#000" stroke-opacity="0" stroke-width="0" fill="#4285f4"/><path d="M-1740-1019.5v-11.36h25.6v11.37h-25.6zM-1740-996.73v-11.38h25.6v11.37h-25.6zM-1740-1042.24v-11.38h25.6v11.38h-25.6z" stroke="#000" stroke-opacity="0" stroke-width="0" fill="#669df6"/><path d="M-1720.8-1065v79.65h89.6V-1065zm76.8 68.26h-64v-56.87h64z" stroke="#000" stroke-opacity="0" fill="#aecbfa"/><path d="M-1695.2-1008.1h38.4l-19.2-17.07-19.2 17.06z" stroke="#000" stroke-opacity="0" fill="#669df6"/><path d="M-1676-1025.17l19.2 17.06v-34.14l-19.2 17.07z" stroke="#000" stroke-opacity="0" fill="#4285f4"/><use xlink:href="#e" transform="matrix(1,0,0,1,-1740,-963.28) translate(1.7604938271605022 16.177777777777777)"/><use xlink:href="#f" transform="matrix(1,0,0,1,-1740,-963.28) translate(77.98703703703704 16.177777777777777)"/><use xlink:href="#n" transform="matrix(1,0,0,1,-1740,-963.28) translate(28.16172839506173 40.44444444444444)"/><use xlink:href="#o" transform="matrix(1,0,0,1,-1740,-963.28) translate(45.01358024691358 40.44444444444444)"/><path d="M-1428-800.32h128v44.68h-128v-44.68z" stroke="#000" stroke-opacity="0" fill="#aecbfa"/><path d="M-1312.8-800.32h12.8v44.68h-12.8v-44.68z" stroke="#000" stroke-opacity="0" fill="#669df6"/><path d="M-1300-800.32h-12.8v44.68l12.8-44.68z" stroke="#000" stroke-opacity="0" fill="#4285f4"/><path d="M-1428-800.32h12.8v44.68h-12.8v-44.68z" stroke="#000" stroke-opacity="0" fill="#669df6"/><path d="M-1402.4-781.14h38.4v6.38h-38.4v-6.38zM-1335.2-787.57c6.4 0 9.6 3.2 9.6 9.6 0 6.38-3.2 9.58-9.6 9.58-6.4 0-9.6-3.2-9.6-9.58s3.2-9.6 9.6-9.6z" stroke="#000" stroke-opacity="0" fill="#fff"/><path d="M-1428-742.9h128v44.7h-128v-44.7z" stroke="#000" stroke-opacity="0" fill="#aecbfa"/><path d="M-1312.8-742.9h12.8v44.7h-12.8v-44.7z" stroke="#000" stroke-opacity="0" fill="#669df6"/><path d="M-1300-742.9h-12.8v44.7l12.8-44.7z" stroke="#000" stroke-opacity="0" fill="#4285f4"/><path d="M-1428-742.9h12.8v44.7h-12.8v-44.7z" stroke="#000" stroke-opacity="0" fill="#669df6"/><path d="M-1402.4-723.82h38.4v6.38h-38.4v-6.38zM-1335.2-730.14c6.4 0 9.6 3.2 9.6 9.6 0 6.38-3.2 9.58-9.6 9.58-6.4 0-9.6-3.2-9.6-9.6 0-6.38 3.2-9.58 9.6-9.58z" stroke="#000" stroke-opacity="0" fill="#fff"/><path d="M-1426.72-799.3v99.96h125.44v-99.95z" stroke="#000" stroke-opacity="0" fill-opacity="0"/><use xlink:href="#p" transform="matrix(1,0,0,1,-1428,-693.315) translate(46.0246913580247 16.177777777777777)"/><path d="M-2831.75-1025.17h296.43" stroke="#3a414a" stroke-width=".5" fill="none"/><path d="M-2831.74-1024.95h-.6l.34-.22-.35-.23h.6z" stroke="#3a414a" stroke-width=".05" fill="#3a414a"/><path d="M-2520.8-1025.17l-14.27 4.63v-9.27z" stroke="#3a414a" stroke-width=".5" fill="#3a414a"/><use xlink:href="#q" transform="matrix(1,0,0,1,-2780.341049382716,-1053.4416666666668) translate(0 16.177777777777777)"/><use xlink:href="#r" transform="matrix(1,0,0,1,-2780.341049382716,-1053.4416666666668) translate(62.857407407407415 16.177777777777777)"/><path d="M-2459-598.46l.07.83.2.76.3.73.4.67.5.6.6.5.68.42.73.3.77.2.82.06h351.43v1.95H-2454l-1.06-.08-1.06-.25-1.02-.42-.93-.57-.83-.72-.7-.82-.6-.93-.4-1-.26-1.08-.08-1.05v-243.78h1.95zm0-267.96h-1.94v-101.45h1.95z" stroke="#008a0e" stroke-width=".05" fill="#008a0e"/><path d="M-2459.97-968.42h.98v.58h-1.94v-.44h.97v-.14h-.97v-3.45h.97z" fill="#008a0e"/><path stroke="#008a0e" stroke-width=".05" fill="#008a0e"/><path d="M-2087.24-592.42l-14.26 4.63v-9.25z" fill="#008a0e"/><path d="M-2084.08-592.42l-18.4 5.98v-11.96zm-16.45 3.3l10.14-3.3-10.13-3.3z" stroke="#008a0e" stroke-width=".05" fill="#008a0e"/><use xlink:href="#s" transform="matrix(1,0,0,1,-2476.4547283950615,-866.4221912623727) translate(0 16.177777777777777)"/><path d="M-2380.23-1024.2H-2391v-1.95h10.77zm32.3 0h-21.53v-1.95h21.53zm32.3 0h-21.53v-1.95h21.54zm17.4 0h-6.62v-1.95h6.62zm79.52 0h-21.55v-1.95h21.54zm21.53 0h-10.77v-1.95h10.77zm-53.84 0h-21.44v-1.95h21.43z" stroke="#e81313" stroke-width=".05" fill="#e81313"/><path d="M-2390.97-1024.2h-1.6l.57-.97-.56-.98h1.6z" fill="#e81313"/><path stroke="#e81313" stroke-width=".05" fill="#e81313"/><path d="M-2181.9-1025.17l-14.27 4.63v-9.27z" fill="#e81313"/><path d="M-2178.75-1025.17l-18.4 5.97v-11.95zm-16.45 3.3l10.14-3.3-10.14-3.3z" stroke="#e81313" stroke-width=".05" fill="#e81313"/><use xlink:href="#t" transform="matrix(1,0,0,1,-2298.2269041547625,-1037.3083333333334) translate(0 16.177777777777777)"/><path d="M-1979.03-755.35l.07.82.18.77.3.73.42.67.5.6.6.5.68.42.73.3.76.18.84.07h199.46v1.96h-199.54l-1.05-.08-1.06-.26-1-.42-.94-.57-.83-.7-.7-.84-.6-.95-.4-1-.26-1.07-.07-1.06v-32.1h1.94zm-5.88-214.4l1.06.25 1 .42.94.57.83.7.7.83.6.94.4 1 .26 1.07.07 1.06v151.26h-1.94v-151.2l-.07-.8-.18-.78-.3-.73-.42-.67-.5-.6-.6-.5-.68-.42-.73-.3-.76-.2-.84-.05h-97.78v-1.94h97.86z" stroke="#008a0e" stroke-width=".05" fill="#008a0e"/><path d="M-2083.03-968.66h-1.94v-4.03h1.94z" stroke="#008a0e" stroke-width=".05" fill="#008a0e"/><path d="M-1759.24-749.32l-14.26 4.64v-9.27z" fill="#008a0e"/><path d="M-1756.08-749.32l-18.4 5.98v-11.95zm-16.45 3.3l10.14-3.3-10.13-3.3z" stroke="#008a0e" stroke-width=".05" fill="#008a0e"/><use xlink:href="#s" transform="matrix(1,0,0,1,-1996.4867283950616,-811.6357623833334) translate(0 16.177777777777777)"/><path d="M-2042.54-1024.2h-9.8v-1.95h9.8zm29.4 0h-19.6v-1.95h19.6zm29.37 0h-19.6v-1.95h19.6zm29.38 0h-19.57v-1.95h19.58zm29.4 0h-19.6v-1.95h19.6zm15.44 0h-5.65v-1.95h5.64zm72.7 0h-19.58v-1.95h19.58zm29.4 0h-19.6v-1.95h19.6zm29.37 0h-19.58v-1.95h19.6zm19.6 0h-9.8v-1.95h9.8zm-107.74 0h-17.53v-1.95h17.53z" stroke="#e81313" stroke-width=".05" fill="#e81313"/><path d="M-2052.3-1024.2h-.55l-.96-1.95h1.5z" fill="#e81313"/><path stroke="#e81313" stroke-width=".05" fill="#e81313"/><path d="M-1743.24-1025.17l-14.26 4.63v-9.27z" fill="#e81313"/><path d="M-1740.08-1025.17l-18.4 5.97v-11.95zm-16.45 3.3l10.14-3.3-10.13-3.3z" stroke="#e81313" stroke-width=".05" fill="#e81313"/><g><use xlink:href="#t" transform="matrix(1,0,0,1,-1909.556429404106,-1037.3083333333334) translate(0 16.177777777777777)"/></g><path d="M-1955.75-592.42H-1402a6 6 0 0 0 6-6v-86.25" stroke="#3a414a" stroke-width=".5" fill="none"/><path d="M-1955.74-592.2h-.26v-.44h.26z" stroke="#3a414a" stroke-width=".05" fill="#3a414a"/><path d="M-1396-699.2l4.63 14.28h-9.27z" stroke="#3a414a" stroke-width=".5" fill="#3a414a"/><path d="M-1627.75-749.32h185.7" stroke="#3a414a" stroke-width=".5" fill="none"/><path d="M-1627.74-749.1h-.26v-.44h.26z" stroke="#3a414a" stroke-width=".05" fill="#3a414a"/><path d="M-1427.53-749.32l-14.27 4.64v-9.27z" stroke="#3a414a" stroke-width=".5" fill="#3a414a"/><path d="M-1611.75-1025.17H-1402a6 6 0 0 1 6 6v204.8" stroke="#3a414a" stroke-width=".5" fill="none"/><path d="M-1611.74-1024.95h-.26v-.45h.26z" stroke="#3a414a" stroke-width=".05" fill="#3a414a"/><path d="M-1396-799.86l-4.63-14.27h9.27z" stroke="#3a414a" stroke-width=".5" fill="#3a414a"/><defs><path fill="#3a414a" d="M185-189c-5-48-123-54-124 2 14 75 158 14 163 119 3 78-121 87-175 55-17-10-28-26-33-46l33-7c5 56 141 63 141-1 0-78-155-14-162-118-5-82 145-84 179-34 5 7 8 16 11 25" id="u"/><path fill="#3a414a" d="M59-47c-2 24 18 29 38 22v24C64 9 27 4 27-40v-127H5v-23h24l9-43h21v43h35v23H59v120" id="v"/><path fill="#3a414a" d="M141-36C126-15 110 5 73 4 37 3 15-17 15-53c-1-64 63-63 125-63 3-35-9-54-41-54-24 1-41 7-42 31l-33-3c5-37 33-52 76-52 45 0 72 20 72 64v82c-1 20 7 32 28 27v20c-31 9-61-2-59-35zM48-53c0 20 12 33 32 33 41-3 63-29 60-74-43 2-92-5-92 41" id="w"/><path fill="#3a414a" d="M114-163C36-179 61-72 57 0H25l-1-190h30c1 12-1 29 2 39 6-27 23-49 58-41v29" id="x"/><g id="a"><use transform="matrix(0.056172839506172835,0,0,0.056172839506172835,0,0)" xlink:href="#u"/><use transform="matrix(0.056172839506172835,0,0,0.056172839506172835,13.481481481481481,0)" xlink:href="#v"/><use transform="matrix(0.056172839506172835,0,0,0.056172839506172835,19.098765432098766,0)" xlink:href="#w"/><use transform="matrix(0.056172839506172835,0,0,0.056172839506172835,30.333333333333332,0)" xlink:href="#x"/><use transform="matrix(0.056172839506172835,0,0,0.056172839506172835,37.0179012345679,0)" xlink:href="#v"/></g><path fill="#3a414a" d="M115-194c55 1 70 41 70 98S169 2 115 4C84 4 66-9 55-30l1 105H24l-1-265h31l2 30c10-21 28-34 59-34zm-8 174c40 0 45-34 45-75s-6-73-45-74c-42 0-51 32-51 76 0 43 10 73 51 73" id="y"/><path fill="#3a414a" d="M100-194c63 0 86 42 84 106H49c0 40 14 67 53 68 26 1 43-12 49-29l28 8c-11 28-37 45-77 45C44 4 14-33 15-96c1-61 26-98 85-98zm52 81c6-60-76-77-97-28-3 7-6 17-6 28h103" id="z"/><path fill="#3a414a" d="M85-194c31 0 48 13 60 33l-1-100h32l1 261h-30c-2-10 0-23-3-31C134-8 116 4 85 4 32 4 16-35 15-94c0-66 23-100 70-100zm9 24c-40 0-46 34-46 75 0 40 6 74 45 74 42 0 51-32 51-76 0-42-9-74-50-73" id="A"/><path fill="#3a414a" d="M24-231v-30h32v30H24zM24 0v-190h32V0H24" id="B"/><path fill="#3a414a" d="M96-169c-40 0-48 33-48 73s9 75 48 75c24 0 41-14 43-38l32 2c-6 37-31 61-74 61-59 0-76-41-82-99-10-93 101-131 147-64 4 7 5 14 7 22l-32 3c-4-21-16-35-41-35" id="C"/><path fill="#3a414a" d="M-5 72V49h209v23H-5" id="D"/><path fill="#3a414a" d="M106-169C34-169 62-67 57 0H25v-261h32l-1 103c12-21 28-36 61-36 89 0 53 116 60 194h-32v-121c2-32-8-49-39-48" id="E"/><path fill="#3a414a" d="M101-234c-31-9-42 10-38 44h38v23H63V0H32v-167H5v-23h27c-7-52 17-82 69-68v24" id="F"/><path fill="#3a414a" d="M100-194c62-1 85 37 85 99 1 63-27 99-86 99S16-35 15-95c0-66 28-99 85-99zM99-20c44 1 53-31 53-75 0-43-8-75-51-75s-53 32-53 75 10 74 51 75" id="G"/><path fill="#3a414a" d="M210-169c-67 3-38 105-44 169h-31v-121c0-29-5-50-35-48C34-165 62-65 56 0H25l-1-190h30c1 10-1 24 2 32 10-44 99-50 107 0 11-21 27-35 58-36 85-2 47 119 55 194h-31v-121c0-29-5-49-35-48" id="H"/><g id="b"><use transform="matrix(0.056172839506172814,0,0,0.056172839506172814,0,0)" xlink:href="#y"/><use transform="matrix(0.056172839506172814,0,0,0.056172839506172814,11.234567901234563,0)" xlink:href="#x"/><use transform="matrix(0.056172839506172814,0,0,0.056172839506172814,17.91913580246913,0)" xlink:href="#z"/><use transform="matrix(0.056172839506172814,0,0,0.056172839506172814,29.15370370370369,0)" xlink:href="#A"/><use transform="matrix(0.056172839506172814,0,0,0.056172839506172814,40.388271604938254,0)" xlink:href="#B"/><use transform="matrix(0.056172839506172814,0,0,0.056172839506172814,44.82592592592591,0)" xlink:href="#C"/><use transform="matrix(0.056172839506172814,0,0,0.056172839506172814,54.937037037037015,0)" xlink:href="#v"/><use transform="matrix(0.056172839506172814,0,0,0.056172839506172814,60.55432098765429,0)" xlink:href="#z"/><use transform="matrix(0.056172839506172814,0,0,0.056172839506172814,71.78888888888886,0)" xlink:href="#A"/><use transform="matrix(0.056172839506172814,0,0,0.056172839506172814,83.02345679012342,0)" xlink:href="#D"/><use transform="matrix(0.056172839506172814,0,0,0.056172839506172814,94.25802469135797,0)" xlink:href="#E"/><use transform="matrix(0.056172839506172814,0,0,0.056172839506172814,105.49259259259253,0)" xlink:href="#F"/><use transform="matrix(0.056172839506172814,0,0,0.056172839506172814,111.10987654320981,0)" xlink:href="#G"/><use transform="matrix(0.056172839506172814,0,0,0.056172839506172814,122.34444444444439,0)" xlink:href="#x"/><use transform="matrix(0.056172839506172814,0,0,0.056172839506172814,129.02901234567895,0)" xlink:href="#H"/></g><path fill="#3a414a" d="M18-27v-27l151-64-151-65v-27l175 74v36" id="I"/><use transform="matrix(0.056172839506172814,0,0,0.056172839506172814,0,0)" xlink:href="#I" id="c"/><path fill="#3a414a" d="M101-251c68 0 85 55 85 127S166 4 100 4C33 4 14-52 14-124c0-73 17-127 87-127zm-1 229c47 0 54-49 54-102s-4-102-53-102c-51 0-55 48-55 102 0 53 5 102 54 102" id="J"/><path fill="#3a414a" d="M103-251c84 0 111 97 45 133-19 10-37 24-39 52H78c0-63 77-55 77-114 0-30-21-42-52-43-32 0-53 17-56 46l-32-2c7-45 34-72 88-72zM77 0v-35h34V0H77" id="K"/><g id="d"><use transform="matrix(0.056172839506172814,0,0,0.056172839506172814,0,0)" xlink:href="#J"/><use transform="matrix(0.056172839506172814,0,0,0.056172839506172814,11.234567901234563,0)" xlink:href="#K"/></g><path fill="#3a414a" d="M115-194c53 0 69 39 70 98 0 66-23 100-70 100C84 3 66-7 56-30L54 0H23l1-261h32v101c10-23 28-34 59-34zm-8 174c40 0 45-34 45-75 0-40-5-75-45-74-42 0-51 32-51 76 0 43 10 73 51 73" id="L"/><path fill="#3a414a" d="M24 0v-261h32V0H24" id="M"/><path fill="#3a414a" d="M179-190L93 31C79 59 56 82 12 73V49c39 6 53-20 64-50L1-190h34L92-34l54-156h33" id="N"/><g id="e"><use transform="matrix(0.056172839506172835,0,0,0.056172839506172835,0,0)" xlink:href="#u"/><use transform="matrix(0.056172839506172835,0,0,0.056172839506172835,13.481481481481481,0)" xlink:href="#v"/><use transform="matrix(0.056172839506172835,0,0,0.056172839506172835,19.098765432098766,0)" xlink:href="#w"/><use transform="matrix(0.056172839506172835,0,0,0.056172839506172835,30.333333333333332,0)" xlink:href="#L"/><use transform="matrix(0.056172839506172835,0,0,0.056172839506172835,41.5679012345679,0)" xlink:href="#B"/><use transform="matrix(0.056172839506172835,0,0,0.056172839506172835,46.00555555555555,0)" xlink:href="#M"/><use transform="matrix(0.056172839506172835,0,0,0.056172839506172835,50.44320987654321,0)" xlink:href="#B"/><use transform="matrix(0.056172839506172835,0,0,0.056172839506172835,54.88086419753086,0)" xlink:href="#v"/><use transform="matrix(0.056172839506172835,0,0,0.056172839506172835,60.49814814814815,0)" xlink:href="#N"/></g><path fill="#3a414a" d="M30 0v-248h33v221h125V0H30" id="O"/><path fill="#3a414a" d="M108 0H70L1-190h34L89-25l56-165h34" id="P"/><g id="f"><use transform="matrix(0.056172839506172835,0,0,0.056172839506172835,0,0)" xlink:href="#O"/><use transform="matrix(0.056172839506172835,0,0,0.056172839506172835,11.234567901234566,0)" xlink:href="#z"/><use transform="matrix(0.056172839506172835,0,0,0.056172839506172835,22.469135802469133,0)" xlink:href="#P"/><use transform="matrix(0.056172839506172835,0,0,0.056172839506172835,32.58024691358024,0)" xlink:href="#z"/><use transform="matrix(0.056172839506172835,0,0,0.056172839506172835,43.81481481481481,0)" xlink:href="#M"/></g><path fill="#3a414a" d="M27 0v-27h64v-190l-56 39v-29l58-41h29v221h61V0H27" id="Q"/><use transform="matrix(0.056172839506172835,0,0,0.056172839506172835,0,0)" xlink:href="#Q" id="g"/><path fill="#3a414a" d="M87 75C49 33 22-17 22-94c0-76 28-126 65-167h31c-38 41-64 92-64 168S80 34 118 75H87" id="R"/><path fill="#3a414a" d="M206 0h-36l-40-164L89 0H53L-1-190h32L70-26l43-164h34l41 164 42-164h31" id="S"/><path fill="#3a414a" d="M33-261c38 41 65 92 65 168S71 34 33 75H2C39 34 66-17 66-93S39-220 2-261h31" id="T"/><g id="h"><use transform="matrix(0.056172839506172835,0,0,0.056172839506172835,0,0)" xlink:href="#R"/><use transform="matrix(0.056172839506172835,0,0,0.056172839506172835,6.684567901234567,0)" xlink:href="#O"/><use transform="matrix(0.056172839506172835,0,0,0.056172839506172835,17.919135802469135,0)" xlink:href="#G"/><use transform="matrix(0.056172839506172835,0,0,0.056172839506172835,29.1537037037037,0)" xlink:href="#S"/><use transform="matrix(0.056172839506172835,0,0,0.056172839506172835,43.70246913580247,0)" xlink:href="#T"/></g><path fill="#3a414a" d="M84 4C-5 8 30-112 23-190h32v120c0 31 7 50 39 49 72-2 45-101 50-169h31l1 190h-30c-1-10 1-25-2-33-11 22-28 36-60 37" id="U"/><g id="i"><use transform="matrix(0.056172839506172835,0,0,0.056172839506172835,0,0)" xlink:href="#y"/><use transform="matrix(0.056172839506172835,0,0,0.056172839506172835,11.234567901234566,0)" xlink:href="#x"/><use transform="matrix(0.056172839506172835,0,0,0.056172839506172835,17.919135802469135,0)" xlink:href="#z"/><use transform="matrix(0.056172839506172835,0,0,0.056172839506172835,29.1537037037037,0)" xlink:href="#A"/><use transform="matrix(0.056172839506172835,0,0,0.056172839506172835,40.38827160493827,0)" xlink:href="#B"/><use transform="matrix(0.056172839506172835,0,0,0.056172839506172835,44.82592592592592,0)" xlink:href="#C"/><use transform="matrix(0.056172839506172835,0,0,0.056172839506172835,54.93703703703703,0)" xlink:href="#v"/><use transform="matrix(0.056172839506172835,0,0,0.056172839506172835,60.554320987654314,0)" xlink:href="#z"/><use transform="matrix(0.056172839506172835,0,0,0.056172839506172835,71.78888888888888,0)" xlink:href="#A"/><use transform="matrix(0.056172839506172835,0,0,0.056172839506172835,83.02345679012345,0)" xlink:href="#D"/><use transform="matrix(0.056172839506172835,0,0,0.056172839506172835,94.25802469135802,0)" xlink:href="#z"/><use transform="matrix(0.056172839506172835,0,0,0.056172839506172835,105.49259259259259,0)" xlink:href="#E"/><use transform="matrix(0.056172839506172835,0,0,0.056172839506172835,116.72716049382716,0)" xlink:href="#U"/><use transform="matrix(0.056172839506172835,0,0,0.056172839506172835,127.96172839506171,0)" xlink:href="#M"/><use transform="matrix(0.056172839506172835,0,0,0.056172839506172835,132.3993827160494,0)" xlink:href="#M"/></g><use transform="matrix(0.056172839506172835,0,0,0.056172839506172835,0,0)" xlink:href="#I" id="j"/><path fill="#3a414a" d="M33 0v-38h34V0H33" id="V"/><path fill="#3a414a" d="M101-251c82-7 93 87 43 132L82-64C71-53 59-42 53-27h129V0H18c2-99 128-94 128-182 0-28-16-43-45-43s-46 15-49 41l-32-3c6-41 34-60 81-64" id="W"/><g id="k"><use transform="matrix(0.056172839506172835,0,0,0.056172839506172835,0,0)" xlink:href="#J"/><use transform="matrix(0.056172839506172835,0,0,0.056172839506172835,11.234567901234566,0)" xlink:href="#V"/><use transform="matrix(0.056172839506172835,0,0,0.056172839506172835,16.851851851851848,0)" xlink:href="#W"/><use transform="matrix(0.056172839506172835,0,0,0.056172839506172835,28.086419753086414,0)" xlink:href="#K"/></g><use transform="matrix(0.056172839506172835,0,0,0.056172839506172835,0,0)" xlink:href="#W" id="l"/><path fill="#3a414a" d="M240 0l2-218c-23 76-54 145-80 218h-23L58-218 59 0H30v-248h44l77 211c21-75 51-140 76-211h43V0h-30" id="X"/><g id="m"><use transform="matrix(0.056172839506172835,0,0,0.056172839506172835,0,0)" xlink:href="#R"/><use transform="matrix(0.056172839506172835,0,0,0.056172839506172835,6.684567901234567,0)" xlink:href="#X"/><use transform="matrix(0.056172839506172835,0,0,0.056172839506172835,23.480246913580245,0)" xlink:href="#z"/><use transform="matrix(0.056172839506172835,0,0,0.056172839506172835,34.714814814814815,0)" xlink:href="#A"/><use transform="matrix(0.056172839506172835,0,0,0.056172839506172835,45.949382716049385,0)" xlink:href="#B"/><use transform="matrix(0.056172839506172835,0,0,0.056172839506172835,50.38703703703704,0)" xlink:href="#U"/><use transform="matrix(0.056172839506172835,0,0,0.056172839506172835,61.6216049382716,0)" xlink:href="#H"/><use transform="matrix(0.056172839506172835,0,0,0.056172839506172835,78.41728395061727,0)" xlink:href="#T"/></g><path fill="#3a414a" d="M126-127c33 6 58 20 58 59 0 88-139 92-164 29-3-8-5-16-6-25l32-3c6 27 21 44 54 44 32 0 52-15 52-46 0-38-36-46-79-43v-28c39 1 72-4 72-42 0-27-17-43-46-43-28 0-47 15-49 41l-32-3c6-42 35-63 81-64 48-1 79 21 79 65 0 36-21 52-52 59" id="Y"/><use transform="matrix(0.056172839506172835,0,0,0.056172839506172835,0,0)" xlink:href="#Y" id="n"/><path fill="#3a414a" d="M197 0v-115H63V0H30v-248h33v105h134v-105h34V0h-34" id="Z"/><path fill="#3a414a" d="M177-190C167-65 218 103 67 71c-23-6-38-20-44-43l32-5c15 47 100 32 89-28v-30C133-14 115 1 83 1 29 1 15-40 15-95c0-56 16-97 71-98 29-1 48 16 59 35 1-10 0-23 2-32h30zM94-22c36 0 50-32 50-73 0-42-14-75-50-75-39 0-46 34-46 75s6 73 46 73" id="aa"/><g id="o"><use transform="matrix(0.056172839506172835,0,0,0.056172839506172835,0,0)" xlink:href="#R"/><use transform="matrix(0.056172839506172835,0,0,0.056172839506172835,6.684567901234567,0)" xlink:href="#Z"/><use transform="matrix(0.056172839506172835,0,0,0.056172839506172835,21.23333333333333,0)" xlink:href="#B"/><use transform="matrix(0.056172839506172835,0,0,0.056172839506172835,25.670987654320985,0)" xlink:href="#aa"/><use transform="matrix(0.056172839506172835,0,0,0.056172839506172835,36.90555555555555,0)" xlink:href="#E"/><use transform="matrix(0.056172839506172835,0,0,0.056172839506172835,48.14012345679012,0)" xlink:href="#T"/></g><path fill="#3a414a" d="M30 0v-248h187v28H63v79h144v27H63v87h162V0H30" id="ab"/><path fill="#3a414a" d="M117-194c89-4 53 116 60 194h-32v-121c0-31-8-49-39-48C34-167 62-67 57 0H25l-1-190h30c1 10-1 24 2 32 11-22 29-35 61-36" id="ac"/><g id="p"><use transform="matrix(0.056172839506172835,0,0,0.056172839506172835,0,0)" xlink:href="#ab"/><use transform="matrix(0.056172839506172835,0,0,0.056172839506172835,13.481481481481481,0)" xlink:href="#ac"/><use transform="matrix(0.056172839506172835,0,0,0.056172839506172835,24.716049382716047,0)" xlink:href="#A"/></g><path fill="#3a414a" d="M212-179c-10-28-35-45-73-45-59 0-87 40-87 99 0 60 29 101 89 101 43 0 62-24 78-52l27 14C228-24 195 4 139 4 59 4 22-46 18-125c-6-104 99-153 187-111 19 9 31 26 39 46" id="ad"/><path fill="#3a414a" d="M143 0L79-87 56-68V0H24v-261h32v163l83-92h37l-77 82L181 0h-38" id="ae"/><g id="q"><use transform="matrix(0.056172839506172835,0,0,0.056172839506172835,0,0)" xlink:href="#ad"/><use transform="matrix(0.056172839506172835,0,0,0.056172839506172835,14.548765432098763,0)" xlink:href="#E"/><use transform="matrix(0.056172839506172835,0,0,0.056172839506172835,25.78333333333333,0)" xlink:href="#z"/><use transform="matrix(0.056172839506172835,0,0,0.056172839506172835,37.0179012345679,0)" xlink:href="#C"/><use transform="matrix(0.056172839506172835,0,0,0.056172839506172835,47.129012345679016,0)" xlink:href="#ae"/></g><g id="r"><use transform="matrix(0.056172839506172835,0,0,0.056172839506172835,0,0)" xlink:href="#y"/><use transform="matrix(0.056172839506172835,0,0,0.056172839506172835,11.234567901234566,0)" xlink:href="#x"/><use transform="matrix(0.056172839506172835,0,0,0.056172839506172835,17.919135802469135,0)" xlink:href="#z"/><use transform="matrix(0.056172839506172835,0,0,0.056172839506172835,29.1537037037037,0)" xlink:href="#A"/><use transform="matrix(0.056172839506172835,0,0,0.056172839506172835,40.38827160493827,0)" xlink:href="#B"/><use transform="matrix(0.056172839506172835,0,0,0.056172839506172835,44.82592592592592,0)" xlink:href="#C"/><use transform="matrix(0.056172839506172835,0,0,0.056172839506172835,54.93703703703703,0)" xlink:href="#v"/><use transform="matrix(0.056172839506172835,0,0,0.056172839506172835,60.554320987654314,0)" xlink:href="#z"/><use transform="matrix(0.056172839506172835,0,0,0.056172839506172835,71.78888888888888,0)" xlink:href="#A"/><use transform="matrix(0.056172839506172835,0,0,0.056172839506172835,83.02345679012345,0)" xlink:href="#D"/><use transform="matrix(0.056172839506172835,0,0,0.056172839506172835,94.25802469135802,0)" xlink:href="#E"/><use transform="matrix(0.056172839506172835,0,0,0.056172839506172835,105.49259259259259,0)" xlink:href="#F"/><use transform="matrix(0.056172839506172835,0,0,0.056172839506172835,111.10987654320986,0)" xlink:href="#G"/><use transform="matrix(0.056172839506172835,0,0,0.056172839506172835,122.34444444444443,0)" xlink:href="#x"/><use transform="matrix(0.056172839506172835,0,0,0.056172839506172835,129.029012345679,0)" xlink:href="#H"/></g><path fill="#3a414a" d="M137-103V0h-34v-103L8-248h37l75 118 75-118h37" id="af"/><path fill="#3a414a" d="M135-143c-3-34-86-38-87 0 15 53 115 12 119 90S17 21 10-45l28-5c4 36 97 45 98 0-10-56-113-15-118-90-4-57 82-63 122-42 12 7 21 19 24 35" id="ag"/><g id="s"><use transform="matrix(0.056172839506172835,0,0,0.056172839506172835,0,0)" xlink:href="#af"/><use transform="matrix(0.056172839506172835,0,0,0.056172839506172835,11.627777777777776,0)" xlink:href="#z"/><use transform="matrix(0.056172839506172835,0,0,0.056172839506172835,22.862345679012343,0)" xlink:href="#ag"/></g><path fill="#3a414a" d="M190 0L58-211 59 0H30v-248h39L202-35l-2-213h31V0h-41" id="ah"/><g id="t"><use transform="matrix(0.056172839506172835,0,0,0.056172839506172835,0,0)" xlink:href="#ah"/><use transform="matrix(0.056172839506172835,0,0,0.056172839506172835,14.548765432098763,0)" xlink:href="#G"/></g></defs></g></svg>