<svg width="110" height="80" viewBox="0 0 110 80" fill="none" xmlns="http://www.w3.org/2000/svg">
<path d="M68.4293 46.3512L40.2793 41.8062L40.7573 38.8452L68.9083 43.3902L68.4293 46.3512Z" fill="url(#paint0_linear_300_2687)"/>
<path d="M19.0531 63.8731L16.4131 62.4491L26.5301 43.6841L29.1711 45.1071L19.0531 63.8731Z" fill="url(#paint1_linear_300_2687)"/>
<path d="M30.6411 17.417H27.6411V35.13H30.6411V17.417Z" fill="url(#paint2_linear_300_2687)"/>
<path d="M28.4352 36.4534L14.3572 28.9434L15.7692 26.2974L29.8472 33.8074L28.4352 36.4534Z" fill="url(#paint3_linear_300_2687)"/>
<path d="M82.3363 35.7832L79.6343 34.4772L88.1993 16.7642L90.9003 18.0702L82.3363 35.7832Z" fill="url(#paint4_linear_300_2687)"/>
<path d="M79.1373 65.496L76.1453 65.287L77.6122 44.291L80.6042 44.5L79.1373 65.496Z" fill="url(#paint5_linear_300_2687)"/>
<path d="M95.0362 57.0932L78.2622 45.6342L79.9542 43.1572L96.7272 54.6162L95.0362 57.0932Z" fill="url(#paint6_linear_300_2687)"/>
<path d="M43.5872 35.0181C46.5182 40.9431 44.0902 48.1231 38.1652 51.0541C32.2392 53.9861 25.0602 51.5581 22.1292 45.6331C19.1972 39.7061 21.6242 32.5271 27.5492 29.5951C33.4742 26.6641 40.6552 29.0911 43.5872 35.0181Z" fill="url(#paint7_radial_300_2687)"/>
<path d="M37.5632 32.2911C38.8812 34.9571 36.8302 38.6641 32.9782 40.5691C29.1262 42.4741 24.9342 41.8561 23.6152 39.1901C22.2972 36.5231 24.3502 32.8171 28.2012 30.9131C32.0522 29.0081 36.2442 29.6241 37.5632 32.2911Z" fill="url(#paint8_linear_300_2687)"/>
<path opacity="0.8" d="M32.6162 32.2839C33.2512 33.3989 32.4601 35.0459 30.8501 35.9629C29.2401 36.8809 27.4201 36.7199 26.7851 35.6069C26.1491 34.4909 26.9412 32.8439 28.5512 31.9259C30.1622 31.0089 31.9822 31.1689 32.6162 32.2839Z" fill="white"/>
<path d="M86.252 36.5762C89.183 42.5012 86.755 49.6812 80.83 52.6122C74.904 55.5442 67.725 53.1162 64.794 47.1912C61.862 41.2642 64.289 34.0852 70.214 31.1532C76.139 28.2232 83.32 30.6492 86.252 36.5762Z" fill="url(#paint9_radial_300_2687)"/>
<path d="M80.228 33.8501C81.546 36.5161 79.495 40.2231 75.643 42.1281C71.791 44.0331 67.599 43.4151 66.28 40.7491C64.962 38.0821 67.015 34.3761 70.866 32.4721C74.717 30.5661 78.909 31.1831 80.228 33.8501Z" fill="url(#paint10_linear_300_2687)"/>
<path opacity="0.8" d="M75.2809 33.8434C75.9159 34.9584 75.1249 36.6054 73.5149 37.5224C71.9049 38.4404 70.0849 38.2794 69.4509 37.1664C68.8149 36.0504 69.6069 34.4034 71.2169 33.4854C72.8269 32.5674 74.6469 32.7284 75.2809 33.8434Z" fill="white"/>
<path d="M37.4812 5.18207C39.7582 9.78707 37.8722 15.3681 33.2662 17.6471C28.6612 19.9251 23.0802 18.0391 20.8012 13.4331C18.5232 8.82707 20.4082 3.24506 25.0142 0.966063C29.6212 -1.31094 35.2022 0.574067 37.4812 5.18207Z" fill="url(#paint11_radial_300_2687)"/>
<path d="M32.7982 3.06203C33.8232 5.13403 32.2292 8.01502 29.2352 9.49702C26.2412 10.977 22.9822 10.497 21.9572 8.42503C20.9332 6.35203 22.5292 3.47101 25.5222 1.99101C28.5152 0.510013 31.7732 0.989027 32.7982 3.06203Z" fill="url(#paint12_linear_300_2687)"/>
<path opacity="0.8" d="M28.9542 3.05697C29.4472 3.92397 28.8322 5.20298 27.5812 5.91598C26.3302 6.62998 24.9152 6.50497 24.4222 5.63897C23.9282 4.77197 24.5442 3.49299 25.7952 2.77899C27.0462 2.06599 28.4612 2.18997 28.9542 3.05697Z" fill="white"/>
<path d="M98.76 14.793C97.133 19.667 91.864 22.301 86.989 20.675C82.114 19.049 79.48 13.779 81.106 8.90498C82.733 4.02998 88.001 1.395 92.876 3.02C97.752 4.648 100.386 9.91698 98.76 14.793Z" fill="url(#paint13_radial_300_2687)"/>
<path d="M96.9271 9.991C96.1971 12.184 93.0351 13.106 89.8671 12.05C86.6981 10.992 84.7221 8.357 85.4541 6.163C86.1871 3.97 89.3501 3.04902 92.5151 4.10502C95.6841 5.16202 97.6601 7.797 96.9271 9.991Z" fill="url(#paint14_linear_300_2687)"/>
<path opacity="0.8" d="M94.2022 7.2789C93.9422 8.2419 92.6041 8.7179 91.2141 8.3429C89.8231 7.9689 88.9061 6.8829 89.1661 5.9209C89.4271 4.9569 90.7652 4.48288 92.1552 4.85788C93.5462 5.23088 94.4632 6.3159 94.2022 7.2789Z" fill="white"/>
<path d="M108.857 55.9539C111.134 60.5589 109.248 66.1399 104.642 68.4189C100.037 70.6969 94.456 68.8109 92.177 64.2049C89.899 59.5989 91.785 54.0169 96.39 51.7379C100.997 49.4609 106.578 51.3469 108.857 55.9539Z" fill="url(#paint15_radial_300_2687)"/>
<path d="M104.174 53.8349C105.199 55.9069 103.605 58.7879 100.611 60.2699C97.6169 61.7499 94.3579 61.2699 93.3329 59.1979C92.3089 57.1249 93.9049 54.2439 96.8979 52.7639C99.8909 51.2819 103.149 51.7619 104.174 53.8349Z" fill="url(#paint16_linear_300_2687)"/>
<path opacity="0.8" d="M100.33 53.829C100.823 54.696 100.208 55.976 98.957 56.688C97.706 57.402 96.291 57.277 95.798 56.411C95.304 55.544 95.92 54.2649 97.171 53.5509C98.422 52.8379 99.837 52.962 100.33 53.829Z" fill="white"/>
<path d="M84.4861 65.9211C86.7631 70.5261 84.8771 76.1081 80.2711 78.3861C75.6661 80.6641 70.0851 78.7781 67.8061 74.1721C65.5281 69.5661 67.4131 63.9841 72.0191 61.7051C76.6261 59.4281 82.2071 61.3141 84.4861 65.9211Z" fill="url(#paint17_radial_300_2687)"/>
<path d="M79.8031 63.8022C80.8281 65.8742 79.2341 68.7552 76.2391 70.2372C73.2451 71.7172 69.9861 71.2372 68.9611 69.1652C67.9371 67.0922 69.5331 64.2112 72.5251 62.7312C75.5201 61.2492 78.7781 61.7292 79.8031 63.8022Z" fill="url(#paint18_linear_300_2687)"/>
<path opacity="0.8" d="M75.9591 63.7962C76.4521 64.6632 75.8372 65.9432 74.5862 66.6552C73.3352 67.3692 71.9201 67.2443 71.4271 66.3783C70.9331 65.5113 71.5491 64.2312 72.8001 63.5182C74.0501 62.8052 75.4661 62.9292 75.9591 63.7962Z" fill="white"/>
<path d="M13.7661 15.641C18.2761 18.104 19.9351 23.756 17.4731 28.266C15.0111 32.776 9.35812 34.4359 4.84812 31.9739C0.338124 29.5099 -1.32289 23.8589 1.13911 19.3479C3.60311 14.8379 9.25512 13.177 13.7661 15.641Z" fill="url(#paint19_radial_300_2687)"/>
<path d="M8.7161 16.5951C10.7451 17.7021 11.0941 20.9771 9.49311 23.9081C7.89111 26.8401 4.9471 28.3171 2.9181 27.2101C0.8891 26.1011 0.542106 22.8251 2.14311 19.8951C3.74411 16.9641 6.6861 15.4851 8.7161 16.5951Z" fill="url(#paint20_linear_300_2687)"/>
<path opacity="0.8" d="M5.56507 18.7969C6.46607 19.2239 6.69808 20.6239 6.08308 21.9269C5.46908 23.2299 4.23808 23.9399 3.33808 23.5139C2.43508 23.0869 2.20507 21.6869 2.81907 20.3829C3.43307 19.0809 4.66407 18.3699 5.56507 18.7969Z" fill="white"/>
<path d="M20.972 57.289C24.215 61.275 23.6141 67.135 19.6291 70.379C15.6451 73.622 9.78303 73.0211 6.53903 69.0361C3.29603 65.0501 3.89504 59.1901 7.88104 55.9451C11.868 52.7021 17.728 53.302 20.972 57.289Z" fill="url(#paint21_radial_300_2687)"/>
<path d="M15.9371 56.2632C17.3971 58.0562 16.4811 61.2192 13.8901 63.3282C11.2991 65.4362 8.01514 65.6902 6.55514 63.8972C5.09614 62.1032 6.01412 58.9392 8.60412 56.8332C11.1941 54.7242 14.4771 54.4682 15.9371 56.2632Z" fill="url(#paint22_linear_300_2687)"/>
<path opacity="0.8" d="M12.187 57.1092C12.86 57.8452 12.544 59.2292 11.482 60.2022C10.42 61.1762 9.01299 61.3682 8.33999 60.6342C7.66599 59.8972 7.98298 58.5142 9.04498 57.5392C10.106 56.5662 11.514 56.3732 12.187 57.1092Z" fill="white"/>
<defs>
<linearGradient id="paint0_linear_300_2687" x1="40.2793" y1="42.5979" x2="68.9082" y2="42.5979" gradientUnits="userSpaceOnUse">
<stop stop-color="#C9C9C9"/>
<stop offset="1" stop-color="#7A98BF"/>
</linearGradient>
<linearGradient id="paint1_linear_300_2687" x1="16.4129" y1="53.7784" x2="29.1707" y2="53.7784" gradientUnits="userSpaceOnUse">
<stop stop-color="#C9C9C9"/>
<stop offset="1" stop-color="#7A98BF"/>
</linearGradient>
<linearGradient id="paint2_linear_300_2687" x1="27.6414" y1="26.2735" x2="30.6414" y2="26.2735" gradientUnits="userSpaceOnUse">
<stop stop-color="#C9C9C9"/>
<stop offset="1" stop-color="#7A98BF"/>
</linearGradient>
<linearGradient id="paint3_linear_300_2687" x1="14.3573" y1="31.3754" x2="29.8476" y2="31.3754" gradientUnits="userSpaceOnUse">
<stop stop-color="#C9C9C9"/>
<stop offset="1" stop-color="#7A98BF"/>
</linearGradient>
<linearGradient id="paint4_linear_300_2687" x1="79.6348" y1="26.2737" x2="90.9004" y2="26.2737" gradientUnits="userSpaceOnUse">
<stop stop-color="#C9C9C9"/>
<stop offset="1" stop-color="#7A98BF"/>
</linearGradient>
<linearGradient id="paint5_linear_300_2687" x1="76.1455" y1="54.8935" x2="80.6044" y2="54.8935" gradientUnits="userSpaceOnUse">
<stop stop-color="#C9C9C9"/>
<stop offset="1" stop-color="#7A98BF"/>
</linearGradient>
<linearGradient id="paint6_linear_300_2687" x1="78.2626" y1="50.1253" x2="96.7275" y2="50.1253" gradientUnits="userSpaceOnUse">
<stop stop-color="#C9C9C9"/>
<stop offset="1" stop-color="#7A98BF"/>
</linearGradient>
<radialGradient id="paint7_radial_300_2687" cx="0" cy="0" r="1" gradientUnits="userSpaceOnUse" gradientTransform="translate(33.686 42.168) rotate(-26.3217) scale(14.3648 14.3648)">
<stop offset="0.2796" stop-color="#0656B8"/>
<stop offset="0.3714" stop-color="#0A58B9"/>
<stop offset="0.4546" stop-color="#1560BE"/>
<stop offset="0.5346" stop-color="#276CC6"/>
<stop offset="0.6126" stop-color="#417DD1"/>
<stop offset="0.6891" stop-color="#6393DF"/>
<stop offset="0.7635" stop-color="#8BAEEF"/>
<stop offset="0.8109" stop-color="#A9C2FC"/>
<stop offset="1" stop-color="white"/>
</radialGradient>
<linearGradient id="paint8_linear_300_2687" x1="28.3817" y1="52.1396" x2="32.4618" y2="21.8327" gradientUnits="userSpaceOnUse">
<stop offset="0.0753"/>
<stop offset="0.2137" stop-color="#040404"/>
<stop offset="0.3629" stop-color="#111111"/>
<stop offset="0.5172" stop-color="#272727"/>
<stop offset="0.675" stop-color="#454545"/>
<stop offset="0.8355" stop-color="#6C6C6C"/>
<stop offset="0.9961" stop-color="#9B9B9B"/>
<stop offset="1" stop-color="#9C9C9C"/>
</linearGradient>
<radialGradient id="paint9_radial_300_2687" cx="0" cy="0" r="1" gradientUnits="userSpaceOnUse" gradientTransform="translate(76.3509 43.7267) rotate(-26.3216) scale(14.3648 14.3648)">
<stop offset="0.2796" stop-color="#0656B8"/>
<stop offset="0.3714" stop-color="#0A58B9"/>
<stop offset="0.4546" stop-color="#1560BE"/>
<stop offset="0.5346" stop-color="#276CC6"/>
<stop offset="0.6126" stop-color="#417DD1"/>
<stop offset="0.6891" stop-color="#6393DF"/>
<stop offset="0.7635" stop-color="#8BAEEF"/>
<stop offset="0.8109" stop-color="#A9C2FC"/>
<stop offset="1" stop-color="white"/>
</radialGradient>
<linearGradient id="paint10_linear_300_2687" x1="71.0465" y1="53.6982" x2="75.1266" y2="23.3913" gradientUnits="userSpaceOnUse">
<stop offset="0.0753"/>
<stop offset="0.2137" stop-color="#040404"/>
<stop offset="0.3629" stop-color="#111111"/>
<stop offset="0.5172" stop-color="#272727"/>
<stop offset="0.675" stop-color="#454545"/>
<stop offset="0.8355" stop-color="#6C6C6C"/>
<stop offset="0.9961" stop-color="#9B9B9B"/>
<stop offset="1" stop-color="#9C9C9C"/>
</linearGradient>
<radialGradient id="paint11_radial_300_2687" cx="0" cy="0" r="1" gradientUnits="userSpaceOnUse" gradientTransform="translate(29.7851 10.7393) rotate(-26.3216) scale(11.166 11.166)">
<stop offset="0.2796" stop-color="#0656B8"/>
<stop offset="0.3714" stop-color="#0A58B9"/>
<stop offset="0.4546" stop-color="#1560BE"/>
<stop offset="0.5346" stop-color="#276CC6"/>
<stop offset="0.6126" stop-color="#417DD1"/>
<stop offset="0.6891" stop-color="#6393DF"/>
<stop offset="0.7635" stop-color="#8BAEEF"/>
<stop offset="0.8109" stop-color="#A9C2FC"/>
<stop offset="1" stop-color="white"/>
</radialGradient>
<linearGradient id="paint12_linear_300_2687" x1="25.6623" y1="18.4901" x2="28.8336" y2="-5.06693" gradientUnits="userSpaceOnUse">
<stop offset="0.0753"/>
<stop offset="0.2137" stop-color="#040404"/>
<stop offset="0.3629" stop-color="#111111"/>
<stop offset="0.5172" stop-color="#272727"/>
<stop offset="0.675" stop-color="#454545"/>
<stop offset="0.8355" stop-color="#6C6C6C"/>
<stop offset="0.9961" stop-color="#9B9B9B"/>
<stop offset="1" stop-color="#9C9C9C"/>
</linearGradient>
<radialGradient id="paint13_radial_300_2687" cx="0" cy="0" r="1" gradientUnits="userSpaceOnUse" gradientTransform="translate(89.3824 13.3191) rotate(18.4458) scale(11.1661 11.1661)">
<stop offset="0.2796" stop-color="#0656B8"/>
<stop offset="0.3714" stop-color="#0A58B9"/>
<stop offset="0.4546" stop-color="#1560BE"/>
<stop offset="0.5346" stop-color="#276CC6"/>
<stop offset="0.6126" stop-color="#417DD1"/>
<stop offset="0.6891" stop-color="#6393DF"/>
<stop offset="0.7635" stop-color="#8BAEEF"/>
<stop offset="0.8109" stop-color="#A9C2FC"/>
<stop offset="1" stop-color="white"/>
</radialGradient>
<linearGradient id="paint14_linear_300_2687" x1="80.9967" y1="15.9186" x2="99.838" y2="1.42719" gradientUnits="userSpaceOnUse">
<stop offset="0.0753"/>
<stop offset="0.2137" stop-color="#040404"/>
<stop offset="0.3629" stop-color="#111111"/>
<stop offset="0.5172" stop-color="#272727"/>
<stop offset="0.675" stop-color="#454545"/>
<stop offset="0.8355" stop-color="#6C6C6C"/>
<stop offset="0.9961" stop-color="#9B9B9B"/>
<stop offset="1" stop-color="#9C9C9C"/>
</linearGradient>
<radialGradient id="paint15_radial_300_2687" cx="0" cy="0" r="1" gradientUnits="userSpaceOnUse" gradientTransform="translate(101.161 61.5115) rotate(-26.3216) scale(11.166 11.166)">
<stop offset="0.2796" stop-color="#0656B8"/>
<stop offset="0.3714" stop-color="#0A58B9"/>
<stop offset="0.4546" stop-color="#1560BE"/>
<stop offset="0.5346" stop-color="#276CC6"/>
<stop offset="0.6126" stop-color="#417DD1"/>
<stop offset="0.6891" stop-color="#6393DF"/>
<stop offset="0.7635" stop-color="#8BAEEF"/>
<stop offset="0.8109" stop-color="#A9C2FC"/>
<stop offset="1" stop-color="white"/>
</radialGradient>
<linearGradient id="paint16_linear_300_2687" x1="97.0379" y1="69.2624" x2="100.209" y2="45.7054" gradientUnits="userSpaceOnUse">
<stop offset="0.0753"/>
<stop offset="0.2137" stop-color="#040404"/>
<stop offset="0.3629" stop-color="#111111"/>
<stop offset="0.5172" stop-color="#272727"/>
<stop offset="0.675" stop-color="#454545"/>
<stop offset="0.8355" stop-color="#6C6C6C"/>
<stop offset="0.9961" stop-color="#9B9B9B"/>
<stop offset="1" stop-color="#9C9C9C"/>
</linearGradient>
<radialGradient id="paint17_radial_300_2687" cx="0" cy="0" r="1" gradientUnits="userSpaceOnUse" gradientTransform="translate(76.79 71.4786) rotate(-26.3216) scale(11.166 11.166)">
<stop offset="0.2796" stop-color="#0656B8"/>
<stop offset="0.3714" stop-color="#0A58B9"/>
<stop offset="0.4546" stop-color="#1560BE"/>
<stop offset="0.5346" stop-color="#276CC6"/>
<stop offset="0.6126" stop-color="#417DD1"/>
<stop offset="0.6891" stop-color="#6393DF"/>
<stop offset="0.7635" stop-color="#8BAEEF"/>
<stop offset="0.8109" stop-color="#A9C2FC"/>
<stop offset="1" stop-color="white"/>
</radialGradient>
<linearGradient id="paint18_linear_300_2687" x1="72.6671" y1="79.2295" x2="75.8384" y2="55.6724" gradientUnits="userSpaceOnUse">
<stop offset="0.0753"/>
<stop offset="0.2137" stop-color="#040404"/>
<stop offset="0.3629" stop-color="#111111"/>
<stop offset="0.5172" stop-color="#272727"/>
<stop offset="0.675" stop-color="#454545"/>
<stop offset="0.8355" stop-color="#6C6C6C"/>
<stop offset="0.9961" stop-color="#9B9B9B"/>
<stop offset="1" stop-color="#9C9C9C"/>
</linearGradient>
<radialGradient id="paint19_radial_300_2687" cx="0" cy="0" r="1" gradientUnits="userSpaceOnUse" gradientTransform="translate(10.6569 24.6101) rotate(-61.3666) scale(11.1659 11.1659)">
<stop offset="0.2796" stop-color="#0656B8"/>
<stop offset="0.3714" stop-color="#0A58B9"/>
<stop offset="0.4546" stop-color="#1560BE"/>
<stop offset="0.5346" stop-color="#276CC6"/>
<stop offset="0.6126" stop-color="#417DD1"/>
<stop offset="0.6891" stop-color="#6393DF"/>
<stop offset="0.7635" stop-color="#8BAEEF"/>
<stop offset="0.8109" stop-color="#A9C2FC"/>
<stop offset="1" stop-color="white"/>
</radialGradient>
<linearGradient id="paint20_linear_300_2687" x1="11.7321" y1="33.3224" x2="0.801851" y2="12.2157" gradientUnits="userSpaceOnUse">
<stop offset="0.0753"/>
<stop offset="0.2137" stop-color="#040404"/>
<stop offset="0.3629" stop-color="#111111"/>
<stop offset="0.5172" stop-color="#272727"/>
<stop offset="0.675" stop-color="#454545"/>
<stop offset="0.8355" stop-color="#6C6C6C"/>
<stop offset="0.9961" stop-color="#9B9B9B"/>
<stop offset="1" stop-color="#9C9C9C"/>
</linearGradient>
<radialGradient id="paint21_radial_300_2687" cx="0" cy="0" r="1" gradientUnits="userSpaceOnUse" gradientTransform="translate(14.7018 64.4167) rotate(-39.1394) scale(11.166 11.166)">
<stop offset="0.2796" stop-color="#0656B8"/>
<stop offset="0.3714" stop-color="#0A58B9"/>
<stop offset="0.4546" stop-color="#1560BE"/>
<stop offset="0.5346" stop-color="#276CC6"/>
<stop offset="0.6126" stop-color="#417DD1"/>
<stop offset="0.6891" stop-color="#6393DF"/>
<stop offset="0.7635" stop-color="#8BAEEF"/>
<stop offset="0.8109" stop-color="#A9C2FC"/>
<stop offset="1" stop-color="white"/>
</radialGradient>
<linearGradient id="paint22_linear_300_2687" x1="12.4015" y1="72.8895" x2="10.2676" y2="49.215" gradientUnits="userSpaceOnUse">
<stop offset="0.0753"/>
<stop offset="0.2137" stop-color="#040404"/>
<stop offset="0.3629" stop-color="#111111"/>
<stop offset="0.5172" stop-color="#272727"/>
<stop offset="0.675" stop-color="#454545"/>
<stop offset="0.8355" stop-color="#6C6C6C"/>
<stop offset="0.9961" stop-color="#9B9B9B"/>
<stop offset="1" stop-color="#9C9C9C"/>
</linearGradient>
</defs>
</svg>
