<svg width="103" height="104" viewBox="0 0 103 104" fill="none" xmlns="http://www.w3.org/2000/svg">
<path d="M54.0671 48.1572L51.5381 47.5222L58.3581 20.3262L60.8871 20.9602L54.0671 48.1572Z" fill="url(#paint0_linear_300_2661)"/>
<path d="M40.4211 85.2622L37.8931 84.6272L44.7121 57.4302L47.2411 58.0652L40.4211 85.2622Z" fill="url(#paint1_linear_300_2661)"/>
<path d="M42.022 52.4033L14.769 45.8133L15.381 43.2803L42.634 49.8703L42.022 52.4033Z" fill="url(#paint2_linear_300_2661)"/>
<path d="M81.67 70.638L55.686 60.1021L56.665 57.686L82.649 68.222L81.67 70.638Z" fill="url(#paint3_linear_300_2661)"/>
<path d="M62.9809 56.8451C62.9809 64.3071 56.9289 70.3581 49.4659 70.3581C42.0019 70.3581 35.9519 64.3071 35.9519 56.8451C35.9519 49.3801 42.0019 43.3291 49.4659 43.3291C56.9289 43.3301 62.9809 49.3801 62.9809 56.8451Z" fill="url(#paint4_radial_300_2661)"/>
<path d="M58.2499 51.0712C58.2499 54.4282 54.3169 57.1532 49.4649 57.1532C44.6139 57.1532 40.6809 54.4282 40.6809 51.0712C40.6809 47.7122 44.6139 44.9902 49.4649 44.9902C54.3169 44.9902 58.2499 47.7112 58.2499 51.0712Z" fill="url(#paint5_linear_300_2661)"/>
<path opacity="0.8" d="M53.2468 48.587C53.3308 50.032 51.7058 51.304 49.6178 51.426C47.5298 51.548 45.7679 50.475 45.6839 49.03C45.5989 47.583 47.2238 46.313 49.3118 46.19C51.4008 46.069 53.1628 47.141 53.2468 48.587Z" fill="white"/>
<path d="M75.156 13.516C75.156 20.978 69.104 27.029 61.641 27.029C54.177 27.029 48.126 20.978 48.126 13.516C48.126 6.05102 54.177 0 61.641 0C69.105 0.001 75.156 6.05102 75.156 13.516Z" fill="url(#paint6_radial_300_2661)"/>
<path d="M70.4259 7.74213C70.4259 11.0991 66.4919 13.8231 61.6419 13.8231C56.7899 13.8231 52.8579 11.0991 52.8579 7.74213C52.8579 4.38313 56.7909 1.66113 61.6419 1.66113C66.4919 1.66113 70.4259 4.38213 70.4259 7.74213Z" fill="url(#paint7_linear_300_2661)"/>
<path opacity="0.8" d="M65.4239 5.25788C65.5069 6.70288 63.8829 7.97487 61.7939 8.09687C59.7059 8.21887 57.9439 7.14587 57.8599 5.70087C57.7749 4.25387 59.3999 2.98388 61.4879 2.86088C63.5769 2.73988 65.3389 3.81188 65.4239 5.25788Z" fill="white"/>
<path d="M25.6299 35.8662C28.9389 42.5552 26.1969 50.6622 19.5079 53.9702C12.8179 57.2802 4.71293 54.5382 1.40393 47.8502C-1.90507 41.1592 0.834934 33.0532 7.52493 29.7442C14.2129 26.4352 22.3199 29.1752 25.6299 35.8662Z" fill="url(#paint8_radial_300_2661)"/>
<path d="M18.8299 32.789C20.3179 35.798 18.0009 39.983 13.6519 42.135C9.30393 44.285 4.57094 43.587 3.08194 40.577C1.59294 37.566 3.91094 33.383 8.25894 31.232C12.6079 29.081 17.3399 29.777 18.8299 32.789Z" fill="url(#paint9_linear_300_2661)"/>
<path opacity="0.8" d="M13.2449 32.7802C13.9609 34.0392 13.0689 35.8982 11.2509 36.9332C9.43386 37.9692 7.37886 37.7872 6.66286 36.5302C5.94486 35.2702 6.83887 33.4122 8.65587 32.3762C10.4739 31.3402 12.5279 31.5212 13.2449 32.7802Z" fill="white"/>
<path d="M48.3919 83.5521C51.7009 90.2411 48.9589 98.3481 42.2689 101.656C35.5789 104.966 27.4739 102.224 24.1649 95.5361C20.8559 88.8451 23.5959 80.7382 30.2859 77.4302C36.9739 74.1222 45.0819 76.8621 48.3919 83.5521Z" fill="url(#paint10_radial_300_2661)"/>
<path d="M41.5909 80.4741C43.0789 83.4841 40.7619 87.6691 36.4129 89.8211C32.0649 91.9701 27.3319 91.2731 25.8429 88.2631C24.3539 85.2521 26.6719 81.0691 31.0199 78.9181C35.3689 76.7671 40.1019 77.4631 41.5909 80.4741Z" fill="url(#paint11_linear_300_2661)"/>
<path opacity="0.8" d="M36.0059 80.466C36.7219 81.725 35.8299 83.584 34.0119 84.619C32.1939 85.655 30.1389 85.474 29.4229 84.216C28.7049 82.956 29.5989 81.098 31.4159 80.062C33.2349 79.027 35.2889 79.208 36.0059 80.466Z" fill="white"/>
<path d="M100.832 64.615C104.141 71.304 101.4 79.411 94.711 82.719C88.021 86.028 79.915 83.287 76.607 76.598C73.297 69.908 76.037 61.801 82.726 58.493C89.416 55.184 97.522 57.923 100.832 64.615Z" fill="url(#paint12_radial_300_2661)"/>
<path d="M94.0319 61.5369C95.5199 64.5459 93.2039 68.7319 88.8549 70.8829C84.5059 73.0329 79.7739 72.3359 78.2849 69.3259C76.7969 66.3149 79.1139 62.1309 83.4629 59.9809C87.8109 57.8299 92.5429 58.5249 94.0319 61.5369Z" fill="url(#paint13_linear_300_2661)"/>
<path opacity="0.8" d="M88.4471 61.5278C89.1631 62.7878 88.2701 64.6468 86.4531 65.6818C84.6351 66.7178 82.5811 66.5368 81.8651 65.2788C81.1461 64.0188 82.0401 62.1608 83.8581 61.1248C85.6761 60.0888 87.7311 60.2698 88.4471 61.5278Z" fill="white"/>
<defs>
<linearGradient id="paint0_linear_300_2661" x1="51.5378" y1="34.2414" x2="60.8869" y2="34.2414" gradientUnits="userSpaceOnUse">
<stop stop-color="#C9C9C9"/>
<stop offset="1" stop-color="#7A98BF"/>
</linearGradient>
<linearGradient id="paint1_linear_300_2661" x1="37.8927" y1="71.3464" x2="47.2409" y2="71.3464" gradientUnits="userSpaceOnUse">
<stop stop-color="#C9C9C9"/>
<stop offset="1" stop-color="#7A98BF"/>
</linearGradient>
<linearGradient id="paint2_linear_300_2661" x1="14.7686" y1="47.8416" x2="42.6343" y2="47.8416" gradientUnits="userSpaceOnUse">
<stop stop-color="#C9C9C9"/>
<stop offset="1" stop-color="#7A98BF"/>
</linearGradient>
<linearGradient id="paint3_linear_300_2661" x1="55.3866" y1="62.1084" x2="82.9476" y2="66.2156" gradientUnits="userSpaceOnUse">
<stop stop-color="#C9C9C9"/>
<stop offset="1" stop-color="#7A98BF"/>
</linearGradient>
<radialGradient id="paint4_radial_300_2661" cx="0" cy="0" r="1" gradientUnits="userSpaceOnUse" gradientTransform="translate(49.3814 59.1244) scale(16.2178)">
<stop offset="0.2796" stop-color="#0656B8"/>
<stop offset="0.3714" stop-color="#0A58B9"/>
<stop offset="0.4546" stop-color="#1560BE"/>
<stop offset="0.5346" stop-color="#276CC6"/>
<stop offset="0.6126" stop-color="#417DD1"/>
<stop offset="0.6891" stop-color="#6393DF"/>
<stop offset="0.7635" stop-color="#8BAEEF"/>
<stop offset="0.8109" stop-color="#A9C2FC"/>
<stop offset="1" stop-color="white"/>
</radialGradient>
<linearGradient id="paint5_linear_300_2661" x1="39.0218" y1="66.5606" x2="58.3231" y2="37.9335" gradientUnits="userSpaceOnUse">
<stop offset="0.0753"/>
<stop offset="0.2137" stop-color="#040404"/>
<stop offset="0.3629" stop-color="#111111"/>
<stop offset="0.5172" stop-color="#272727"/>
<stop offset="0.675" stop-color="#454545"/>
<stop offset="0.8355" stop-color="#6C6C6C"/>
<stop offset="0.9961" stop-color="#9B9B9B"/>
<stop offset="1" stop-color="#9C9C9C"/>
</linearGradient>
<radialGradient id="paint6_radial_300_2661" cx="0" cy="0" r="1" gradientUnits="userSpaceOnUse" gradientTransform="translate(61.5573 15.7952) scale(16.2178 16.2178)">
<stop offset="0.2796" stop-color="#0656B8"/>
<stop offset="0.3714" stop-color="#0A58B9"/>
<stop offset="0.4546" stop-color="#1560BE"/>
<stop offset="0.5346" stop-color="#276CC6"/>
<stop offset="0.6126" stop-color="#417DD1"/>
<stop offset="0.6891" stop-color="#6393DF"/>
<stop offset="0.7635" stop-color="#8BAEEF"/>
<stop offset="0.8109" stop-color="#A9C2FC"/>
<stop offset="1" stop-color="white"/>
</radialGradient>
<linearGradient id="paint7_linear_300_2661" x1="51.1983" y1="23.2304" x2="70.4985" y2="-5.39507" gradientUnits="userSpaceOnUse">
<stop offset="0.0753"/>
<stop offset="0.2137" stop-color="#040404"/>
<stop offset="0.3629" stop-color="#111111"/>
<stop offset="0.5172" stop-color="#272727"/>
<stop offset="0.675" stop-color="#454545"/>
<stop offset="0.8355" stop-color="#6C6C6C"/>
<stop offset="0.9961" stop-color="#9B9B9B"/>
<stop offset="1" stop-color="#9C9C9C"/>
</linearGradient>
<radialGradient id="paint8_radial_300_2661" cx="0" cy="0" r="1" gradientUnits="userSpaceOnUse" gradientTransform="translate(14.4516 43.9386) rotate(-26.3216) scale(16.2176 16.2175)">
<stop offset="0.2796" stop-color="#0656B8"/>
<stop offset="0.3714" stop-color="#0A58B9"/>
<stop offset="0.4546" stop-color="#1560BE"/>
<stop offset="0.5346" stop-color="#276CC6"/>
<stop offset="0.6126" stop-color="#417DD1"/>
<stop offset="0.6891" stop-color="#6393DF"/>
<stop offset="0.7635" stop-color="#8BAEEF"/>
<stop offset="0.8109" stop-color="#A9C2FC"/>
<stop offset="1" stop-color="white"/>
</radialGradient>
<linearGradient id="paint9_linear_300_2661" x1="8.46361" y1="55.196" x2="13.07" y2="20.9804" gradientUnits="userSpaceOnUse">
<stop offset="0.0753"/>
<stop offset="0.2137" stop-color="#040404"/>
<stop offset="0.3629" stop-color="#111111"/>
<stop offset="0.5172" stop-color="#272727"/>
<stop offset="0.675" stop-color="#454545"/>
<stop offset="0.8355" stop-color="#6C6C6C"/>
<stop offset="0.9961" stop-color="#9B9B9B"/>
<stop offset="1" stop-color="#9C9C9C"/>
</linearGradient>
<radialGradient id="paint10_radial_300_2661" cx="0" cy="0" r="1" gradientUnits="userSpaceOnUse" gradientTransform="translate(37.213 91.6249) rotate(-26.3216) scale(16.2178 16.2177)">
<stop offset="0.2796" stop-color="#0656B8"/>
<stop offset="0.3714" stop-color="#0A58B9"/>
<stop offset="0.4546" stop-color="#1560BE"/>
<stop offset="0.5346" stop-color="#276CC6"/>
<stop offset="0.6126" stop-color="#417DD1"/>
<stop offset="0.6891" stop-color="#6393DF"/>
<stop offset="0.7635" stop-color="#8BAEEF"/>
<stop offset="0.8109" stop-color="#A9C2FC"/>
<stop offset="1" stop-color="white"/>
</radialGradient>
<linearGradient id="paint11_linear_300_2661" x1="31.225" y1="102.882" x2="35.8313" y2="68.6671" gradientUnits="userSpaceOnUse">
<stop offset="0.0753"/>
<stop offset="0.2137" stop-color="#040404"/>
<stop offset="0.3629" stop-color="#111111"/>
<stop offset="0.5172" stop-color="#272727"/>
<stop offset="0.675" stop-color="#454545"/>
<stop offset="0.8355" stop-color="#6C6C6C"/>
<stop offset="0.9961" stop-color="#9B9B9B"/>
<stop offset="1" stop-color="#9C9C9C"/>
</linearGradient>
<radialGradient id="paint12_radial_300_2661" cx="0" cy="0" r="1" gradientUnits="userSpaceOnUse" gradientTransform="translate(89.6545 72.6872) rotate(-26.3216) scale(16.2173 16.2173)">
<stop offset="0.2796" stop-color="#0656B8"/>
<stop offset="0.3714" stop-color="#0A58B9"/>
<stop offset="0.4546" stop-color="#1560BE"/>
<stop offset="0.5346" stop-color="#276CC6"/>
<stop offset="0.6126" stop-color="#417DD1"/>
<stop offset="0.6891" stop-color="#6393DF"/>
<stop offset="0.7635" stop-color="#8BAEEF"/>
<stop offset="0.8109" stop-color="#A9C2FC"/>
<stop offset="1" stop-color="white"/>
</radialGradient>
<linearGradient id="paint13_linear_300_2661" x1="83.6664" y1="83.9444" x2="88.2727" y2="49.7289" gradientUnits="userSpaceOnUse">
<stop offset="0.0753"/>
<stop offset="0.2137" stop-color="#040404"/>
<stop offset="0.3629" stop-color="#111111"/>
<stop offset="0.5172" stop-color="#272727"/>
<stop offset="0.675" stop-color="#454545"/>
<stop offset="0.8355" stop-color="#6C6C6C"/>
<stop offset="0.9961" stop-color="#9B9B9B"/>
<stop offset="1" stop-color="#9C9C9C"/>
</linearGradient>
</defs>
</svg>
