<svg width="111" height="66" viewBox="0 0 111 66" fill="none" xmlns="http://www.w3.org/2000/svg">
<path d="M96.0349 39.6252L54.2809 24.3092L55.5289 20.9072L97.2829 36.2232L96.0349 39.6252Z" fill="url(#paint0_linear_300_2641)"/>
<path d="M20.5799 28.833L20.1199 25.238L54.6749 20.8101L55.1349 24.406L20.5799 28.833Z" fill="url(#paint1_linear_300_2641)"/>
<path d="M38.776 46.7421L36.079 44.3241L50.961 27.7241L53.66 30.1421L38.776 46.7421Z" fill="url(#paint2_linear_300_2641)"/>
<path d="M71.266 10.463C75.865 19.762 72.055 31.032 62.755 35.632C53.454 40.232 42.186 36.422 37.586 27.123C32.985 17.821 36.794 6.55199 46.095 1.95099C55.394 -2.64801 66.665 1.16098 71.266 10.463Z" fill="url(#paint3_radial_300_2641)"/>
<path d="M61.812 6.18421C63.881 10.3682 60.66 16.1872 54.615 19.1772C48.57 22.1662 41.99 21.1972 39.92 17.0122C37.85 12.8262 41.073 7.01022 47.117 4.02122C53.163 1.03122 59.742 1.99821 61.812 6.18421Z" fill="url(#paint4_linear_300_2641)"/>
<path opacity="0.8" d="M54.048 6.1718C55.043 7.9228 53.802 10.5078 51.275 11.9458C48.748 13.3858 45.892 13.1348 44.896 11.3858C43.898 9.63378 45.141 7.04978 47.667 5.60978C50.195 4.17178 53.051 4.4228 54.048 6.1718Z" fill="white"/>
<path d="M45.1859 45.4499C49.1849 51.3949 47.6069 59.4579 41.6609 63.4579C35.7149 67.4569 27.6529 65.8799 23.6529 59.9339C19.6529 53.9889 21.2299 45.9249 27.1759 41.9239C33.1219 37.9249 41.1859 39.5019 45.1859 45.4499Z" fill="url(#paint5_radial_300_2641)"/>
<path d="M38.323 43.3828C40.121 46.0588 38.448 50.3357 34.584 52.9367C30.719 55.5357 26.126 55.4727 24.327 52.7977C22.527 50.1207 24.201 45.8467 28.066 43.2467C31.93 40.6467 36.522 40.7078 38.323 43.3828Z" fill="url(#paint6_linear_300_2641)"/>
<path opacity="0.8" d="M33.007 44.0852C33.848 45.1922 33.235 47.0772 31.637 48.2922C30.039 49.5092 28.06 49.5992 27.219 48.4922C26.375 47.3842 26.99 45.5022 28.587 44.2862C30.186 43.0692 32.164 42.9802 33.007 44.0852Z" fill="white"/>
<path d="M23.7439 17.5811C27.7429 23.5261 26.1649 31.5891 20.2189 35.5891C14.2729 39.5881 6.21093 38.0111 2.21093 32.0651C-1.78907 26.1201 -0.21207 18.0561 5.73393 14.0551C11.6799 10.0571 19.7439 11.6341 23.7439 17.5811Z" fill="url(#paint7_radial_300_2641)"/>
<path d="M16.8809 15.5149C18.6789 18.1909 17.0059 22.4679 13.1419 25.0689C9.27694 27.6679 4.68394 27.605 2.88494 24.93C1.08494 22.253 2.75894 17.9789 6.62394 15.3799C10.4889 12.7789 15.0809 12.8399 16.8809 15.5149Z" fill="url(#paint8_linear_300_2641)"/>
<path opacity="0.8" d="M11.5649 16.2171C12.4059 17.3241 11.7929 19.2091 10.1939 20.4241C8.59594 21.6411 6.61694 21.7311 5.77694 20.6241C4.93294 19.5161 5.54794 17.6341 7.14494 16.4171C8.74494 15.2011 10.7229 15.1121 11.5649 16.2171Z" fill="white"/>
<path d="M110.239 37.949C111.215 45.048 106.25 51.595 99.15 52.57C92.051 53.545 85.505 48.582 84.529 41.481C83.553 34.383 88.517 27.835 95.617 26.859C102.716 25.884 109.264 30.849 110.239 37.949Z" fill="url(#paint9_radial_300_2641)"/>
<path d="M104.985 33.0753C105.423 36.2683 102.038 39.3753 97.424 40.0083C92.81 40.6423 88.713 38.5653 88.274 35.3723C87.836 32.1773 91.219 29.0743 95.834 28.4403C100.449 27.8043 104.546 29.8803 104.985 33.0753Z" fill="url(#paint10_linear_300_2641)"/>
<path opacity="0.8" d="M99.9019 31.3659C100.17 32.7299 98.7909 34.1529 96.8209 34.5409C94.8509 34.9309 93.0339 34.1409 92.7659 32.7779C92.4959 31.4109 93.8759 29.9909 95.8449 29.6019C97.8169 29.2109 99.6319 30.0019 99.9019 31.3659Z" fill="white"/>
<defs>
<linearGradient id="paint0_linear_300_2641" x1="90.2364" y1="35.8006" x2="63.1581" y2="25.4327" gradientUnits="userSpaceOnUse">
<stop offset="0.3293" stop-color="#C9C9C9"/>
<stop offset="1" stop-color="#7A98BF"/>
</linearGradient>
<linearGradient id="paint1_linear_300_2641" x1="25.2468" y1="38.8389" x2="42.7618" y2="19.0082" gradientUnits="userSpaceOnUse">
<stop offset="0.3293" stop-color="#C9C9C9"/>
<stop offset="1" stop-color="#7A98BF"/>
</linearGradient>
<linearGradient id="paint2_linear_300_2641" x1="52.3766" y1="28.8165" x2="33.2518" y2="50.2567" gradientUnits="userSpaceOnUse">
<stop stop-color="#7A98BF"/>
<stop offset="0.6707" stop-color="#C9C9C9"/>
</linearGradient>
<radialGradient id="paint3_radial_300_2641" cx="0" cy="0" r="1" gradientUnits="userSpaceOnUse" gradientTransform="translate(55.726 21.6856) rotate(-26.3216) scale(22.5461)">
<stop offset="0.2796" stop-color="#0656B8"/>
<stop offset="0.3714" stop-color="#0A58B9"/>
<stop offset="0.4546" stop-color="#1560BE"/>
<stop offset="0.5346" stop-color="#276CC6"/>
<stop offset="0.6126" stop-color="#417DD1"/>
<stop offset="0.6891" stop-color="#6393DF"/>
<stop offset="0.7635" stop-color="#8BAEEF"/>
<stop offset="0.8109" stop-color="#A9C2FC"/>
<stop offset="1" stop-color="white"/>
</radialGradient>
<linearGradient id="paint4_linear_300_2641" x1="47.4012" y1="37.3361" x2="53.8049" y2="-10.2308" gradientUnits="userSpaceOnUse">
<stop offset="0.0753"/>
<stop offset="0.2137" stop-color="#040404"/>
<stop offset="0.3629" stop-color="#111111"/>
<stop offset="0.5172" stop-color="#272727"/>
<stop offset="0.675" stop-color="#454545"/>
<stop offset="0.8355" stop-color="#6C6C6C"/>
<stop offset="0.9961" stop-color="#9B9B9B"/>
<stop offset="1" stop-color="#9C9C9C"/>
</linearGradient>
<radialGradient id="paint5_radial_300_2641" cx="0" cy="0" r="1" gradientUnits="userSpaceOnUse" gradientTransform="translate(35.5733 54.5523) rotate(-33.9316) scale(15.5713)">
<stop offset="0.2796" stop-color="#0656B8"/>
<stop offset="0.3714" stop-color="#0A58B9"/>
<stop offset="0.4546" stop-color="#1560BE"/>
<stop offset="0.5346" stop-color="#276CC6"/>
<stop offset="0.6126" stop-color="#417DD1"/>
<stop offset="0.6891" stop-color="#6393DF"/>
<stop offset="0.7635" stop-color="#8BAEEF"/>
<stop offset="0.8109" stop-color="#A9C2FC"/>
<stop offset="1" stop-color="white"/>
</radialGradient>
<linearGradient id="paint6_linear_300_2641" x1="31.3061" y1="66.026" x2="31.3393" y2="32.8796" gradientUnits="userSpaceOnUse">
<stop offset="0.0753"/>
<stop offset="0.2137" stop-color="#040404"/>
<stop offset="0.3629" stop-color="#111111"/>
<stop offset="0.5172" stop-color="#272727"/>
<stop offset="0.675" stop-color="#454545"/>
<stop offset="0.8355" stop-color="#6C6C6C"/>
<stop offset="0.9961" stop-color="#9B9B9B"/>
<stop offset="1" stop-color="#9C9C9C"/>
</linearGradient>
<radialGradient id="paint7_radial_300_2641" cx="0" cy="0" r="1" gradientUnits="userSpaceOnUse" gradientTransform="translate(14.1319 26.6844) rotate(-33.9316) scale(15.5713 15.5713)">
<stop offset="0.2796" stop-color="#0656B8"/>
<stop offset="0.3714" stop-color="#0A58B9"/>
<stop offset="0.4546" stop-color="#1560BE"/>
<stop offset="0.5346" stop-color="#276CC6"/>
<stop offset="0.6126" stop-color="#417DD1"/>
<stop offset="0.6891" stop-color="#6393DF"/>
<stop offset="0.7635" stop-color="#8BAEEF"/>
<stop offset="0.8109" stop-color="#A9C2FC"/>
<stop offset="1" stop-color="white"/>
</radialGradient>
<linearGradient id="paint8_linear_300_2641" x1="9.86474" y1="38.1579" x2="9.89796" y2="5.01196" gradientUnits="userSpaceOnUse">
<stop offset="0.0753"/>
<stop offset="0.2137" stop-color="#040404"/>
<stop offset="0.3629" stop-color="#111111"/>
<stop offset="0.5172" stop-color="#272727"/>
<stop offset="0.675" stop-color="#454545"/>
<stop offset="0.8355" stop-color="#6C6C6C"/>
<stop offset="0.9961" stop-color="#9B9B9B"/>
<stop offset="1" stop-color="#9C9C9C"/>
</linearGradient>
<radialGradient id="paint9_radial_300_2641" cx="0" cy="0" r="1" gradientUnits="userSpaceOnUse" gradientTransform="translate(97.6019 41.8947) rotate(-7.82787) scale(15.5714)">
<stop offset="0.2796" stop-color="#0656B8"/>
<stop offset="0.3714" stop-color="#0A58B9"/>
<stop offset="0.4546" stop-color="#1560BE"/>
<stop offset="0.5346" stop-color="#276CC6"/>
<stop offset="0.6126" stop-color="#417DD1"/>
<stop offset="0.6891" stop-color="#6393DF"/>
<stop offset="0.7635" stop-color="#8BAEEF"/>
<stop offset="0.8109" stop-color="#A9C2FC"/>
<stop offset="1" stop-color="white"/>
</radialGradient>
<linearGradient id="paint10_linear_300_2641" x1="88.722" y1="50.3202" x2="103.336" y2="20.5702" gradientUnits="userSpaceOnUse">
<stop offset="0.0753"/>
<stop offset="0.2137" stop-color="#040404"/>
<stop offset="0.3629" stop-color="#111111"/>
<stop offset="0.5172" stop-color="#272727"/>
<stop offset="0.675" stop-color="#454545"/>
<stop offset="0.8355" stop-color="#6C6C6C"/>
<stop offset="0.9961" stop-color="#9B9B9B"/>
<stop offset="1" stop-color="#9C9C9C"/>
</linearGradient>
</defs>
</svg>
