<svg width="73" height="62" viewBox="0 0 73 62" fill="none" xmlns="http://www.w3.org/2000/svg">
<path id="Vector" d="M36.1021 31C33.4494 31 30.8726 30.0863 29.0536 28.4547C27.1589 26.8232 26.0978 24.6695 26.0978 22.3853C26.0978 20.1011 27.1589 17.8821 29.0536 16.3158C30.9484 14.6842 33.4494 13.7705 36.1021 13.7705C38.7547 13.7705 41.3315 14.6842 43.1505 16.3158C45.0452 17.9474 46.1063 20.1011 46.1063 22.3853C46.1063 24.6695 45.0452 26.8884 43.1505 28.4547C41.3315 30.0863 38.7547 31 36.1021 31ZM36.1021 0C26.5526 0 17.3821 3.26316 10.6368 9.07158C3.89152 14.88 0.102051 22.7768 0.102051 31C0.102051 39.2232 3.89152 47.12 10.6368 52.9284C17.3821 58.7368 26.5526 62 36.1021 62C45.6515 62 54.8221 58.7368 61.5673 52.9284C68.3126 47.12 72.1021 39.2232 72.1021 31C72.1021 22.7768 68.3126 14.88 61.5673 9.07158C54.8221 3.26316 45.6515 0 36.1021 0ZM16.0936 48.8821V48.2295C16.0936 46.4021 16.9273 44.64 18.4431 43.3347C19.9589 42.0295 22.0052 41.3116 24.1273 41.3116H48.1526C50.2747 41.3116 52.321 42.0295 53.8368 43.3347C55.3526 44.64 56.1863 46.4021 56.1863 48.2295V48.8821C56.1863 51.2968 54.7463 53.5158 52.3968 54.7558C47.4705 57.2358 41.862 58.6063 36.1778 58.6063C30.4936 58.6063 24.8852 57.3011 19.9589 54.7558C17.5336 53.4505 16.0936 51.2316 16.0936 48.8821Z" fill="#A39B9B"/>
</svg>
